SplineFontDB: 3.2
FontName: AurebeshSheev-Light_BETA
FullName: Aurebesh Sheev Light BETA
FamilyName: AurebeshSheev
Weight: Light
Copyright: CC-0 Public Domain
Version: 1
ItalicAngle: 0
UnderlinePosition: 0
UnderlineWidth: 0
Ascent: 800
Descent: 200
InvalidEm: 0
sfntRevision: 0x00010000
LayerCount: 2
Layer: 0 0 "Back" 1
Layer: 1 0 "Fore" 0
XUID: [1021 178 1911899458 7645]
StyleMap: 0x0040
FSType: 8
OS2Version: 3
OS2_WeightWidthSlopeOnly: 0
OS2_UseTypoMetrics: 0
CreationTime: 1584758657
ModificationTime: 1589917660
PfmFamily: 17
TTFWeight: 400
TTFWidth: 5
LineGap: 90
VLineGap: 0
Panose: 2 0 5 3 0 0 0 0 0 0
OS2TypoAscent: 800
OS2TypoAOffset: 0
OS2TypoDescent: -200
OS2TypoDOffset: 0
OS2TypoLinegap: 90
OS2WinAscent: 813
OS2WinAOffset: 0
OS2WinDescent: 166
OS2WinDOffset: 0
HheadAscent: 813
HheadAOffset: 0
HheadDescent: -166
HheadDOffset: 0
OS2SubXSize: 650
OS2SubYSize: 699
OS2SubXOff: 0
OS2SubYOff: 140
OS2SupXSize: 650
OS2SupYSize: 699
OS2SupXOff: 0
OS2SupYOff: 479
OS2StrikeYSize: 49
OS2StrikeYPos: 258
OS2CapHeight: 740
OS2XHeight: 640
OS2Vendor: 'PfEd'
OS2CodePages: 00000001.00000000
OS2UnicodeRanges: 00000023.00000000.00000000.00000000
MarkAttachClasses: 1
DEI: 91125
LangName: 1033 "" "" "" "" "" "" "" "" "" "" "" "" "" "" "" "" "Aurebesh_Sheev"
Encoding: UnicodeBmp
UnicodeInterp: none
NameList: AGL For New Fonts
DisplaySize: -72
AntiAlias: 1
FitToEm: 0
WinInfo: 0 25 10
BeginPrivate: 6
BlueValues 33 [-53 -39 638 642 640 640 740 740]
BlueShift 2 18
StdHW 4 [41]
StdVW 4 [80]
StemSnapH 32 [32 36 41 48 54 60 70 76 80 198]
StemSnapV 34 [51 60 65 70 76 80 92 100 137 156]
EndPrivate
BeginChars: 65536 84

StartChar: ltr65
Encoding: 65 65 1
Width: 544
GlyphClass: 2
Flags: W
HStem: 290 18<235.744 325.789> 370.001 18<260.224 342.796> 542.645 29.916<140.728 229.347> 573.446 18.8584<105.226 122.646>
VStem: 443.11 61.9062<0.668252 215.37>
LayerCount: 2
Fore
SplineSet
235.743573613 290 m 1
 244.285251189 290 l 1
 245.147187925 290 l 2
 306.805585666 290 353.045709455 278.71875 385.600881523 256.083984375 c 0
 426.567548273 227.600585938 443.110224473 182.81640625 443.110224473 127.56640625 c 0
 443.110224473 92.330078125 436.546486985 52.5126953125 425.113489345 8.4970703125 c 0
 424.358638536 5.4736328125 424.048929234 2.8291015625 424.048929234 0.55859375 c 0
 424.048929234 -11.6708984375 432.63680074 -17.75 446.957968858 -17.75 c 0
 463.875445807 -17.75 483.456422756 -7.7294921875 488.673187244 12.46484375 c 0
 499.556057174 54.58984375 505.016389656 91.5927734375 505.016389656 123.614257812 c 0
 505.016389656 197.084960938 477.245438915 244.362304688 419.107228601 273.229492188 c 0
 372.054511592 296.591796875 303.491171199 308 212.646484375 308 c 0
 196.198242188 308 178.032226562 293.958984375 174.129882812 277.649414062 c 2
 109.716796875 8.5126953125 l 2
 109.018554688 5.4853515625 108.731445312 2.8349609375 108.731445312 0.55859375 c 0
 108.731445312 -11.7265625 116.676757812 -17.75 129.822265625 -17.75 c 0
 145.377929688 -17.75 163.45703125 -7.796875 168.282226562 12.3857421875 c 2
 235.743573613 290 l 1
201.831054688 396.369140625 m 2
 201.299804688 394.079101562 201.065429688 391.928710938 201.065429688 389.942382812 c 0
 201.065429688 378.2109375 208.647460938 370.000976562 221.94140625 370.000976562 c 0
 508.842086938 370.000976562 603.204101562 491.143554688 628.803710938 601.626953125 c 0
 629.501953125 604.639648438 629.7890625 607.28125 629.7890625 609.54296875 c 0
 629.7890625 621.731445312 621.872070312 627.750976562 608.697265625 627.750976562 c 0
 593.135742188 627.750976562 575.060546875 617.48046875 570.237304688 596.673828125 c 0
 549.231445312 506.069335938 480.728881171 388.000976562 275.138596886 388.000976562 c 2
 273.776925817 388.000976562 l 1
 260.224256714 388.000976562 l 1
 277.944878125 458.211914062 295.361039544 528.706054688 313.273785709 598.739257812 c 0
 314.937817046 602.499023438 315.58243234 605.841796875 315.58243234 608.720703125 c 0
 315.58243234 617.643554688 310.613435294 622.396484375 304.60192524 625.4140625 c 0
 300.944205884 627.25 296.40250269 628.37109375 291.552140055 628.37109375 c 0
 286.302829843 628.37109375 281.044070874 626.782226562 275.221535987 624.446289062 c 0
 266.557024553 620.970703125 259.450508389 615.03125 254.334530657 606.803710938 c 1
 237.951433488 590.986328125 212.741210938 572.560546875 179.700195312 572.560546875 c 0
 162.432617188 572.560546875 142.338867188 577.766601562 122.646484375 590.991210938 c 0
 121.166015625 591.985351562 119.887695312 592.3046875 118.501953125 592.3046875 c 0
 116.098632812 592.3046875 112.57421875 590.952148438 109.44921875 588.182617188 c 0
 105.471679688 584.658203125 103.331054688 579.778320312 103.331054688 577.196289062 c 0
 103.331054688 575.590820312 103.494140625 574.805664062 105.495117188 573.446289062 c 0
 139.90625 551.274414062 192.803710938 545.338867188 201.173828125 542.64453125 c 1
 213.63671875 542.64453125 225.576709596 544.669921875 237.637524737 546.250976562 c 1
 201.831054688 396.369140625 l 2
EndSplineSet
Validated: 524297
EndChar

StartChar: ltr66
Encoding: 66 66 2
Width: 536
GlyphClass: 2
Flags: W
HStem: -18 19<153.369 279.711> 290 18<247.274 267.965 316.092 407.404> 550.215 19.2891<126.612 216.218> 597 21<324.71 439.939>
VStem: 52 59.3066<21.6678 144.646> 122.108 60.9771<334.354 371.61 392.86 439.65> 477.712 59.4443<469.863 492.867 525.548 576.78>
LayerCount: 2
Fore
SplineSet
116.139648438 108.416992188 m 0
 136.177734375 192.0078125 234.034491436 290 392.221602394 290 c 0
 401.262798961 290 408.530850831 296.479492188 408.530850831 303.942382812 c 0
 408.530850831 305.591796875 408.039092925 306.436523438 407.770467461 306.7421875 c 0
 407.574414199 306.965820312 406.808614993 308 402.571264931 308 c 2
 384.207248327 308 l 2
 337.692799523 308 298.602378666 308.123046875 267.964994589 312.868164062 c 0
 228.146849574 318.786132812 183.760098861 333.587890625 183.085452301 371.610351562 c 0
 183.085452301 379.713867188 184.409246969 388.467773438 186.94634301 398.1015625 c 0
 197.62806981 438.651367188 224.554435835 494.194335938 261.501693762 536.560546875 c 0
 290.78879153 570.142578125 327.596870403 597 369.720314222 597 c 0
 400.409826888 597 425.009765625 593.982421875 442.827148438 585.38671875 c 0
 465.796875 574.305664062 477.711914062 553.806640625 477.711914062 525.547851562 c 0
 477.711914062 514.322265625 475.998046875 501.928710938 472.692382812 488.061523438 c 0
 471.993164062 485.129882812 471.705078125 482.556640625 471.705078125 480.3515625 c 0
 471.705078125 468.454101562 479.650390625 462.620117188 492.796875 462.620117188 c 0
 508.331054688 462.620117188 526.421875 472.591796875 531.254882812 492.8671875 c 0
 535.317382812 509.905273438 537.15625 524.541992188 537.15625 536.956054688 c 0
 537.15625 578.078125 518.61328125 596.756835938 486.3828125 607.189453125 c 0
 460.049804688 615.950195312 424.120117188 618 380.61877787 618 c 2
 379.530843889 618 l 2
 367.133283711 618 354.17582001 615.504882812 340.061364019 612.015625 c 0
 322.325065312 607.649414062 302.828310935 601.294921875 282.984140141 594.814453125 c 0
 244.561159265 582.61328125 204.310789282 569.50390625 168.125976562 569.50390625 c 0
 151.935546875 569.50390625 136.274414062 572.732421875 122.689453125 581.443359375 c 0
 121.2109375 582.405273438 119.900390625 582.745117188 118.501953125 582.745117188 c 0
 116.1015625 582.745117188 112.577148438 581.434570312 109.451171875 578.750976562 c 0
 105.474609375 575.334960938 103.331054688 570.603515625 103.331054688 568.096679688 c 0
 103.331054688 566.53515625 103.498046875 565.770507812 105.502929688 564.452148438 c 0
 121.950195312 554.149414062 138.974609375 550.21484375 157.030273438 550.21484375 c 0
 172.650210543 550.21484375 191.623184205 553.640625 209.535847209 558.016601562 c 2
 248.198938514 567.459960938 l 1
 237.936873747 558.095703125 227.674808981 548.731445312 217.412744215 539.3671875 c 0
 172.825512405 498.67578125 139.595703125 446.23828125 126.834960938 392.860351562 c 0
 123.623046875 379.42578125 122.108398438 367.868164062 122.108398438 358.112304688 c 0
 122.108398438 333.973632812 130.446289062 320.661132812 147.5234375 311.014648438 c 0
 161.620117188 303.05078125 187.774652286 297.788085938 228.602491921 294.46875 c 2
 268.822863007 290.31640625 l 1
 255.828106183 285.08984375 242.833349359 279.86328125 228.262545593 274.63671875 c 0
 129.029296875 237.633789062 74.3798828125 173.461914062 57.57421875 103.166015625 c 0
 53.7392578125 87.126953125 52 73.287109375 52 61.494140625 c 0
 52 -7.888671875 112.43359375 -18 222.367762002 -18 c 0
 276.764644872 -18 370.419613117 18.15234375 446.60546875 70.7431640625 c 0
 502.190429688 112.869140625 547.204101562 164.743164062 558.456054688 213.48046875 c 0
 559.155273438 216.5078125 559.443359375 219.165039062 559.443359375 221.440429688 c 0
 559.443359375 233.725585938 551.497070312 239.75 538.3515625 239.75 c 0
 522.81640625 239.75 504.7265625 229.454101562 499.893554688 208.51953125 c 0
 488.259765625 158.129882812 439.115159715 100.74609375 379.051372484 58.8994140625 c 0
 331.007491603 25.4267578125 278.43272235 1 236.231445312 1 c 2
 235.231445312 1 l 2
 193.849407462 1 163.854492188 4.162109375 146.068359375 12.84375 c 0
 123.169921875 24.021484375 111.306640625 44.478515625 111.306640625 72.3349609375 c 0
 111.306640625 83.2119140625 112.959960938 95.1513671875 116.139648438 108.416992188 c 0
EndSplineSet
Validated: 524297
EndChar

StartChar: ltr67
Encoding: 67 67 3
Width: 534
GlyphClass: 2
Flags: W
HStem: 548.829 21.3066<127.467 201.215> 574.009 30.4297<368.041 441.9 537.76 606.499>
VStem: 582.827 51.1465<468.206 531.286 545.567 569.066>
LayerCount: 2
Fore
SplineSet
106.107421875 566.473632812 m 0
 127.68359375 553.778320312 146.9140625 548.829101562 164.288085938 548.829101562 c 0
 186.748046875 548.829101562 207.034179688 557.520507812 226.275145302 570.305664062 c 2
 249.064722791 584.529296875 l 1
 155.892578125 200.118164062 l 2
 155.1875 197.076171875 154.907226562 194.451171875 154.907226562 192.147460938 c 0
 154.907226562 181.103515625 162.55859375 175.275390625 175.998046875 175.275390625 c 0
 191.665039062 175.275390625 209.721679688 185.204101562 214.54296875 205.01953125 c 2
 302.785110303 551.100585938 l 1
 307.597268878 553.09375 l 2
 339.724825399 566.405273438 364.391857956 574.008789062 383.311150977 574.008789062 c 0
 391.903392269 574.008789062 399.933445898 572.396484375 406.429020889 567.950195312 c 0
 414.811490665 562.2109375 418.167834919 553.154296875 418.167834919 543.751953125 c 0
 418.167834919 538.302734375 417.407413174 532.504882812 415.654772159 526.0859375 c 2
 326.626691945 200.075195312 l 2
 325.880954206 197.06640625 325.574687793 194.435546875 325.574687793 192.1484375 c 0
 325.574687793 181.158203125 333.838636662 175.276367188 348.458662464 175.276367188 c 0
 365.452252969 175.276367188 384.915903073 185.216796875 390.116138953 204.938476562 c 2
 468.385038115 531.1953125 l 2
 470.007620791 537.221679688 471.057527228 542.3203125 472.267908875 548.251953125 c 1
 477.197539499 550.400390625 l 2
 511.919969672 565.53515625 535.618164062 574.36328125 553.3671875 574.36328125 c 0
 562.42578125 574.36328125 571.213867188 571.723632812 576.891601562 564.697265625 c 0
 581.303710938 559.235351562 582.827148438 552.505859375 582.827148438 545.567382812 c 0
 582.827148438 539.661132812 581.888671875 533.322265625 580.241210938 526.27734375 c 0
 556.166015625 424.696289062 529.484375 322.1796875 504.237087901 228.302734375 c 0
 466.266345805 93.220703125 433.29550779 -24.2529296875 420.937867787 -94.5849609375 c 0
 420.593842501 -96.6826171875 420.453295585 -98.5205078125 420.453295585 -100.232421875 c 0
 420.453295585 -112.239257812 428.594528118 -117.876953125 442.892554643 -117.876953125 c 0
 461.10701537 -117.876953125 481.991867495 -106.181640625 485.606230715 -85.1044921875 c 0
 506.238308163 33.19140625 586.591796875 353.193359375 628.797851562 531.286132812 c 0
 632.393554688 546.547851562 633.973632812 559.098632812 633.973632812 569.06640625 c 0
 633.973632812 586.213867188 629.327148438 594.673828125 623.541992188 599.133789062 c 0
 618.747070312 602.830078125 611.525390625 604.94140625 601.471679688 604.94140625 c 0
 574.293945312 604.94140625 530.954101562 587.709960938 488.545129653 568.625976562 c 2
 475.26869041 562.82421875 l 1
 473.255932715 576.072265625 l 2
 471.270445317 589.137695312 466.380671281 595.684570312 460.021447776 599.47265625 c 0
 454.742547578 602.6171875 447.120499547 604.438476562 436.680171199 604.438476562 c 0
 409.257789781 604.438476562 366.822060968 590.372070312 326.250152074 573.78125 c 2
 306.492821847 565.702148438 l 1
 316.868121024 606.015625 326.935056073 646.609375 337.502296188 686.747070312 c 0
 339.27801207 690.779296875 339.982844363 694.424804688 339.982844363 697.619140625 c 0
 339.982844363 709.401367188 333.976037005 713.171875 324.017134287 716.0625 c 0
 321.353036035 716.834960938 318.339668209 717.280273438 315.316860664 717.280273438 c 0
 309.205167548 717.280273438 303.097669862 715.314453125 296.231848146 711.916015625 c 0
 286.287629434 706.994140625 278.093954022 698.631835938 274.93584385 686.231445312 c 0
 274.41141506 684.11328125 273.599599293 681.625 272.567523435 679.334960938 c 0
 262.808952514 658.259765625 248.970325609 627.98046875 228.302587003 604.399414062 c 0
 212.694335938 585.651367188 192.302734375 570.135742188 165.903320312 570.135742188 c 0
 152.32421875 570.135742188 138.056640625 574.336914062 123.232421875 583.108398438 c 0
 121.719726562 583.907226562 119.280273438 584.1015625 118.931640625 584.189453125 c 0
 115.5703125 584.189453125 110.918945312 581.977539062 107.586914062 578.256835938 c 0
 104.94140625 575.303710938 103.813476562 572.043945312 103.813476562 570.529296875 c 0
 103.813476562 568.397460938 104.142578125 567.635742188 106.107421875 566.473632812 c 0
EndSplineSet
Validated: 524297
EndChar

StartChar: ltr97
Encoding: 97 97 4
Width: 544
GlyphClass: 2
Flags: W
HStem: 290 18<235.744 325.789> 370.001 18<260.223 342.797> 535.263 28.5498<140.721 229.072> 564.749 18.041<105.224 122.632>
VStem: 443.11 61.9062<0.668252 215.37>
LayerCount: 2
Fore
SplineSet
235.743573613 290 m 1
 244.285251189 290 l 1
 245.147187925 290 l 2
 306.805585666 290 353.045709455 278.71875 385.600881523 256.083984375 c 0
 426.567548273 227.600585938 443.110224473 182.81640625 443.110224473 127.56640625 c 0
 443.110224473 92.330078125 436.546486985 52.5126953125 425.113489345 8.4970703125 c 0
 424.358638536 5.4736328125 424.048929234 2.8291015625 424.048929234 0.55859375 c 0
 424.048929234 -11.6708984375 432.63680074 -17.75 446.957968858 -17.75 c 0
 463.875445807 -17.75 483.456422756 -7.7294921875 488.673187244 12.46484375 c 0
 499.556057174 54.58984375 505.016389656 91.5927734375 505.016389656 123.614257812 c 0
 505.016389656 197.084960938 477.245438915 244.362304688 419.107228601 273.229492188 c 0
 372.054511592 296.591796875 303.491171199 308 212.646484375 308 c 0
 196.198242188 308 178.032226562 293.958984375 174.129882812 277.649414062 c 2
 109.716796875 8.5126953125 l 2
 109.018554688 5.4853515625 108.731445312 2.8349609375 108.731445312 0.55859375 c 0
 108.731445312 -11.7265625 116.676757812 -17.75 129.822265625 -17.75 c 0
 145.377929688 -17.75 163.45703125 -7.796875 168.282226562 12.3857421875 c 2
 235.743573613 290 l 1
201.831054688 395.234375 m 2
 201.299804688 393.043945312 201.065429688 390.985351562 201.065429688 389.083984375 c 0
 201.065429688 377.862304688 208.643554688 370.000976562 221.94140625 370.000976562 c 0
 508.845236524 370.000976562 603.206054688 486.01953125 628.803710938 591.823242188 c 0
 629.502929688 594.723632812 629.7890625 597.26171875 629.7890625 599.44140625 c 0
 629.7890625 611.7265625 621.842773438 617.750976562 608.697265625 617.750976562 c 0
 593.135742188 617.750976562 575.060546875 607.908203125 570.237304688 587.969726562 c 0
 549.231445312 501.14453125 480.728881171 388.000976562 275.138596886 388.000976562 c 2
 273.776925817 388.000976562 l 1
 260.223206852 388.000976562 l 1
 277.944878125 454.993164062 295.361039544 522.255859375 313.274835571 589.078125 c 0
 314.938866908 592.6640625 315.58243234 595.8515625 315.58243234 598.59765625 c 0
 315.58243234 607.594726562 310.590338329 612.379882812 304.586177309 615.405273438 c 0
 300.930557678 617.247070312 296.395153655 618.37109375 291.552140055 618.37109375 c 0
 286.309129016 618.37109375 281.055619356 616.778320312 275.234134332 614.434570312 c 0
 266.57592207 610.948242188 259.465206457 604.98828125 254.346079139 596.725585938 c 1
 237.967181418 581.526367188 212.754882812 563.8125 179.700195312 563.8125 c 0
 162.426757812 563.8125 142.322265625 568.818359375 122.6328125 581.530273438 c 0
 121.15234375 582.486328125 119.879882812 582.790039062 118.501953125 582.790039062 c 0
 116.09765625 582.790039062 112.571289062 581.495117188 109.447265625 578.844726562 c 0
 105.469726562 575.470703125 103.331054688 570.799804688 103.331054688 568.33203125 c 0
 103.331054688 566.799804688 103.4921875 566.049804688 105.493164062 564.749023438 c 0
 139.904296875 543.525390625 192.806640625 537.840820312 201.173828125 535.262695312 c 1
 213.633789062 535.262695312 225.577759458 537.202148438 237.638574599 538.715820312 c 1
 201.831054688 395.234375 l 2
EndSplineSet
Validated: 524297
EndChar

StartChar: ltr98
Encoding: 98 98 5
Width: 536
GlyphClass: 2
Flags: W
HStem: -18 19<153.368 279.711> 290 18<231.485 249.782 316.092 386.258> 550.054 19.2383<126.935 216.122> 597 21<324.429 437.049>
VStem: 52 59.3066<21.6621 144.621> 122.108 60.9165<329.03 371.61 392.741 439.644> 475.712 59.4443<465.729 489.48 523.225 576.081>
LayerCount: 2
Fore
SplineSet
407.086988962 298.625976562 m 0
 406.507494513 300.48828125 387.006140265 303.041015625 387.006140265 303.041015625 c 2
 387.006140265 303.388671875 387.013577314 303.666015625 387.013577314 303.942382812 c 0
 387.013577314 305.596679688 386.530169149 306.4453125 386.267747573 306.75 c 0
 386.077571614 306.97265625 385.340241357 308 381.205242282 308 c 2
 363.233082888 308 l 2
 317.709845378 308 279.573722095 308.120117188 249.781967451 312.87109375 c 0
 212.852770928 318.758789062 183.024893476 333.534179688 183.024893476 371.610351562 c 0
 183.024893476 379.711914062 184.346563273 388.46484375 186.879409572 398.09765625 c 0
 197.540950096 438.645507812 224.417381652 494.1875 261.296643705 536.553710938 c 0
 290.528494826 570.133789062 327.271765131 597 369.338899868 597 c 0
 399.253897034 597 423.569335938 593.875976562 441.162109375 584.983398438 c 0
 463.83203125 573.5234375 475.711914062 552.389648438 475.711914062 523.224609375 c 0
 475.711914062 511.633789062 473.998046875 498.836914062 470.692382812 484.51953125 c 0
 469.993164062 481.4921875 469.705078125 478.834960938 469.705078125 476.55859375 c 0
 469.705078125 464.2734375 477.650390625 458.25 490.796875 458.25 c 0
 506.331054688 458.25 524.421875 468.545898438 529.254882812 489.48046875 c 0
 533.317382812 507.073242188 535.15625 522.185546875 535.15625 535.002929688 c 0
 535.15625 577.279296875 516.588867188 596.483398438 484.641601562 607.197265625 c 0
 458.538085938 615.951171875 423.026367188 618 380.227801596 618 c 2
 379.131368131 618 l 2
 366.764618583 618 353.839027948 615.499023438 339.75219528 612 c 0
 322.048832075 607.603515625 302.585013199 601.202148438 282.774840342 594.67578125 c 0
 244.426229953 582.440429688 204.248105586 569.291992188 168.115234375 569.291992188 c 0
 151.930664062 569.291992188 136.263671875 572.53125 122.678710938 581.267578125 c 0
 121.200195312 582.232421875 119.893554688 582.571289062 118.501953125 582.571289062 c 0
 116.100585938 582.571289062 112.576171875 581.260742188 109.451171875 578.578125 c 0
 105.473632812 575.163085938 103.331054688 570.43359375 103.331054688 567.928710938 c 0
 103.331054688 566.368164062 103.497070312 565.60546875 105.502929688 564.286132812 c 0
 121.950195312 553.986328125 138.973632812 550.053710938 157.030273438 550.053710938 c 0
 172.624712091 550.053710938 191.559438073 553.477539062 209.437040705 557.8515625 c 2
 248.060821895 567.301757812 l 1
 237.817880968 557.938476562 227.573877606 548.575195312 217.330936679 539.211914062 c 0
 172.823387534 498.53125 139.595703125 446.103515625 126.833984375 392.741210938 c 0
 123.623046875 379.311523438 122.108398438 367.756835938 122.108398438 358.00390625 c 0
 122.108398438 333.873046875 130.4453125 320.565429688 147.522460938 310.920898438 c 0
 161.620117188 302.958984375 187.774652286 297.697265625 228.602491921 294.37890625 c 2
 268.843443184 290.2265625 l 1
 255.840021022 285.000976562 242.837682028 279.775390625 228.259688901 274.549804688 c 0
 129.026367188 237.556640625 74.3798828125 173.403320312 57.5732421875 103.129882812 c 0
 53.7392578125 87.0947265625 52 73.259765625 52 61.470703125 c 0
 52 -7.890625 112.432617188 -18 222.367762002 -18 c 0
 276.764644872 -18 370.419613117 18.15234375 446.60546875 70.7431640625 c 0
 502.190429688 112.869140625 547.204101562 164.743164062 558.456054688 213.48046875 c 0
 559.155273438 216.5078125 559.443359375 219.165039062 559.443359375 221.440429688 c 0
 559.443359375 233.725585938 551.497070312 239.75 538.3515625 239.75 c 0
 522.81640625 239.75 504.7265625 229.454101562 499.893554688 208.51953125 c 0
 488.259765625 158.129882812 439.115159715 100.74609375 379.051372484 58.8994140625 c 0
 331.007491603 25.4267578125 278.43272235 1 236.231445312 1 c 2
 235.231445312 1 l 2
 193.849407462 1 163.854492188 4.162109375 146.068359375 12.84375 c 0
 123.169921875 24.021484375 111.306640625 44.478515625 111.306640625 72.3349609375 c 0
 111.306640625 83.2119140625 112.959960938 95.1513671875 116.139648438 108.416992188 c 0
 136.177734375 192.0078125 234.034491436 290 392.221602394 290 c 0
 399.392169217 290 404.658528113 293.939453125 407.086988962 298.625976562 c 0
EndSplineSet
Validated: 524297
EndChar

StartChar: ltr99
Encoding: 99 99 6
Width: 534
GlyphClass: 2
Flags: W
HStem: 545.456 21.8574<127.467 201.215> 571.287 31.0186<368.041 441.9 539.203 606.499>
VStem: 582.827 51.1465<466.37 529.24 542.972 566.896>
LayerCount: 2
Fore
SplineSet
106.107421875 563.557617188 m 0
 127.68359375 550.533203125 146.9140625 545.456054688 164.288085938 545.456054688 c 0
 186.748046875 545.456054688 207.034179688 554.372070312 226.275145302 567.487304688 c 2
 249.064722791 582.079101562 l 1
 155.892578125 187.733398438 l 2
 155.1875 184.614257812 154.907226562 181.920898438 154.907226562 179.557617188 c 0
 154.907226562 168.227539062 162.55859375 162.249023438 175.998046875 162.249023438 c 0
 191.703125 162.249023438 209.73828125 172.400390625 214.545898438 192.55078125 c 2
 302.784061446 547.786132812 l 1
 307.597268878 549.83203125 l 2
 339.724825399 563.486328125 364.391857956 571.287109375 383.311150977 571.287109375 c 0
 391.903392269 571.287109375 399.933445898 569.6328125 406.429020889 565.071289062 c 0
 414.811490665 559.184570312 418.167834919 549.892578125 418.167834919 540.248046875 c 0
 418.167834919 534.658203125 417.407413174 528.709960938 415.654772159 522.125976562 c 2
 326.626691945 187.689453125 l 2
 325.880954206 184.602539062 325.574687793 181.904296875 325.574687793 179.55859375 c 0
 325.574687793 168.284179688 333.838636662 162.25 348.458662464 162.25 c 0
 365.491060699 162.25 384.929538222 172.41015625 390.118236668 192.459960938 c 2
 468.385038115 527.3671875 l 2
 470.007620791 533.548828125 471.057527228 538.779296875 472.267908875 544.864257812 c 1
 477.197539499 547.068359375 l 2
 511.919969672 562.594726562 535.618164062 571.650390625 553.3671875 571.650390625 c 0
 562.42578125 571.650390625 571.213867188 569.021484375 576.891601562 562.0234375 c 0
 581.303710938 556.583984375 582.827148438 549.881835938 582.827148438 542.971679688 c 0
 582.827148438 537.08984375 581.888671875 530.775390625 580.241210938 523.759765625 c 0
 556.166015625 422.58984375 529.484375 320.489257812 504.237087901 226.993164062 c 0
 466.266345805 92.458984375 433.29550779 -24.5380859375 420.937867787 -94.5849609375 c 0
 420.593842501 -96.6826171875 420.453295585 -98.5205078125 420.453295585 -100.232421875 c 0
 420.453295585 -112.239257812 428.594528118 -117.876953125 442.892554643 -117.876953125 c 0
 461.10701537 -117.876953125 481.991867495 -106.181640625 485.606230715 -85.1044921875 c 0
 506.238308163 32.798828125 586.591796875 351.739257812 628.797851562 529.240234375 c 0
 632.393554688 544.452148438 633.973632812 556.9609375 633.973632812 566.895507812 c 0
 633.973632812 583.986328125 629.327148438 592.418945312 623.541992188 596.86328125 c 0
 618.747070312 600.655273438 611.525390625 602.821289062 601.471679688 602.821289062 c 0
 574.293945312 602.821289062 530.954101562 585.143554688 488.545129653 565.565429688 c 2
 475.26869041 559.61328125 l 1
 473.255932715 573.205078125 l 2
 471.270445317 586.608398438 466.380671281 593.325195312 460.021447776 597.2109375 c 0
 454.742547578 600.4375 447.120499547 602.305664062 436.680171199 602.305664062 c 0
 409.257789781 602.305664062 366.822060968 587.875 326.250152074 570.854492188 c 2
 306.492821847 562.565429688 l 1
 316.868121024 603.923828125 326.935056073 645.569335938 337.502296188 686.747070312 c 0
 339.27801207 690.779296875 339.982844363 694.424804688 339.982844363 697.619140625 c 0
 339.982844363 709.401367188 333.976037005 713.171875 324.017134287 716.0625 c 0
 321.353036035 716.834960938 318.339668209 717.280273438 315.316860664 717.280273438 c 0
 309.205167548 717.280273438 303.097669862 715.314453125 296.231848146 711.916015625 c 0
 286.287629434 706.994140625 278.093954022 698.631835938 274.93584385 686.231445312 c 0
 274.41141506 684.11328125 273.599599293 681.625 272.567523435 679.334960938 c 0
 262.808952514 657.71484375 248.970325609 626.653320312 228.302587003 602.462890625 c 0
 212.694335938 583.23046875 192.302734375 567.313476562 165.903320312 567.313476562 c 0
 152.32421875 567.313476562 138.056640625 571.624023438 123.232421875 580.622070312 c 0
 121.719726562 581.44140625 119.280273438 581.640625 118.931640625 581.73046875 c 0
 115.5703125 581.73046875 110.918945312 579.4609375 107.586914062 575.64453125 c 0
 104.94140625 572.615234375 103.813476562 569.271484375 103.813476562 567.717773438 c 0
 103.813476562 565.530273438 104.142578125 564.749023438 106.107421875 563.557617188 c 0
EndSplineSet
Validated: 524297
EndChar

StartChar: ltr100
Encoding: 100 100 7
Width: 544
GlyphClass: 2
Flags: W
HStem: -118.006 19<162.583 214.503> 258.241 25.627<158.136 215.301> 571.722 18.1475<373.551 512.88> 578.062 11.8066<388.713 441.341>
VStem: 92.8164 49.0957<-90.8123 15.521> 224.815 65.4303<464.981 522.846> 391.65 31.8576<105.966 249.222>
LayerCount: 2
Fore
SplineSet
346.625218308 275.701171875 m 2xce
 379.390599465 258.1875 391.649741436 226.8046875 391.649741436 190.491210938 c 0
 391.649741436 171.1328125 388.351740137 150.26171875 382.930454192 128.504882812 c 0
 368.708216211 71.4287109375 329.85043202 8.787109375 288.632744678 -36.3369140625 c 0
 270.286434596 -56.421875 251.439665904 -73.083984375 233.472364225 -84.265625 c 0
 219.187307172 -93.1552734375 205.651367188 -99.005859375 192.735351562 -99.005859375 c 0
 192.502929688 -99.005859375 192.275390625 -99 192.052734375 -99 c 2
 190.3125 -99 l 2
 189.892578125 -99.0107421875 189.48046875 -99.015625 189.075195312 -99.015625 c 0
 158.442382812 -99.015625 141.912109375 -70.6875 141.912109375 -41.8046875 c 0
 141.912109375 -27.3837890625 145.671875 -11.939453125 153.74609375 2.7919921875 c 0
 153.908203125 3.3798828125 154.213867188 4.1904296875 154.803710938 5.2666015625 c 0
 209.8125 105.840820312 272.308161741 195.60546875 338.297503283 280.15234375 c 1
 346.625218308 275.701171875 l 2xce
243.821806396 557.502929688 m 1
 235.913932171 558.017578125 228.069924003 558.555664062 219.545375884 558.555664062 c 0
 209.772460938 558.555664062 200.184570312 558.143554688 190.7421875 558.143554688 c 0
 166.763671875 558.143554688 139.61328125 560.544921875 120.416015625 582.823242188 c 0
 119.137695312 584.275390625 118.260742188 584.538085938 116.5 584.538085938 c 0
 113.532226562 584.538085938 108.43359375 582.272460938 104.81640625 578.333007812 c 0
 101.951171875 575.21484375 100.66796875 571.799804688 100.66796875 569.7890625 c 0
 100.66796875 568.548828125 100.913085938 567.553710938 101.99609375 566.203125 c 0
 114.916992188 551.634765625 131.26171875 549.982421875 151.372070312 548.326171875 c 0
 164.283203125 547.263671875 178.52734375 546.32421875 191.639648438 539.231445312 c 0
 208.833007812 529.931640625 220.692870939 511.184570312 224.81484907 478.407226562 c 1
 224.81484907 477.830078125 l 2
 224.852540514 465.881835938 233.403263246 459.240234375 246.115749522 459.240234375 c 0
 249.871283064 459.240234375 253.958710706 459.961914062 258.098487574 460.977539062 c 0
 274.392707959 464.9765625 288.759429807 478.3671875 290.245100868 494.83984375 c 1
 313.922656224 589.5703125 l 1
 334.49799639 584.52734375 344.31452343 583.499023438 372.458514831 578.0625 c 0xde
 372.507723104 578.0625 372.556931377 578.060546875 372.607186635 578.060546875 c 0
 373.286679601 578.080078125 373.866709036 578.008789062 374.401718135 577.897460938 c 0
 401.119716593 573.399414062 423.107438903 571.721679688 442.240034374 571.721679688 c 0
 479.440442039 571.721679688 506.414951709 578.08203125 535.174804688 583.553710938 c 2
 565.590820312 589.490234375 l 1
 544.390625 567.237304688 l 2
 461.880417346 485.333984375 382.128464035 398.80859375 306.442998675 304.48046875 c 1
 304.439070267 305.92578125 302.435141859 305.92578125 300.431213451 304.48046875 c 0
 265.09548525 304.2109375 220.594454392 297.715820312 169.22265625 283.868164062 c 0
 160.3828125 279.126953125 157.677734375 272.633789062 157.677734375 267.702148438 c 0
 157.677734375 261.6484375 160.940429688 258.241210938 166.477539062 258.241210938 c 0
 168.799804688 258.241210938 172.962890625 259.3671875 177.068359375 261.404296875 c 0
 208.65234375 270.303710938 237.034205628 275.55859375 263.330269317 277.416015625 c 2
 285.737832426 279 l 1
 272.976137877 261.770507812 l 2
 214.801488936 185.689453125 163.165039062 104.610351562 113.620117188 16.3857421875 c 0
 98.5615234375 -9.1083984375 92.81640625 -30.06640625 92.81640625 -46.5830078125 c 0
 92.81640625 -95.6826171875 141.403320312 -118.06640625 178.149414062 -118.06640625 c 0
 179.19921875 -118.06640625 180.237304688 -118.046875 181.2578125 -118.0078125 c 2
 181.537109375 -117.998046875 l 1
 181.817382812 -117.998046875 l 2
 181.92578125 -118 182.173828125 -118.005859375 182.365234375 -118.005859375 c 0
 190.989257812 -118.005859375 204.409179688 -113.905273438 220.464628309 -105.622070312 c 0
 241.233660615 -95.2978515625 265.348855508 -78.9208984375 289.203351251 -58.6181640625 c 0
 343.013121648 -14.1728515625 394.972870363 49.404296875 410.004427394 107.787109375 c 0
 418.666130487 141.424804688 423.507386997 171.80078125 423.507386997 197.768554688 c 0
 423.507386997 245.352539062 408.133466022 275.797851562 373.179887178 292.311523438 c 2
 361.863031293 297.658203125 l 1
 369.615951806 306.815429688 l 2
 451.383350355 403.389648438 535.470703125 490.681640625 618.076171875 573.4609375 c 0
 627.223632812 582.5390625 630.162109375 590.926757812 630.162109375 597.383789062 c 0
 630.162109375 609.3984375 620.653320312 618.82421875 607.705078125 618.82421875 c 0
 605.157226562 618.82421875 602.190429688 617.903320312 599.250976562 617.749023438 c 0
 574.791992188 616.466796875 554.733398438 610.661132812 533.545898438 604.48828125 c 0
 509.197836614 597.412109375 481.558491762 589.869140625 445.510814074 589.869140625 c 0xee
 430.42062591 589.869140625 413.84162573 591.180664062 395.57174552 594.20703125 c 0
 357.492917826 602.235351562 344.561611781 605.40234375 300.150621594 617.377929688 c 0
 297.995927412 617.87109375 295.772132251 618.110351562 293.397571316 618.110351562 c 0
 275.846969484 618.110351562 255.377374756 603.875976562 251.049140671 586.501953125 c 0
 248.640029246 576.8359375 246.230917821 567.169921875 243.821806396 557.502929688 c 1
EndSplineSet
Validated: 524297
EndChar

StartChar: ltr101
Encoding: 101 101 8
Width: 614
GlyphClass: 2
Flags: W
HStem: 535.02 28.5674<140.503 228.402> 561.399 56.6006<615.625 705.324> 564.465 18.2549<105.231 122.539>
LayerCount: 2
Fore
SplineSet
407.730301641 8.4541015625 m 2xa0
 407.08158321 5.8134765625 406.832632347 3.5732421875 406.832632347 1.6357421875 c 0
 406.832632347 -8.439453125 413.351839381 -13.25 424.972989614 -13.25 c 0
 438.819202746 -13.25 454.697309434 -4.7060546875 459.5120811 12.5498046875 c 2
 614.73828125 574.004882812 l 1
 633.647460938 569.803710938 652.556640625 565.6015625 671.465820312 561.399414062 c 1
 694.704101562 562.068359375 709.454101562 582.508789062 709.454101562 599.05859375 c 0
 709.454101562 604.30078125 708.065429688 608.543945312 705.802734375 611.473632812 c 0
 703.107421875 614.962890625 698.364257812 618 688.755859375 618 c 2
 507.723843208 618 l 1x40
 505.828304481 619.0546875 503.953425576 620.443359375 501.106502017 620.443359375 c 0
 498.913461844 620.443359375 494.682330167 619.076171875 490.947034235 616.9375 c 0
 484.608600649 614.965820312 476.001718538 608.399414062 464.616090283 593.956054688 c 0
 451.327692362 577.098632812 436.123095892 552.076171875 420.173712816 522.201171875 c 0
 383.516989509 453.537109375 342.673553146 359.182617188 306.324661197 275.169921875 c 0
 283.038975102 221.349609375 261.635398849 171.857421875 243.954722636 135.759765625 c 0
 229.80377712 106.868164062 219.271484375 86.5458984375 208.4140625 77.533203125 c 0
 200.041015625 70.572265625 191.666992188 63.6103515625 183.29296875 56.6494140625 c 1
 224.477674844 233.466796875 267.642242281 410.598632812 311.349130062 587.216796875 c 0
 313.075258244 591.094726562 313.749801453 594.578125 313.749801453 597.616210938 c 0
 313.749801453 610.137695312 307.624164041 614.157226562 298.003917629 617.047851562 c 0
 295.399746986 617.830078125 292.456755251 618.279296875 289.50756557 618.279296875 c 0
 283.537909818 618.279296875 277.573419023 616.294921875 270.827986932 612.833007812 c 0
 264.578390584 609.625976562 259.267783175 604.940429688 255.018057658 598.767578125 c 1
 238.654445138 582.750976562 213.161132812 563.586914062 179.329101562 563.586914062 c 0
 162.16796875 563.586914062 142.232421875 568.66796875 122.6328125 581.447265625 c 0
 121.15234375 582.412109375 119.879882812 582.719726562 118.501953125 582.719726562 c 0
 116.099609375 582.719726562 112.575195312 581.411132812 109.450195312 578.731445312 c 0
 105.47265625 575.321289062 103.331054688 570.599609375 103.331054688 568.099609375 c 0
 103.331054688 566.543945312 103.49609375 565.782226562 105.500976562 564.46484375 c 0
 139.390625 543.286132812 192.321289062 537.606445312 200.684570312 535.01953125 c 1
 213.348632812 535.01953125 225.444554543 537.012695312 237.491297123 538.578125 c 1
 109.716796875 8.5107421875 l 2
 109.258789062 6.5283203125 109.065429688 4.7158203125 109.065429688 3.060546875 c 0
 109.065429688 -8.142578125 118.52734375 -16.787109375 132.139648438 -16.787109375 c 0
 138.958007812 -16.787109375 146.514648438 -14.421875 153.596679688 -8.4677734375 c 0
 177.333984375 10.193359375 204.036132812 50.29296875 231.135302689 101.446289062 c 0
 266.888158755 166.26953125 303.123421679 248.6875 337.68523897 327.239257812 c 0
 368.788601951 397.930664062 398.561472354 465.66015625 426.585488771 516.272460938 c 0
 448.8888003 556.551757812 469.674647856 586.905273438 492.910750376 599.068359375 c 2
 496.486965675 601.002929688 l 1
 564.001200073 586.868164062 l 1
 559.603756824 579.71875 554.110309985 572.5546875 551.880082131 563.764648438 c 2
 407.730301641 8.4541015625 l 2xa0
EndSplineSet
Validated: 524297
EndChar

StartChar: ltr102
Encoding: 102 102 9
Width: 514
GlyphClass: 2
Flags: W
HStem: -17.999 19<156.564 266.2> 309.804 17.04<162.494 164.312 408.484 426.861> 538.606 23.6016<138.15 288.523>
VStem: 65.7236 46.0332<25.171 195.875>
LayerCount: 2
Fore
SplineSet
401.797091934 588.9296875 m 0
 403.494367649 592.5703125 404.152756717 595.80859375 404.152756717 598.59765625 c 0
 404.152756717 607.5859375 399.066273639 612.372070312 392.935559848 615.40234375 c 0
 389.20433219 617.24609375 384.574232443 618.37109375 379.628832738 618.37109375 c 0
 374.276215118 618.37109375 368.91504699 616.775390625 362.974581988 614.431640625 c 0
 354.385597325 611.041015625 347.419071437 605.296875 342.125238555 597.513671875 c 1
 316.465165908 578.141601562 259.803091127 562.208007812 202.83319808 562.208007812 c 0
 172.994140625 562.208007812 144.7734375 567.168945312 122.678710938 581.3671875 c 0
 121.200195312 582.331054688 119.893554688 582.669921875 118.501953125 582.669921875 c 0
 116.100585938 582.669921875 112.576171875 581.361328125 109.451171875 578.6796875 c 0
 105.473632812 575.267578125 103.331054688 570.541015625 103.331054688 568.037109375 c 0
 103.331054688 566.482421875 103.49609375 565.719726562 105.486328125 564.408203125 c 0
 134.1875 546.627929688 178.129882812 538.606445312 226.741485528 538.606445312 c 0
 255.771526897 538.606445312 284.919137742 541.408203125 310.844276119 545.955078125 c 2
 327.502802122 548.876953125 l 1
 269.436306504 329.0859375 l 1
 142.284179688 326.84375 l 2
 125.833007812 326.84375 107.649414062 312.795898438 103.748046875 296.489257812 c 0
 79.7744140625 196.3125 65.7236328125 126.2109375 65.7236328125 79.10546875 c 0
 65.7236328125 32.26953125 78.2861328125 9.92578125 106.73828125 -2.8671875 c 0
 130.45703125 -13.88671875 167.5703125 -17.9990234375 223.401443583 -17.9990234375 c 0
 264.142473622 -17.9990234375 352.606022976 18.025390625 425.936523438 70.6640625 c 0
 480.172851562 112.813476562 525.198242188 164.724609375 536.455078125 213.481445312 c 0
 537.154296875 216.508789062 537.442382812 219.166015625 537.442382812 221.442382812 c 0
 537.442382812 233.727539062 529.497070312 239.750976562 516.3515625 239.750976562 c 0
 500.81640625 239.750976562 482.725585938 229.455078125 477.892578125 208.520507812 c 0
 466.260742188 158.13671875 417.193349285 100.752929688 358.011012454 58.904296875 c 0
 310.674334784 25.4326171875 258.876429889 1.0009765625 217.291037246 1.0009765625 c 0
 182.359375 1.0009765625 158.392578125 6.4716796875 141.291992188 18.19140625 c 0
 119.51171875 33.119140625 111.756835938 56.7236328125 111.756835938 83.69921875 c 0
 111.756835938 120.32421875 124.946289062 165.638671875 139.564453125 216.916992188 c 0
 147.872070312 246.0546875 156.63671875 277.741210938 164.3125 309.803710938 c 1
 263.973601101 308.560546875 l 1
 202.19618528 74.798828125 l 2
 201.426639616 71.8876953125 201.110270843 69.3359375 201.110270843 67.154296875 c 0
 201.110270843 55.4189453125 209.837132438 49.52734375 224.49056446 49.52734375 c 0
 241.764726995 49.52734375 261.731230541 59.529296875 267.047508504 79.6474609375 c 2
 327.339273668 307.78515625 l 1
 408.483588705 306.791992188 l 2
 421.1015625 306.829101562 428.583984375 317.133789062 428.583984375 325.084960938 c 0
 428.583984375 327.380859375 427.952148438 328.856445312 427.319335938 329.641601562 c 0
 426.663085938 330.454101562 425.251953125 331.788085938 420.448242188 331.8046875 c 2
 333.292564432 330.313476562 l 1
 356.166240487 416.485351562 378.728891836 502.930664062 401.797091934 588.9296875 c 0
EndSplineSet
Validated: 524297
EndChar

StartChar: ltr103
Encoding: 103 103 10
Width: 646
GlyphClass: 2
Flags: W
HStem: -17.998 18.999<165.387 243.686> 535.021 28.5654<140.502 228.359> 564.465 18.2549<105.231 122.538> 600.002 17.998<481.162 576.757>
VStem: 300.83 63.255<415.054 489.829 495.675 531.316>
LayerCount: 2
Fore
SplineSet
506.593426908 357.232421875 m 2
 421.534645649 107.673828125 323.797322364 1.0009765625 179.229492188 1.0009765625 c 2
 177.971679688 1.0009765625 l 1
 165.38671875 1.0009765625 l 1
 300.043685865 547.069335938 l 1
 300.070409991 545.116210938 l 1
 303.676111282 559.2890625 307.303397444 573.44140625 310.972825497 587.556640625 c 0
 312.69036451 591.30859375 313.362579061 594.677734375 313.362579061 597.616210938 c 0
 313.362579061 610.133789062 307.265366957 614.155273438 297.68373998 617.046875 c 0
 295.089444068 617.830078125 292.15904088 618.279296875 289.221442736 618.279296875 c 0
 283.275324729 618.279296875 277.335373827 616.293945312 270.618367574 612.83203125 c 0
 264.3967855 609.625 259.108492129 604.938476562 254.877857433 598.765625 c 0
 238.586419159 582.75 213.16015625 563.586914062 179.329101562 563.586914062 c 0
 162.16796875 563.586914062 142.232421875 568.66796875 122.6328125 581.447265625 c 0
 121.15234375 582.412109375 119.879882812 582.719726562 118.501953125 582.719726562 c 0
 116.099609375 582.719726562 112.575195312 581.411132812 109.450195312 578.731445312 c 0
 105.47265625 575.321289062 103.331054688 570.599609375 103.331054688 568.099609375 c 0
 103.331054688 566.543945312 103.49609375 565.782226562 105.500976562 564.46484375 c 0
 139.389648438 543.287109375 192.318359375 537.608398438 200.681640625 535.021484375 c 0
 213.344726562 535.021484375 225.437121377 537.013671875 237.425975385 538.579101562 c 1
 109.715820312 8.5126953125 l 2
 109.18359375 6.2109375 108.94921875 4.0498046875 108.94921875 2.05078125 c 0
 108.94921875 -9.78125 116.576171875 -17.998046875 129.764648438 -17.998046875 c 0
 232.559100923 -17.998046875 320.400274825 -2.673828125 398.398747598 68.1923828125 c 0
 461.044210054 125.109375 518.081717481 219.073242188 571.596779547 372.086914062 c 0
 572.264882694 373.314453125 572.152846936 375.258789062 573.47877472 375.87890625 c 0
 596.406019019 443.95703125 616.719438238 509.020507812 636.801757812 591.68359375 c 0
 637.333984375 593.916015625 637.5703125 596.017578125 637.5703125 597.952148438 c 0
 637.5703125 609.704101562 630.073242188 618 615.806706554 618 c 0
 462.510953424 618 357.770881309 600.234375 317.800839658 522.734375 c 2
 300.829991876 489.829101562 l 1
 301.245243678 459.375 l 2
 302.109666365 395.663085938 371.77637897 374.022460938 496.938822509 369.810546875 c 2
 510.722304355 369.346679688 l 1
 506.593426908 357.232421875 l 2
508.721078468 379.879882812 m 2
 424.41673984 385.1015625 364.084969973 403.256835938 364.084969973 463.55078125 c 0
 364.084969973 471.993164062 365.295778445 480.936523438 367.632083758 490.49609375 c 0
 389.912809781 581.633789062 482.446123477 600.001953125 562.441710733 600.001953125 c 0
 567.289056026 610.001953125 572.13640132 610.001953125 576.983746613 600.001953125 c 1
 557.505970254 519.493164062 537.468015102 444.9765625 517.136094566 379.358398438 c 1
 508.721078468 379.879882812 l 2
698.516601562 589.296875 m 0
 698.516601562 589.20703125 698.516601562 589.116210938 698.516601562 589.026367188 c 2
 698.520507812 588.8984375 l 1
 698.520507812 587.869140625 l 2
 698.42578125 587.419921875 698.337890625 586.965820312 698.239257812 586.520507812 c 0
 678.604492188 501.474609375 649.2578125 423.112304688 601.589471588 387.103515625 c 0
 598.004327317 384.477539062 594.419183045 381.8515625 590.834038774 379.2265625 c 1
 657.0390625 422.662109375 716.833984375 489.698242188 744.142578125 605.966796875 c 0
 743.671875 610.506835938 741.049804688 611.83984375 733.743164062 615.297851562 c 0
 731.5546875 616.333007812 729.00390625 617.39453125 726.390625 619.14453125 c 0
 712.884765625 617.517578125 698.5078125 606.0078125 698.5078125 590.010742188 c 0
 698.5078125 589.765625 698.510742188 589.528320312 698.516601562 589.296875 c 0
271.690416162 437.340820312 m 1
 281.213455632 475.952148438 290.562788285 514.729492188 300.070409991 553.356445312 c 1
 300.829991876 495.674804688 l 1
 271.690416162 437.340820312 l 1
EndSplineSet
Validated: 524293
EndChar

StartChar: ltr104
Encoding: 104 104 11
Width: 544
GlyphClass: 2
Flags: W
HStem: -0.745117 46.7461<77.0451 271.47> 290.001 18<281.176 349.627> 578.079 11.7959<389.826 396.624 442.882 499.394>
VStem: 227.153 64.8304<464.064 522.137> 444.595 61.4492<8.25866 226.027>
LayerCount: 2
Fore
SplineSet
482.422360383 369.78515625 m 0
 437.137960912 318.578125 378.082459982 308.000976562 295.620967361 308.000976562 c 0
 287.043235813 308.000976562 280.100050204 301.538085938 280.100050204 294.057617188 c 0
 280.100050204 292.399414062 280.573590832 291.546875 280.829053539 291.241210938 c 0
 281.013900538 291.022460938 281.720057615 290.000976562 285.740999086 290.000976562 c 0
 347.410319666 290.000976562 390.696709996 271.295898438 416.146403344 236.973632812 c 0
 436.292649353 209.8046875 444.595187335 174.280273438 444.595187335 133.091796875 c 0
 444.595187335 96.4248046875 437.902272101 54.6904296875 426.572604887 9.939453125 c 2
 424.522672432 1.845703125 l 1
 415.393515284 2.498046875 l 2
 359.17406579 6.5107421875 306.225785106 17.2529296875 257.986949043 27.0810546875 c 0
 208.708608225 37.119140625 165.004882812 46.0009765625 130.661132812 46.0009765625 c 0
 111.33984375 46.0009765625 94.3740234375 43.236328125 79.7451171875 36.78125 c 0
 61.228515625 28.8203125 54.279296875 14.6806640625 54.279296875 3.015625 c 0
 54.279296875 -9.7763671875 61.5205078125 -18.4755859375 73.47265625 -18.4755859375 c 0
 77.4033203125 -18.4755859375 82.365234375 -17.521484375 88.26953125 -14.9248046875 c 0
 113.217773438 -4.1923828125 142.071289062 -0.7451171875 173.833007812 -0.7451171875 c 0
 208.680569635 -0.7451171875 247.091360737 -4.3974609375 288.58328132 -8.31640625 c 0
 337.826314284 -12.9658203125 391.289674247 -18 447.653470556 -18 c 0
 449.225708518 -18 450.48432966 -17.6845703125 451.872759089 -17.5400390625 c 0
 467.660562083 -15.953125 484.207483934 -6.029296875 488.923159352 12.4111328125 c 0
 500.59344351 58.0341796875 506.044353061 97.4169921875 506.044353061 130.982421875 c 0
 506.044353061 204.538085938 480.449274433 249.750976562 437.120306985 276.2265625 c 0
 429.676580625 280.774414062 422.232854265 285.322265625 414.789127904 289.870117188 c 1
 438.584544453 294.942382812 l 2
 518.112304688 312.005859375 575.456054688 368.618164062 628.803710938 591.740234375 c 0
 629.501953125 594.671875 629.7890625 597.239257812 629.7890625 599.444335938 c 0
 629.7890625 610.763671875 623.552734375 615.860351562 613.040039062 617.467773438 c 0
 611.87890625 617.755859375 610.513671875 618.002929688 608.755859375 618.002929688 c 0
 580.6953125 618.002929688 558.69140625 611.619140625 534.9375 604.672851562 c 0
 510.51171875 597.551757812 482.590591921 589.875 446.12173278 589.875 c 0
 431.165741284 589.875 414.733050724 591.186523438 396.624275575 594.213867188 c 0
 358.883295229 602.2421875 346.066544288 605.409179688 302.051150623 617.383789062 c 0
 299.916063933 617.876953125 297.7145154 618.116210938 295.361350789 618.116210938 c 0
 277.978463575 618.116210938 257.690986151 603.88671875 253.399004978 586.509765625 c 0
 250.970032327 576.67578125 248.541059677 566.840820312 246.112087027 557.006835938 c 1
 238.268551145 557.522460938 230.492515572 558.061523438 222.033169181 558.061523438 c 0
 212.273662995 558.061523438 202.245194041 557.666015625 192.345494907 557.666015625 c 0
 167 557.666015625 139.5546875 560.094726562 120.334960938 582.924804688 c 0
 118.985351562 584.567382812 117.987304688 584.954101562 116.318359375 584.954101562 c 0
 113.497070312 584.954101562 108.475585938 582.71484375 104.890625 578.794921875 c 0
 102.05078125 575.690429688 100.815429688 572.318359375 100.815429688 570.518554688 c 0
 100.815429688 569.251953125 101.212890625 568.435546875 102.2578125 567.18359375 c 0
 115.223632812 551.646484375 131.649414062 549.85546875 151.920898438 548.022460938 c 0
 164.7578125 546.865234375 179.237973406 545.819335938 193.098382967 538.616210938 c 0
 211.255966032 529.1796875 223.1723667 510.359375 227.152807986 477.517578125 c 1
 227.152807986 476.947265625 l 2
 227.164231115 464.959960938 235.648500697 458.314453125 248.255481448 458.314453125 c 0
 251.976306161 458.314453125 256.027363155 459.037109375 260.129304997 460.051757812 c 0
 276.272263462 464.045898438 290.510674752 477.428710938 291.98321995 493.893554688 c 1
 315.698674595 589.581054688 l 1
 336.112844907 584.5390625 345.790312255 583.520507812 373.720901568 578.079101562 c 0
 373.769709483 578.079101562 373.818517399 578.077148438 373.867325315 578.077148438 c 0
 374.542328402 578.096679688 375.117638727 578.025390625 375.648295 577.915039062 c 0
 402.128146907 573.443359375 423.919323518 571.775390625 442.881717958 571.775390625 c 0
 488.680158241 571.775390625 518.985351562 581.794921875 556.336914062 587.1328125 c 2
 570.938476562 589.250976562 l 1
 567.508789062 575.01953125 l 2
 542.452148438 473.956054688 517.672851562 410.211914062 482.422360383 369.78515625 c 0
EndSplineSet
Validated: 524297
EndChar

StartChar: ltr105
Encoding: 105 105 12
Width: 222
GlyphClass: 2
Flags: W
HStem: 533.868 29.6328<129.875 223.956>
VStem: 92.7529 215.41
LayerCount: 2
Fore
SplineSet
92.7529296875 -3.9990234375 m 0
 92.7529296875 -12.6806640625 98.4541015625 -17.4990234375 109.880859375 -17.4990234375 c 0
 123.448242188 -17.4990234375 138.23046875 -8.734375 142.294921875 8.4990234375 c 1
 212.963867188 201.00390625 258.918945312 391.938476562 305.387695312 586.290039062 c 0
 307.135742188 590.358398438 308.163085938 594.642578125 308.163085938 598.10546875 c 0
 308.163085938 609.971679688 303.0390625 614.74609375 293.708984375 616.994140625 c 0
 291.107421875 617.83984375 288.107421875 618.408203125 285.086914062 618.408203125 c 0
 278.057617188 618.408203125 270.590820312 615.697265625 262.4375 609.420898438 c 0
 259.66796875 607.2890625 257.473632812 604.708007812 255.098632812 602.060546875 c 0
 238.026367188 583.639648438 206.14453125 563.500976562 171.877929688 563.500976562 c 0
 154.51953125 563.500976562 136.654296875 569.06640625 121.381835938 582.7421875 c 0
 119.951171875 583.9453125 118.689453125 584.322265625 116.994140625 584.322265625 c 0
 113.96484375 584.322265625 109.1328125 582.198242188 105.711914062 578.577148438 c 0
 102.998046875 575.702148438 101.845703125 572.583984375 101.845703125 570.967773438 c 0
 101.845703125 569.149414062 102.264648438 567.869140625 103.801757812 566.345703125 c 0
 128.379882812 543.961914062 160.870117188 533.868164062 193.54296875 533.868164062 c 0
 208.537109375 533.868164062 223.594726562 536.665039062 236.9609375 538.94140625 c 1
 194.193359375 352.635742188 161.520507812 186.848632812 93.44921875 2.3134765625 c 0
 92.9560546875 -0.076171875 92.7529296875 -2.18359375 92.7529296875 -3.9990234375 c 0
EndSplineSet
Validated: 524297
EndChar

StartChar: ltr106
Encoding: 106 106 13
Width: 544
GlyphClass: 2
Flags: W
HStem: -17.999 18<241.654 295.516> 465.815 45.4971<229.782 440.655>
LayerCount: 2
Fore
SplineSet
64.271484375 -16.4013671875 m 2
 92.5830078125 -8.5498046875 117.870117188 -5.8271484375 141.274414062 -5.8271484375 c 0
 197.508053046 -5.8271484375 246.367591457 -17.9990234375 302.441333351 -17.9990234375 c 0
 312.940905834 -17.9990234375 323.729819799 -13.6015625 333.367773918 -5.15625 c 0
 440.313083793 90.546875 577.385742188 385.193359375 627.209960938 585.071289062 c 0
 628.90234375 588.888671875 629.938476562 593.029296875 629.938476562 596.6171875 c 0
 629.938476562 608.413085938 626.436523438 612.462890625 619.989257812 615.533203125 c 0
 616.806640625 617.409179688 612.951171875 618.702148438 608.466796875 618.702148438 c 0
 601.307617188 618.702148438 588.3359375 612.719726562 582.37109375 607.478515625 c 0
 479.801074599 535.748046875 391.921788678 511.3125 321.051763954 511.3125 c 0
 231.761161514 511.3125 171.232858651 549.79296875 135.334960938 573.260742188 c 0
 130.709960938 576.383789062 126.466796875 579.247070312 122.677734375 581.68359375 c 0
 121.19921875 582.647460938 119.893554688 582.986328125 118.501953125 582.986328125 c 0
 116.099609375 582.986328125 112.575195312 581.676757812 109.450195312 578.995117188 c 0
 105.47265625 575.583007812 103.331054688 570.856445312 103.331054688 568.354492188 c 0
 103.331054688 566.80078125 103.495117188 566.0390625 105.48828125 564.725585938 c 0
 114.411132812 559.178710938 123.94140625 551.889648438 134.565429688 543.806640625 c 0
 178.498448536 511.543945312 242.804402876 465.815429688 339.780679152 465.815429688 c 0
 393.530730898 465.815429688 459.493223177 480.779296875 534.34765625 519.520507812 c 2
 555.66796875 530.989257812 l 1
 548.791015625 508.32421875 l 2
 492.463605077 325.935546875 402.630359448 95.7890625 298.798406636 2.9658203125 c 2
 295.587890625 0.0009765625 l 1
 294.05859375 -9.9990234375 292.529296875 -9.9990234375 291 0.0009765625 c 0
 263.10803192 0.0009765625 237.255879822 9.9697265625 210.665094806 19.8134765625 c 0
 177.438047483 32.1142578125 144.044921875 44.921875 108.330078125 44.921875 c 0
 94.6376953125 44.921875 79.9169921875 43.0537109375 63.8125 38.4267578125 c 0
 42.9716796875 32.37109375 33.9287109375 16.6689453125 33.9287109375 2.732421875 c 0
 33.9287109375 -9.78515625 40.2763671875 -18.1748046875 53.1982421875 -18.1748046875 c 0
 56.2431640625 -18.1748046875 59.8994140625 -17.6796875 64.2041015625 -16.419921875 c 2
 64.271484375 -16.4013671875 l 2
EndSplineSet
Validated: 524297
EndChar

StartChar: ltr107
Encoding: 107 107 14
Width: 544
GlyphClass: 2
Flags: W
HStem: -18.001 20<241.684 337.232> 532.263 30.0977<140.724 229.541> 563.175 19.001<105.239 122.632> 597.999 20.3721<400.122 480.267>
VStem: 128.307 54.2998<34.6376 117.248> 522.579 55.6572<299.052 553.571>
LayerCount: 2
Fore
SplineSet
306.105053603 615.40234375 m 0
 302.379668581 617.24609375 297.756561837 618.37109375 292.818558652 618.37109375 c 0
 287.474926152 618.37109375 282.120619197 616.776367188 276.189891636 614.431640625 c 0
 267.367454039 610.944335938 260.125903324 604.982421875 254.912499183 596.719726562 c 0
 238.236864561 580.853515625 212.752929688 562.360351562 179.700195312 562.360351562 c 0
 162.426757812 562.360351562 142.322265625 567.587890625 122.6328125 580.860351562 c 0
 121.15234375 581.858398438 119.879882812 582.17578125 118.501953125 582.17578125 c 0
 116.111328125 582.17578125 112.58984375 580.823242188 109.462890625 578.041992188 c 0
 105.485351562 574.50390625 103.331054688 569.595703125 103.331054688 566.9765625 c 0
 103.331054688 565.340820312 103.508789062 564.538085938 105.508789062 563.174804688 c 0
 139.919921875 540.922851562 192.78125 534.974609375 201.174804688 532.262695312 c 0
 213.630859375 532.262695312 225.638872 534.295898438 237.902754099 535.879882812 c 1
 233.628702056 519.086914062 229.354650013 502.29296875 225.080597969 485.5 c 0
 224.58210089 483.54296875 224.371814114 481.760742188 224.371814114 480.15625 c 0
 224.371814114 469.298828125 234.764464137 460.627929688 250.638447139 460.627929688 c 0
 259.179079107 460.627929688 268.62597236 463.422851562 276.943508205 470.154296875 c 0
 294.859514573 485.34765625 309.612679731 503.396484375 324.218537401 521.336914062 c 0
 354.503035534 558.536132812 386.078075356 597.999023438 448.021941511 597.999023438 c 0
 460.911132812 597.999023438 471.788085938 594.755859375 480.969726562 588.723632812 c 0
 512.7265625 567.857421875 522.579101562 518.458007812 522.579101562 461.549804688 c 0
 522.579101562 411.913085938 514.454101562 353.888671875 500.744140625 296.627929688 c 0
 481.666992188 217.16796875 450.493077994 136.534179688 409.872504452 79.646484375 c 0
 377.78722565 34.7119140625 339.754140159 1.9990234375 296.328319671 1.9990234375 c 2
 295.226715847 1.9990234375 l 2
 230.179785434 1.9990234375 182.606445312 37.341796875 182.606445312 79.896484375 c 0
 182.606445312 88.388671875 184.607421875 96.890625 188.696289062 104.90234375 c 0
 191.610351562 110.930664062 192.388671875 118.920898438 192.645507812 119.89453125 c 0
 192.645507812 131.340820312 183.6640625 139.114257812 169.87890625 139.114257812 c 0
 157.897460938 139.114257812 143.734375 132.540039062 135.005859375 115.088867188 c 0
 130.424804688 105.78515625 128.306640625 96.2158203125 128.306640625 86.513671875 c 0
 128.306640625 38.03125 184.858398438 -18.0009765625 285.637852334 -18.0009765625 c 0
 369.926556507 -18.0009765625 501.41796875 59.046875 559.309570312 301.442382812 c 0
 572.551757812 356.88671875 578.236328125 403.803710938 578.236328125 442.990234375 c 0
 578.236328125 574.685546875 515.9921875 617.999023438 458.672851562 617.999023438 c 2
 457.610805024 617.999023438 l 2
 391.337379656 617.999023438 352.579498626 598.673828125 340.198197514 591.2734375 c 1
 338.760348337 585.62109375 l 1
 332.945972343 586.346679688 l 1
 318.421240536 575.783203125 l 1
 318.421240536 576.703125 l 1
 316.155053601 575.172851562 l 1
 317.110417382 594.321289062 l 1
 312.634618126 599.234375 l 1
 316.926816744 602.5859375 l 1
 315.603184244 609.233398438 311.267220357 612.84765625 306.105053603 615.40234375 c 0
317.290815682 597.879882812 m 0
 317.290815682 597.947265625 317.29615291 598.008789062 317.29615291 598.064453125 c 0
 317.29615291 599.630859375 317.29615291 601.197265625 317.29615291 602.763671875 c 0
 330.169546428 613.192382812 342.813439149 623.880859375 355.540592624 634.456054688 c 1
 341.897570854 598.013671875 l 2
 341.142886839 594.110351562 339.983640955 591.284179688 335.846221944 588.478515625 c 2
 325.607284082 581.532226562 l 1
 322.456184773 587.014648438 l 1
 316.74748589 586.995117188 l 1
 316.930019081 590.623046875 317.158452432 594.247070312 317.290815682 597.879882812 c 0
EndSplineSet
Validated: 524297
EndChar

StartChar: ltr108
Encoding: 108 108 15
Width: 424
GlyphClass: 2
Flags: W
HStem: 171 58<9.93851 105.049>
LayerCount: 2
Fore
SplineSet
151.397415506 182.69921875 m 0
 108.489257812 210.904296875 68.9365234375 229 44.408203125 229 c 0
 20.513671875 229 5.240234375 207.415039062 5.240234375 189.94140625 c 0
 5.240234375 184.69921875 6.62890625 180.456054688 8.8916015625 177.526367188 c 0
 11.5869140625 174.037109375 16.330078125 171 25.9384765625 171 c 0
 57.9599609375 171 103.229492188 152.977539062 150.623053076 126.259765625 c 0
 212.659731086 92.56640625 274.521041888 44.716796875 304.017594972 -4.53515625 c 1
 306.581548066 -12.626953125 313.574051374 -17.75 326.522701176 -17.75 c 0
 343.562900354 -17.75 363.277977667 -7.744140625 368.528429614 12.404296875 c 2
 508.803710938 591.739257812 l 2
 509.502929688 594.670898438 509.7890625 597.236328125 509.7890625 599.44140625 c 0
 509.7890625 611.7265625 501.84375 617.75 488.698242188 617.75 c 0
 473.147460938 617.75 455.065429688 607.7265625 450.23828125 587.392578125 c 2
 314.193118746 35.908203125 l 1
 309.076833277 42.1953125 303.960547808 48.4833984375 298.844262339 54.7705078125 c 0
 263.719055739 97.9345703125 206.530330241 147.580078125 151.397415506 182.69921875 c 0
EndSplineSet
Validated: 524297
EndChar

StartChar: ltr109
Encoding: 109 109 16
Width: 516
GlyphClass: 2
Flags: W
HStem: -18 19<90.5732 236.171> 554.285 15.043<131.038 201.123> 600 18<378.3 435.083>
VStem: 478.131 59.2217<466.536 490.48 525.773 579.247>
LayerCount: 2
Fore
SplineSet
34.716796875 8.51171875 m 0
 34.185546875 6.2099609375 33.9501953125 4.0478515625 33.9501953125 2.048828125 c 0
 33.9501953125 -9.783203125 41.5771484375 -18 54.765625 -18 c 0
 199.326183739 -18 291.538665897 -15.7861328125 366.890390487 21.8583984375 c 0
 426.590820312 51.9638671875 474.3359375 105.563476562 533.540039062 202.711914062 c 0
 538.129882812 210.224609375 539.69140625 216.485351562 539.69140625 221.216796875 c 0
 539.69140625 232.376953125 530.883789062 240.301757812 517.604492188 240.301757812 c 0
 507.048828125 240.301757812 494.268554688 234.776367188 484.80078125 219.27734375 c 0
 422.7578125 119.034179688 374.086256832 62.1025390625 307.068811256 31.73828125 c 0
 253.567640021 7.4970703125 190.354055698 1 104.23046875 1 c 0
 99.60546875 -9 94.9814453125 -9 90.3564453125 1 c 1
 93.2353515625 12.8896484375 l 2
 102.845703125 52.5732421875 108.32421875 99.587890625 114.0625 150.065429688 c 0
 132.33203125 315.196289062 154.684144111 519.3984375 376.330344884 599.280273438 c 2
 378.263956753 600 l 2
 379.034867002 610 379.80577725 610 380.576687498 600 c 0
 408.19745126 600 430.225585938 596.498046875 446.577148438 587.1640625 c 0
 467.596679688 575.166015625 478.130859375 553.963867188 478.130859375 525.7734375 c 0
 478.130859375 513.732421875 476.360351562 500.411132812 472.921875 485.51953125 c 0
 472.22265625 482.4921875 471.934570312 479.834960938 471.934570312 477.55859375 c 0
 471.934570312 465.2734375 479.879882812 459.25 493.025390625 459.25 c 0
 508.560546875 459.25 526.651367188 469.545898438 531.484375 490.48046875 c 0
 535.521484375 507.967773438 537.352539062 522.985351562 537.352539062 535.71484375 c 0
 537.352539062 608.426757812 477.729492188 618 380.84280994 618 c 0
 355.53900109 618 320.328467528 606.74609375 283.862300698 594.671875 c 0
 245.709635695 582.456054688 205.736355256 569.328125 169.452883594 569.328125 c 0
 152.026367188 569.328125 136.28125 572.551757812 122.678710938 581.286132812 c 0
 121.200195312 582.25 119.893554688 582.587890625 118.501953125 582.587890625 c 0
 116.099609375 582.587890625 112.575195312 581.280273438 109.450195312 578.6015625 c 0
 105.47265625 575.192382812 103.331054688 570.470703125 103.331054688 567.971679688 c 0
 103.331054688 566.418945312 103.49609375 565.657226562 105.48828125 564.345703125 c 0
 116.860351562 557.303710938 130.52734375 554.28515625 146.5078125 554.28515625 c 0
 175.328698145 554.28515625 212.827673499 563.858398438 248.02236644 573.657226562 c 2
 298.825351806 587.803710938 l 1
 283.940447764 576.52734375 269.055543723 565.25 254.171695722 553.973632812 c 0
 121.583984375 451.307617188 88.2705078125 280.416992188 58.3798828125 123.426757812 c 0
 50.80859375 83.66015625 43.43359375 44.900390625 34.716796875 8.51171875 c 0
EndSplineSet
Validated: 524297
EndChar

StartChar: ltr110
Encoding: 110 110 17
Width: 544
GlyphClass: 2
Flags: W
HStem: 564.504 18.3438<104.873 120.226>
VStem: 94.2744 52.6162<20.36 263.846> 474.555 50.5605<315.531 526.202>
LayerCount: 2
Fore
SplineSet
560.926757812 22.88671875 m 2
 530.8359375 162.52734375 525.115234375 297.854492188 525.115234375 437.006835938 c 0
 525.115234375 490.236328125 525.96875 545.4140625 526.598632812 599.037109375 c 0
 526.537109375 609.609375 517.990234375 617.078125 504.318359375 617.078125 c 0
 496.38671875 617.078125 487.4921875 614.091796875 479.9765625 607.174804688 c 0
 408.713943316 545.314453125 343.64637651 405.94921875 280.052704086 267.653320312 c 0
 242.30837758 185.572265625 205.858398438 104.680664062 169.463867188 39.193359375 c 2
 158.650390625 19.734375 l 1
 151.278320312 40.73046875 l 2
 147.998046875 50.0732421875 146.890625 61.1884765625 146.890625 78.1015625 c 0
 146.890625 129.215820312 157.739257812 219.700195312 174.310546875 291.48046875 c 0
 192.193359375 368.659179688 220.699822905 477.12890625 260.481056462 541.8515625 c 2
 262.13798348 544.545898438 l 1
 280.643546278 552.971679688 296.209883242 563.646484375 307.411266474 576.271484375 c 0
 315.770827203 585.474609375 318.552709193 593.578125 318.552709193 599.599609375 c 0
 318.552709193 609.764648438 308.956875397 618.372070312 293.988873189 618.372070312 c 0
 285.097340413 618.372070312 274.712646662 614.658203125 264.984087446 606.111328125 c 0
 263.535881855 605.224609375 262.197923992 604.377929688 260.782899756 603.33984375 c 0
 257.65100799 600.127929688 254.435627653 596.619140625 251.226669513 592.971679688 c 0
 234.493633292 578.732421875 209.75 563.661132812 179.69921875 563.661132812 c 0
 162.134765625 563.661132812 142.9140625 568.959960938 122.771484375 581.638671875 c 0
 121.279296875 582.561523438 119.986328125 582.84765625 118.501953125 582.84765625 c 0
 115.302734375 582.84765625 110.57421875 580.670898438 107.185546875 576.946289062 c 0
 104.5 573.995117188 103.331054688 570.73828125 103.331054688 569.098632812 c 0
 103.331054688 567.009765625 103.747070312 565.889648438 105.666992188 564.50390625 c 0
 137.135742188 544.733398438 165.901367188 536.40625 193.655273438 534.705078125 c 2
 208.950195312 533.767578125 l 1
 201.8984375 520.595703125 l 2
 165.225585938 452.092773438 132.237304688 365.434570312 115.74609375 296.564453125 c 0
 102.33984375 240.338867188 94.2744140625 173.055664062 94.2744140625 112.97265625 c 0
 94.2744140625 65.1982421875 99.5419921875 21.96484375 110.48046875 -6.8681640625 c 0
 112.658203125 -12.6533203125 118.72265625 -16.5654296875 129.020507812 -16.5654296875 c 0
 141.948242188 -16.5654296875 157.28515625 -9.150390625 164.639648438 3.8740234375 c 0
 222.023866007 105.469726562 273.926997805 221.34375 319.645553175 322.99609375 c 0
 348.396662108 386.923828125 374.471855313 444.947265625 399.171627835 490.015625 c 0
 419.66057937 527.399414062 438.220730849 554.357421875 457.967773438 571.936523438 c 2
 474.885742188 587.286132812 l 1
 474.705078125 566.959960938 474.5546875 546.826171875 474.5546875 526.202148438 c 0
 474.5546875 367.212890625 481.591796875 190.120117188 520.833984375 -2.208984375 c 0
 521.998046875 -4.1748046875 525.103515625 -5.9091796875 530.689453125 -7.896484375 c 0
 532.025390625 -8.3720703125 533.397460938 -8.7783203125 534.9296875 -9.4609375 c 0
 548.0234375 -8.1025390625 562.48828125 4.4716796875 562.48828125 15.294921875 c 0
 562.48828125 15.4150390625 562.484375 15.53515625 562.484375 15.65625 c 2
 560.926757812 22.88671875 l 2
EndSplineSet
Validated: 524297
EndChar

StartChar: ltr111
Encoding: 111 111 18
Width: 514
GlyphClass: 2
Flags: W
HStem: -22.3418 11.6377<358.769 426.82> -0.952148 47.0986<123.569 277.592> 176.866 51.127<17.8861 130.026> 598 20<411.837 480.527>
VStem: 523.021 55.541<299.009 554.14>
LayerCount: 2
Fore
SplineSet
338.209561432 518.920898438 m 0
 369.336355823 564.62109375 406.204563328 598 448.353875637 598 c 0
 461.0078125 598 471.919921875 594.818359375 481.151367188 588.8671875 c 0
 513.139648438 568.245117188 523.020507812 519.28515625 523.020507812 462.854492188 c 0
 523.020507812 413.198242188 514.754882812 354.999023438 500.978515625 297.426757812 c 2
 426.957833049 -7.3369140625 l 1
 418.3975499 -9.009765625 408.709304044 -10.7041015625 398.971295127 -10.7041015625 c 0
 365.093018178 -10.7041015625 331.125582413 3.140625 297.077281674 16.5888671875 c 0
 259.419085582 31.4619140625 221.390776727 46.146484375 184.339067936 46.146484375 c 0
 168.271819752 46.146484375 152.295803846 43.4814453125 136.109331663 36.896484375 c 0
 116.15019745 28.83203125 108.974609375 14.4599609375 108.974609375 2.6923828125 c 0
 108.974609375 -9.87109375 116.132573033 -18.4755859375 129.197449895 -18.4755859375 c 0
 133.511285209 -18.4755859375 138.960340342 -17.50390625 145.439905521 -14.8857421875 c 0
 170.751678938 -4.6064453125 195.667421331 -0.9521484375 220.196463273 -0.9521484375 c 0
 249.617836109 -0.9521484375 278.37570147 -6.0859375 307.489165369 -11.212890625 c 0
 338.990219445 -16.76171875 370.967132787 -22.341796875 404.835042432 -22.341796875 c 0
 422.177469043 -22.341796875 440.045517981 -20.8935546875 458.69921875 -17.2314453125 c 0
 473.4453125 -14.2255859375 486.921875 -1.634765625 490.283203125 12.439453125 c 2
 559.543945312 302.423828125 l 2
 572.845703125 358.110351562 578.561523438 405.146484375 578.561523438 444.356445312 c 0
 578.561523438 575.33203125 516.786132812 618 458.69921875 618 c 2
 457.639870086 618 l 2
 376.133160513 618 245.231429665 539.383789062 183.388386133 294.793945312 c 1
 156.540178221 185.19921875 l 1
 143.073049953 196.783203125 l 2
 119.015720355 217.475585938 87.4326171875 227.993164062 58.40625 227.993164062 c 0
 44.8994140625 227.993164062 32.166015625 225.754882812 21.7470703125 221.733398438 c 0
 1.6435546875 214.037109375 -6.05078125 198.880859375 -6.05078125 186.586914062 c 0
 -6.05078125 174.1171875 0.7978515625 165.56640625 13.36328125 165.56640625 c 0
 17.0146484375 165.56640625 21.51953125 166.3203125 26.8173828125 168.291015625 c 0
 39.9736328125 173.365234375 57.7900390625 176.866210938 76.1728515625 176.866210938 c 0
 100.78125 176.866210938 129.673309162 170.501953125 144.369999719 147.026367188 c 2
 146.507737863 143.61328125 l 1
 142.649027207 127.6171875 138.790316552 111.62109375 134.932642627 95.625 c 0
 134.304383987 92.8310546875 134.043127919 90.375 134.043127919 88.224609375 c 0
 134.043127919 75.6708984375 142.487297261 69.74609375 156.227085632 69.74609375 c 0
 172.700732144 69.74609375 191.515315964 80.2861328125 196.739400594 101.475585938 c 2
 246.049409974 298.602539062 l 2
 266.359995802 379.081054688 298.787886881 461.041015625 338.209561432 518.920898438 c 0
EndSplineSet
Validated: 524297
EndChar

StartChar: ltr112
Encoding: 112 112 19
Width: 493
GlyphClass: 2
Flags: W
HStem: -17.999 18<207.93 257> 370.99 19.0195<208.121 287.295>
VStem: 81.8262 20.0547<572.026 594.258> 86.5527 49.6533<85.0758 320.986> 346.139 53.4322<461.256 579.046>
LayerCount: 2
Fore
SplineSet
183.173828125 386.965820312 m 2xd8
 200.088867188 377.256835938 222.584403758 370.990234375 253.288626552 370.990234375 c 0
 253.432648567 370.990234375 253.621147969 370.9921875 253.852006787 370.994140625 c 0
 254.057449955 370.994140625 254.295721671 371 254.56788092 371 c 0
 275.065602393 371.377929688 303.893303052 386.49609375 330.216503231 408.735351562 c 0
 362.921149453 436.366210938 390.323455759 473.365234375 396.162701274 495.430664062 c 0
 398.767805368 505.280273438 399.571575289 517.99609375 399.571575289 527.142578125 c 0
 399.571575289 555.543945312 390.485480525 570.828125 377.023658074 580.330078125 c 0
 365.130193005 588.725585938 348.19489843 593.022460938 327.890971285 595.802734375 c 1
 325.312341827 598.40234375 l 2
 324.551990307 599.168945312 323.795874729 600.001953125 319.696542231 600.001953125 c 0
 312.474261778 600.001953125 305.339877114 599.276367188 298.538013866 598.14453125 c 1
 297.255582542 598.14453125 l 1
 296.986600249 598.15234375 l 2
 296.725030855 598.161132812 296.586303767 598.163085938 296.574654927 598.163085938 c 0
 293.387108862 598.163085938 291.092287493 596.604492188 288.296566027 595.8515625 c 0
 234.938527477 581.483398438 190.731445312 530.3046875 158.09375 465.572265625 c 2
 147.490234375 444.54296875 l 1
 139.715820312 466.765625 l 2
 132.760742188 486.647460938 127.838867188 507.74609375 123.422851562 527.432617188 c 0
 117.203125 555.165039062 111.229492188 579.818359375 101.880859375 593.940429688 c 0
 100.685546875 595.7265625 99.9052734375 596.017578125 97.8818359375 596.017578125 c 0
 94.837890625 596.017578125 89.626953125 593.846679688 85.9931640625 590.141601562 c 0
 83.109375 587.202148438 81.826171875 584.008789062 81.826171875 581.96875 c 0xe8
 81.826171875 580.889648438 82.0517578125 579.8828125 82.8486328125 578.620117188 c 0
 96.3037109375 559.216796875 103.583984375 533.2734375 111.475585938 506.365234375 c 0
 118.650390625 481.90234375 126.239257812 456.470703125 137.51171875 434.435546875 c 2
 139.505859375 430.538085938 l 1
 120.998046875 386.409179688 105.841796875 338.463867188 95.748046875 296.248046875 c 0
 89.7939453125 272.211914062 86.552734375 243.557617188 86.552734375 213.677734375 c 0
 86.552734375 140.110351562 106.356445312 60.0849609375 148.1875 16.5087890625 c 0
 168.96484375 -5.1357421875 194.778320312 -17.9990234375 241.843970918 -17.9990234375 c 2
 408.103221459 -18.9990234375 l 2
 429.353329284 -18.9990234375 452.440393587 -4.76953125 457.395904085 11.537109375 c 2
 577.794921875 591.697265625 l 2
 578.494140625 594.62890625 578.790039062 597.237304688 578.790039062 599.44140625 c 0
 578.790039062 611.7265625 570.84375 617.750976562 557.698242188 617.750976562 c 0
 542.143554688 617.750976562 524.064453125 607.795898438 519.23828125 587.611328125 c 2
 378.74609375 0.0009765625 l 1
 257 0.0009765625 l 2
 154.876953125 0.0009765625 136.206054688 83.9150390625 136.206054688 158.510742188 c 0
 136.206054688 214.487304688 146.236328125 271.299804688 154.329101562 303.545898438 c 0
 160.11328125 328.083984375 165.879882812 366.991210938 170.907226562 394.0078125 c 1
 183.173828125 386.965820312 l 2xd8
295.378001421 590.07421875 m 1
 329.244354631 584.422851562 346.139407761 564.360351562 346.139407761 529.873046875 c 0
 346.139407761 518.233398438 344.415379524 506.259765625 342.498615943 494.868164062 c 0
 340.145550376 485.544921875 332.81101747 456.588867188 318.085825432 430.994140625 c 0
 306.791746102 411.364257812 289.571584453 390.696289062 263.243089347 390.009765625 c 0
 263.12024704 390.009765625 262.996345748 390.009765625 262.873503441 390.009765625 c 0
 226.920948986 390.184570312 199.94921875 399.467773438 180.956054688 414.625976562 c 2
 176.025390625 418.560546875 l 1
 185.952148438 461.565429688 198.46875 505.356445312 221.343272865 539.15625 c 0
 239.414858778 565.534179688 262.697711864 584.680664062 295.378001421 590.07421875 c 1
EndSplineSet
Validated: 524297
EndChar

StartChar: ltr113
Encoding: 113 113 20
Width: 544
GlyphClass: 2
Flags: W
HStem: -20.3799 53.2266<272.884 345.998 374.152 388.081> 24.5518 29.3848<142.765 253.221> 599 19<385.276 495.502>
VStem: 542.953 87.8447<481.231 605.657>
LayerCount: 2
Fore
SplineSet
253.183446127 44.7744140625 m 0xb0
 235.750028943 49.7431640625 220.731281258 53.9365234375 203.058880075 53.9365234375 c 0
 181.272022769 53.9365234375 153.938476562 47.626953125 114.973632812 25.435546875 c 0
 107.69140625 21.279296875 100.409179688 17.1240234375 93.126953125 12.96875 c 1
 98.310546875 35.2685546875 l 2
 148.009765625 241.813476562 196.80494815 391.276367188 259.124940097 484.7109375 c 0
 308.999141959 559.375976562 368.767902122 599 445.208641273 599 c 0
 486.446313158 599 513.685546875 585.451171875 528.051757812 562.958984375 c 0
 539.321289062 545.315429688 542.953125 523.7265625 542.953125 501.501953125 c 0
 542.953125 460.9609375 531.940429688 420.627929688 523.793945312 385.508789062 c 0
 523.35546875 383.622070312 523.182617188 381.990234375 523.182617188 380.616210938 c 0
 523.182617188 372.359375 530.360351562 366 545.497070312 366 c 0
 562.3125 366 578.892578125 375.3046875 582.396484375 390.48046875 c 2
 582.396484375 390.48046875 629.58203125 590.53125 629.612304688 590.655273438 c 0
 630.452148438 594.022460938 630.797851562 596.975585938 630.797851562 599.456054688 c 0
 630.797851562 611.858398438 622.73828125 618.00390625 609.443359375 618.00390625 c 0
 595.262695312 618.00390625 578.708007812 609.3359375 571.920898438 591.799804688 c 0
 569.994140625 586.818359375 568.067382812 581.837890625 566.140625 576.856445312 c 1
 555.352539062 586.635742188 l 2
 534.087890625 605.9140625 503.539359191 618 455.294593686 618 c 0
 403.528176524 618 357.647386942 613.325195312 314.318863705 591.3046875 c 0
 279.6392852 573.680664062 245.951852387 544.65625 212.223037064 496.344726562 c 0
 151.642578125 409.366210938 94.984375 260.30078125 34.716796875 8.5107421875 c 0
 34.2529296875 6.501953125 34.0537109375 4.6435546875 34.0537109375 2.9296875 c 0
 34.0537109375 -8.5107421875 43.2529296875 -17.2353515625 56.4482421875 -17.2353515625 c 0
 61.4794921875 -17.2353515625 67.1123046875 -15.8642578125 72.9296875 -12.4462890625 c 0
 120.275390625 14.5751953125 156.390788228 24.5517578125 188.314291523 24.5517578125 c 0x70
 224.099817627 24.5517578125 250.32805289 11.8974609375 273.995745307 0.5830078125 c 0
 297.374794711 -10.59375 318.174679137 -20.3798828125 345.998210188 -20.3798828125 c 0
 354.514730884 -20.3798828125 363.798897153 -19.4599609375 374.151766761 -17.2666015625 c 0
 397.942572146 -11.98828125 408.515803623 5.6728515625 408.515803623 20.0498046875 c 0
 408.515803623 32.2060546875 402.2701482 40.2646484375 388.201129134 40.2646484375 c 0
 385.634378909 40.2646484375 382.665183769 39.9716796875 379.30802759 39.2724609375 c 0
 359.476493914 34.9111328125 326.054943732 32.845703125 324.471028136 32.8466796875 c 0
 294.863910876 32.86328125 272.628053329 39.21875 253.183446127 44.7744140625 c 0xb0
EndSplineSet
Validated: 524329
EndChar

StartChar: ltr114
Encoding: 114 114 21
Width: 514
GlyphClass: 2
Flags: W
HStem: 571.425 18.4482<373.562 514.605> 577.982 11.8906<388.97 441.456>
LayerCount: 2
Fore
SplineSet
244.715319219 558.140625 m 1x80
 237.50294346 558.555664062 230.339652794 559.026367188 222.664623913 559.026367188 c 0
 211.282103871 559.026367188 199.712890625 558.407226562 188.896484375 558.407226562 c 0
 165.5078125 558.407226562 139.2421875 561.172851562 120.5703125 582.982421875 c 0
 119.424804688 584.145507812 118.377929688 584.541015625 116.5 584.541015625 c 0
 113.388671875 584.541015625 108.2578125 582.29296875 104.684570312 578.548828125 c 0
 101.836914062 575.565429688 100.666992188 572.391601562 100.666992188 570.716796875 c 0
 100.666992188 569.122070312 101.015625 567.799804688 102.140625 566.272460938 c 0
 115.063476562 551.497070312 131.342773438 550 151.505859375 548.51171875 c 0
 164.313476562 547.594726562 178.391601562 546.81640625 191.448242188 540.088867188 c 0
 209.111916089 531.1875 221.302773639 512.883789062 225.634794295 480.981445312 c 0
 225.585709201 480.217773438 225.525136106 479.32421875 225.525136106 478.560546875 c 0
 225.525136106 465.380859375 234.370896703 459.250976562 248.300619825 459.250976562 c 0
 261.628789452 459.250976562 276.783551202 466.15234375 284.976584482 479.4921875 c 0
 288.410452351 484.473632812 290.440695397 489.798828125 291.01927289 496.311523438 c 2
 314.403620651 589.571289062 l 1
 334.88568167 584.494140625 344.716277242 583.448242188 372.768930772 577.984375 c 0
 372.815927139 577.984375 372.862923506 577.982421875 372.909919873 577.982421875 c 0x40
 373.591889373 578.002929688 374.171511231 577.928710938 374.707269812 577.813476562 c 0
 401.350032338 573.16015625 423.274359636 571.424804688 442.352795833 571.424804688 c 0
 484.249534661 571.424804688 513.549804688 579.768554688 546.458984375 585.557617188 c 2
 576.8046875 590.895507812 l 1
 555.38671875 568.8359375 l 2
 362.537299536 384.98828125 241.27831826 238.709960938 86.51953125 -96.0283203125 c 0
 83.986328125 -101.880859375 83.0859375 -106.708007812 83.0859375 -110.55859375 c 0
 83.0859375 -120.83203125 91.2314453125 -127.908203125 105.056640625 -127.908203125 c 0
 117.831054688 -127.908203125 132.754882812 -120.751953125 140.720703125 -103.087890625 c 0
 302.481164573 239.272460938 418.843124428 382.930664062 618.327148438 573.830078125 c 0
 627.90625 582.349609375 631.15234375 590.802734375 631.15234375 597.341796875 c 0
 631.15234375 606.118164062 625.483398438 611.365234375 617.400390625 614.328125 c 1
 615.26953125 616.430664062 614.764648438 618.000976562 608.755859375 618.000976562 c 0
 580.690429688 618.000976562 558.68359375 611.633789062 534.930664062 604.708984375 c 0
 510.442176429 597.568359375 482.314328712 589.873046875 445.615388053 589.873046875 c 0
 430.565062674 589.873046875 414.030696467 591.189453125 395.807594146 594.227539062 c 0
 357.844973401 602.259765625 344.946037258 605.428710938 300.687992088 617.40234375 c 0
 298.529292306 617.881835938 296.298531429 618.114257812 293.918426541 618.114257812 c 0
 276.295833351 618.114257812 255.990269798 604.104492188 251.692713145 587.295898438 c 0
 249.36691517 577.577148438 247.041117194 567.858398438 244.715319219 558.140625 c 1x80
EndSplineSet
Validated: 524297
EndChar

StartChar: ltr115
Encoding: 115 115 22
Width: 544
GlyphClass: 2
Flags: W
HStem: 288.854 20.4141<123.496 141.764> 671.027 18.1885<83.897 165.363>
VStem: 218.34 53.6047<78.0991 106.64 106.641 199.046>
LayerCount: 2
Fore
SplineSet
130.419921875 287.674804688 m 0
 204.608582593 245.94921875 218.611517733 169.569335938 218.611517733 106.640625 c 0
 218.611517733 101.209960938 218.340122791 95.89453125 218.340122791 90.640625 c 0
 218.340122791 83.2431640625 220.887059932 79.904296875 223.925639447 77.85546875 c 0
 226.538337669 76.0947265625 230.552895146 74.90234375 235.576833038 74.90234375 c 0
 252.448203941 74.90234375 271.944798986 87.630859375 271.944798986 106.639648438 c 0
 271.944798986 106.700195312 271.94375516 106.7890625 271.942711333 106.90625 c 0
 271.942711333 107.0390625 271.942711333 107.171875 271.942711333 107.305664062 c 0
 272.011603895 109.39453125 272.052313136 111.524414062 272.052313136 113.600585938 c 0
 272.052313136 186.23046875 230.074822518 256.432617188 137.459960938 309.266601562 c 0
 137.395507812 309.266601562 137.331054688 309.268554688 137.266601562 309.268554688 c 0
 129.244140625 309.268554688 122.1015625 300.26953125 122.1015625 293.516601562 c 0
 122.1015625 290.615234375 122.1015625 289.575195312 126.983398438 288.854492188 c 0
 128.455078125 288.787109375 129.502929688 288.295898438 130.419921875 287.674804688 c 0
85.482421875 669.935546875 m 0
 92.6962890625 670.66015625 99.869140625 671.02734375 106.825195312 671.02734375 c 0
 189.397460938 671.02734375 253.842756408 622.513671875 300.619762178 551.075195312 c 0
 394.045383035 408.396484375 420.27048497 169.830078125 424.553305907 1.2578125 c 0
 424.851840343 -12.8994140625 432.875736162 -18.4091796875 445.772215003 -18.4091796875 c 0
 454.448502508 -18.4091796875 466.568374286 -14.08984375 472.995215259 -9.5703125 c 0
 482.502388815 -3.232421875 488.746560116 5.486328125 489.858235548 16.76953125 c 1
 628.803710938 591.7421875 l 2
 629.502929688 594.672851562 629.7890625 597.237304688 629.7890625 599.44140625 c 0
 629.7890625 611.7265625 621.84375 617.75 608.697265625 617.75 c 0
 593.163085938 617.75 575.072265625 607.454101562 570.239257812 586.51953125 c 2
 474.089145638 181.350585938 l 1
 470.630947791 198.520507812 467.171706117 215.689453125 463.71350827 232.859375 c 0
 430.925867892 395.638671875 367.244088765 545.479492188 273.267327412 626.005859375 c 0
 226.371325398 666.190429688 174.049804688 689.215820312 115.80078125 689.215820312 c 0
 108.354492188 689.215820312 100.764648438 688.834960938 93.0302734375 688.055664062 c 0
 84.306640625 687.108398438 79.4228515625 680.43359375 79.4228515625 674.233398438 c 0
 79.4228515625 672.42578125 79.9130859375 671.346679688 80.2109375 670.943359375 c 0
 80.44140625 670.631835938 80.8388671875 669.842773438 83.875 669.842773438 c 0
 84.34375 669.842773438 84.87890625 669.869140625 85.482421875 669.935546875 c 0
EndSplineSet
Validated: 524297
EndChar

StartChar: ltr116
Encoding: 116 116 23
Width: 494
GlyphClass: 2
Flags: W
HStem: 176.001 48<12.9558 95.46 448.777 534.982>
VStem: 187.96 64.5149<-13.1981 22.2499>
LayerCount: 2
Fore
SplineSet
418.819335938 591.825195312 m 0
 419.729492188 595.662109375 420.099609375 599.0078125 420.099609375 602.000976562 c 0
 420.099609375 619.204101562 407.632243095 627.877929688 388.59403205 627.877929688 c 0
 366.413235207 627.877929688 340.775908982 614.698242188 333.821901054 587.616210938 c 0
 316.255759934 520.803710938 300.257236786 449.13671875 283.741074214 375.127929688 c 0
 263.557336572 283.549804688 242.434918107 188.157226562 216.864790509 93.8427734375 c 2
 209.424642513 66.033203125 l 1
 204.733338357 75.607421875 200.042034201 85.181640625 195.350730045 94.755859375 c 0
 159.276617046 168.418945312 97.857421875 224.000976562 43.25390625 224.000976562 c 0
 22.79296875 224.000976562 9.9013671875 205.805664062 9.9013671875 191.309570312 c 0
 9.9013671875 186.967773438 11.0625 183.564453125 12.85546875 181.270507812 c 0
 14.9697265625 178.56640625 18.7978515625 176.000976562 27.09375 176.000976562 c 0
 94.5478515625 176.000976562 168.433479969 111.047851562 193.174124514 25.02734375 c 2
 193.887059948 22.55078125 l 1
 191.818602207 16.1923828125 187.959931041 5.98046875 187.959931041 0.265625 c 0
 187.959931041 -11.4736328125 196.589704733 -17.806640625 211.098308319 -17.806640625 c 0
 227.28267767 -17.806640625 246.140292405 -8.6708984375 252.47481299 10.873046875 c 0
 254.561120366 17.3662109375 256.647427743 23.859375 258.733735119 30.3525390625 c 1
 260.031508605 31.8291015625 l 2
 333.515307318 115.422851562 439.283203125 156.903320312 502.803710938 169.365234375 c 0
 525.224609375 173.690429688 535.936523438 191.107421875 535.936523438 205.227539062 c 0
 535.936523438 216.583984375 530.422851562 224.059570312 517.021484375 224.059570312 c 0
 514.75 224.059570312 512.140625 223.809570312 509.106445312 223.197265625 c 0
 450.8671875 212.348632812 368.963633102 162.202148438 302.811834595 98.697265625 c 2
 273.89017547 71.34375 l 1
 284.775303085 108.348632812 l 2
 334.552686124 274.229492188 380.450398425 444.232421875 418.819335938 591.825195312 c 0
EndSplineSet
Validated: 524297
EndChar

StartChar: ltr117
Encoding: 117 117 24
Width: 544
GlyphClass: 2
Flags: W
HStem: -18 19.001<326.027 424.306> 534.521 28.9375<140.722 229.65> 564.368 18.2832<105.228 122.632>
VStem: 149.362 57.4053<70.6499 259.39>
LayerCount: 2
Fore
SplineSet
315.224083945 590.998046875 m 2
 316.135566245 594.236328125 316.512185668 597.077148438 316.512185668 599.458984375 c 0
 316.512185668 611.732421875 308.132667249 618.372070312 291.919042853 618.372070312 c 0
 286.523995995 618.372070312 281.049827409 616.776367188 275.021806731 614.18359375 c 0
 266.92185175 610.701171875 260.12793275 605.017578125 255.060977322 597.271484375 c 1
 238.69227434 581.780273438 213.115234375 563.458984375 179.69921875 563.458984375 c 0
 162.42578125 563.458984375 142.322265625 568.522460938 122.6328125 581.376953125 c 0
 121.15234375 582.34375 119.879882812 582.651367188 118.501953125 582.651367188 c 0
 116.100585938 582.651367188 112.576171875 581.340820312 109.451171875 578.657226562 c 0
 105.473632812 575.2421875 103.331054688 570.512695312 103.331054688 568.006835938 c 0
 103.331054688 566.448242188 103.497070312 565.684570312 105.497070312 564.368164062 c 0
 139.909179688 542.883789062 192.80078125 537.133789062 201.174804688 534.521484375 c 1
 213.631835938 534.521484375 225.587606355 536.483398438 237.704835181 538.013671875 c 1
 155.889648438 200.659179688 l 2
 151.7421875 183.313476562 149.362304688 165.78515625 149.362304688 148.720703125 c 0
 149.362304688 100.43359375 167.767578125 55.4384765625 221.284179688 24.01171875 c 0
 267.724673545 -1.3212890625 340.182241663 -18 448.086343694 -18 c 0
 466.060690265 -18 485.842177093 -3.4033203125 490.088376468 13.49609375 c 2
 611.486328125 538.481445312 l 2
 612.185546875 541.5078125 612.473632812 544.165039062 612.473632812 546.44140625 c 0
 612.473632812 558.725585938 604.528320312 564.75 591.381835938 564.75 c 0
 585.794921875 564.75 577.762695312 562.688476562 573.30078125 560.331054688 c 0
 565.192382812 555.798828125 557.086914062 551.263671875 548.975585938 546.734375 c 0
 440.089774436 488.40234375 377.211210125 456.095703125 317.141994619 370.043945312 c 0
 311.913630867 362.528320312 310.168733037 356.23828125 310.168733037 351.411132812 c 0
 310.168733037 340.060546875 320.253060944 331.552734375 335.080472674 331.552734375 c 0
 346.566837592 331.552734375 359.579724373 336.983398438 370.174651161 351.9921875 c 0
 416.811107253 418.05859375 451.531831186 465.329101562 529.170898438 515.1015625 c 0
 536.872070312 520.262695312 544.57421875 525.422851562 552.275390625 530.583984375 c 1
 424.305517281 1.0009765625 l 1
 415.72028237 1.0009765625 l 1
 414.854163194 1.0009765625 l 2
 343.720565316 1.0009765625 294.272650507 14.1962890625 261.033085312 36.439453125 c 0
 219.5078125 64.43359375 206.767578125 105.463867188 206.767578125 145.938476562 c 0
 206.767578125 166.387695312 209.9140625 186.810546875 214.541015625 205.998046875 c 2
 315.224083945 590.998046875 l 2
EndSplineSet
Validated: 524297
EndChar

StartChar: ltr118
Encoding: 118 118 25
Width: 544
GlyphClass: 2
Flags: W
HStem: 534.757 28.8945<140.721 229.243> 564.564 18.2559<105.227 122.632>
LayerCount: 2
Fore
SplineSet
599.297851562 571.809570312 m 0
 617.654296875 576.317382812 625.892578125 590.563476562 625.892578125 602.046875 c 0
 625.892578125 612.14453125 621.297851562 618.415039062 610.381835938 618.415039062 c 0
 607.989257812 618.415039062 605.045898438 617.918945312 601.827148438 617.243164062 c 0
 592.828125 615.354492188 580.759765625 608.140625 567.555664062 596.345703125 c 0
 551.126953125 581.669921875 533.205078125 560.529296875 515.689453125 536.973632812 c 0
 473.308929677 483.079101562 433.348664391 418.30859375 412.304445047 384.236328125 c 0
 400.726130799 365.48828125 396.88385823 360.608398438 385.823662247 345.500976562 c 1
 379.437040146 365.873046875 l 2
 376.85590737 374.109375 375.196457593 385.588867188 372.367300657 404.178710938 c 0
 367.580224194 435.640625 360.445325816 482.0703125 349.325225692 523.923828125 c 0
 340.226102087 558.16796875 328.405018428 588.169921875 314.486238915 605.249023438 c 1
 310.872022458 612.694335938 303.281011855 618.37109375 291.632283969 618.37109375 c 0
 282.051825342 618.37109375 270.261219229 614.21875 259.35551287 601.916015625 c 0
 244.151421718 585.754882812 216.279296875 563.651367188 179.700195312 563.651367188 c 0
 162.426757812 563.651367188 142.322265625 568.708007812 122.6328125 581.547851562 c 0
 121.15234375 582.512695312 119.879882812 582.8203125 118.501953125 582.8203125 c 0
 116.100585938 582.8203125 112.575195312 581.51171875 109.450195312 578.83203125 c 0
 105.473632812 575.420898438 103.331054688 570.697265625 103.331054688 568.196289062 c 0
 103.331054688 566.640625 103.497070312 565.877929688 105.49609375 564.564453125 c 0
 139.90625 543.108398438 192.798828125 537.365234375 201.171875 534.756835938 c 1
 236.273501812 534.756835938 267.140949191 546.560546875 289.564014708 563.060546875 c 2
 299.689916295 570.510742188 l 1
 305.86950128 560.124023438 l 2
 315.679066969 543.637695312 320.711014742 520.620117188 323.970010157 494.274414062 c 0
 328.045593587 461.326171875 328.998805081 423.006835938 329.866889638 386.896484375 c 0
 330.817999232 347.340820312 331.9267513 312.408203125 336.244053191 290.754882812 c 1
 311.562496495 172.46484375 289.681721089 107.46875 260.766938488 9.1455078125 c 0
 259.621403177 5.16015625 259.143221005 1.6474609375 259.143221005 -1.318359375 c 0
 259.143221005 -15.798828125 269.943832381 -23.3935546875 286.919824943 -23.3935546875 c 0
 306.311951157 -23.3935546875 328.964123737 -12.1220703125 335.990774282 11.703125 c 0
 372.756152093 137.150390625 377.576858952 185.57421875 400.264763825 296.102539062 c 1
 415.289142557 317.33984375 432.577267217 347.393554688 451.962036783 381.334960938 c 0
 477.525340384 426.096679688 505.815858788 475.733398438 532.4609375 513.213867188 c 0
 553.446289062 542.739257812 574.9921875 566.533203125 599.297851562 571.809570312 c 0
EndSplineSet
Validated: 524297
EndChar

StartChar: ltr119
Encoding: 119 119 26
Width: 544
GlyphClass: 2
Flags: W
HStem: -19.001 20<196.417 226.398 226.728 261.955 262.835 319.281> 408.999 19.001<364.909 416.326> 554.628 15.085<131.021 198.381> 559.999 48<562.14 620.584> 560 20.5068<103.636 145.738 393.143 471.924> 598 20<323.775 379.171>
VStem: 84.9951 56.415<51.707 303.676> 303.898 50.5776<436.304 532.42> 517.406 58.6514<286.759 512.179>
LayerCount: 2
Fore
SplineSet
103.745117188 296.428710938 m 0xe780
 90.73046875 241.969726562 84.9951171875 195.8515625 84.9951171875 157.3046875 c 0
 84.9951171875 51.115234375 129.283203125 -18.0009765625 226.398196593 -18.0009765625 c 0
 226.508095529 -28.0009765625 226.617994464 -28.0009765625 226.7278934 -18.0009765625 c 2
 261.955212269 -19.0009765625 l 1
 262.835450412 -19.0009765625 l 2
 368.707898506 -19.0009765625 501.318234345 59.0537109375 559.311523438 300.328125 c 0
 571.064453125 349.375 576.057617188 390.107421875 576.057617188 423.6796875 c 0
 576.057617188 475.807617188 564.140625 510.030273438 547.229492188 533.43359375 c 2
 541.728515625 541.046875 l 1
 549.40234375 546.66796875 l 2
 560.305664062 554.654296875 573.639648438 559.999023438 590.286132812 559.999023438 c 0
 610.747070312 559.999023438 623.638671875 578.194335938 623.638671875 592.690429688 c 0
 623.638671875 597.032226562 622.477539062 600.435546875 620.684570312 602.729492188 c 0
 618.5703125 605.43359375 614.7421875 607.999023438 606.446289062 607.999023438 c 0xd380
 577.499023438 607.999023438 562.259765625 589.901367188 541.967773438 559.106445312 c 2
 536.046875 550.12109375 l 1
 527.310546875 556.671875 l 2
 503.935546875 574.201171875 473.112934144 580.506835938 445.422588956 580.506835938 c 0xcb80
 410.286329206 580.506835938 382.902654382 575.266601562 361.954870567 564.489257812 c 0
 336.015581756 551.14453125 318.271613583 528.76953125 307.627116662 492.69921875 c 0
 305.166427157 483.280273438 303.897879441 472.866210938 303.897879441 464.926757812 c 0
 303.897879441 442.4140625 312.307764669 428.958007812 329.455138619 420.2578125 c 0
 343.639427929 413.060546875 365.289518275 408.999023438 394.853378654 408.999023438 c 0
 401.913076957 408.999023438 405.499968889 410.28125 411.507777378 412.918945312 c 0
 463.893983418 435.919921875 484.013861916 467.108398438 510.454101562 503.838867188 c 1
 513.829101562 479.82421875 517.40625 457.30078125 517.40625 429.32421875 c 0
 517.40625 391.061523438 511.879882812 346.9296875 500.372056841 299.4375 c 0
 479.842935639 219.198242188 447.032346701 137.327148438 402.850881209 79.427734375 c 0
 367.692641671 33.3544921875 324.067997453 1 272.21977287 1 c 2
 271.313368314 1 l 2
 260.0932103 0.6669921875 248.87200563 0.333984375 237.650800959 0.0009765625 c 2
 237.477055975 0.0009765625 l 2
 164.322265625 0.0009765625 141.41015625 68.3095703125 141.41015625 146.11328125 c 0
 141.41015625 193.672851562 149.505859375 247.908203125 162.3125 301.40625 c 0
 181.37109375 380.848632812 212.140641326 462.0703125 251.919869448 519.497070312 c 0
 283.337358544 564.853515625 320.723929836 598 363.749886518 598 c 0
 373.916061405 598 380.509997551 606.688476562 380.509997551 613.25 c 0
 380.509997551 615.099609375 379.980389347 616.129882812 379.624526126 616.5546875 c 0
 379.322042389 616.916015625 378.46483069 618 374.212265203 618 c 0
 358.573123315 618 341.124312284 615.119140625 322.921908551 608.903320312 c 0
 276.79994185 596.103515625 215.776726115 569.712890625 168.065429688 569.712890625 c 0
 151.924804688 569.712890625 136.262695312 572.956054688 122.678710938 581.697265625 c 0
 121.200195312 582.663085938 119.893554688 583.001953125 118.501953125 583.001953125 c 0
 116.100585938 583.001953125 112.576171875 581.69140625 109.451171875 579.005859375 c 0
 105.473632812 575.588867188 103.331054688 570.856445312 103.331054688 568.349609375 c 0
 103.331054688 566.791992188 103.49609375 566.02734375 105.489257812 564.713867188 c 0
 116.861328125 557.653320312 130.530273438 554.627929688 146.484375 554.627929688 c 0
 178.903320312 554.627929688 224.719359517 568.9375 257.782192679 577.59375 c 1
 231.166763749 551.868164062 l 2
 179.504882812 500.1640625 133.442382812 420.693359375 103.745117188 296.428710938 c 0xe780
506.26171875 505.752929688 m 1
 480.213452051 476.453125 448.739443503 449.205078125 396.927851899 428 c 0
 396.044473787 428 395.161095674 428 394.277717562 428 c 0
 379.356582054 428 367.538783161 432.51953125 360.889374219 441.205078125 c 0
 355.802623477 447.849609375 354.475462996 455.45703125 354.475462996 462.692382812 c 0
 354.475462996 475.673828125 358.217260095 490.079101562 361.496435007 500.86328125 c 0
 364.81433621 511.778320312 368.437861121 524.305664062 376.750407291 535.436523438 c 0
 387.463983544 549.782226562 405.914444875 560 435.209314525 560 c 0xcb80
 468.537998447 560 491.510015992 539.556640625 504.248046875 510.637695312 c 2
 506.26171875 505.752929688 l 1
EndSplineSet
Validated: 524297
EndChar

StartChar: ltr120
Encoding: 120 120 27
Width: 544
GlyphClass: 2
Flags: W
HStem: -18.7061 15.6162<364.825 422.51>
VStem: 422.51 68.8057<-2.76501 239.271>
LayerCount: 2
Fore
SplineSet
139.135742188 -16.4404296875 m 0
 166.719726562 -8.3662109375 195.719743598 -5.638671875 226.729592216 -5.638671875 c 0
 297.010275524 -5.638671875 365.489674757 -18.7060546875 428.4609375 -18.7060546875 c 0
 436.62890625 -18.7060546875 444.848632812 -18.494140625 453.305664062 -18.009765625 c 0
 472.206054688 -17.2861328125 491.315429688 2.287109375 491.315429688 18.97265625 c 0
 491.315429688 19.1279296875 491.313476562 19.2705078125 491.311523438 19.3974609375 c 0
 485.53515625 260.884765625 451.388671875 401.266601562 423.87109375 601.376953125 c 0
 422.345703125 610.3515625 414.934570312 615.66015625 402.422851562 615.66015625 c 0
 388.99609375 615.66015625 373.67578125 608.255859375 365.997925422 594.916015625 c 0
 262.937806772 421.369140625 200.031676656 263.963867188 72.1728515625 106.567382812 c 0
 65.6748046875 98.3544921875 63.5927734375 91.349609375 63.5927734375 85.9697265625 c 0
 63.5927734375 74.8427734375 72.9033203125 66.353515625 86.125 66.353515625 c 0
 95.1484375 66.353515625 106.174804688 70.53515625 115.958007812 82.8955078125 c 0
 209.341954423 195.838867188 264.271281634 306.975585938 311.575755863 402.8125 c 0
 331.557111564 443.294921875 350.079296002 480.517578125 370.423531747 514.8828125 c 2
 384.954101562 542.176757812 l 1
 389.331054688 511.834960938 l 2
 406.27734375 394.362304688 417.66796875 241.873046875 422.305664062 8.21484375 c 0
 422.374023438 4.6630859375 422.44140625 1.111328125 422.509765625 -2.4404296875 c 1
 417.515625 -2.6962890625 412.899414062 -3.08984375 407.702148438 -3.08984375 c 0
 383.127929688 -3.08984375 353.807560555 6.927734375 320.818266875 17.24609375 c 0
 278.561322903 30.4638671875 231.980422739 44.82421875 184.892364922 44.82421875 c 0
 169.447265625 44.82421875 154.188476562 42.943359375 138.875976562 38.4443359375 c 0
 117.776367188 32.271484375 108.836914062 15.861328125 108.836914062 2.388671875 c 0
 108.836914062 -9.9296875 115.091796875 -18.19921875 128.05078125 -18.19921875 c 0
 131.13671875 -18.19921875 134.841796875 -17.697265625 139.135742188 -16.4404296875 c 0
EndSplineSet
Validated: 524297
EndChar

StartChar: ltr121
Encoding: 121 121 28
Width: 544
GlyphClass: 2
Flags: W
HStem: 424.002 18.001<429.649 467.921> 534.58 28.8838<140.721 229.155> 561.606 46.6494<612.634 672.165> 564.377 18.249<105.227 122.632> 599.006 18.9941<460.265 486.326>
VStem: 387.273 37.7695<449.133 554.776> 509.833 61.4015<548.102 598.744>
LayerCount: 2
Fore
SplineSet
547.725012037 616.844726562 m 0xa6
 545.840487313 617.442382812 544.666947097 618 541.900967898 618 c 2
 486.325678955 618 l 2
 468.269375057 617.62890625 451.452096791 609.78125 436.626406704 596.493164062 c 0
 406.790004247 569.749023438 387.273271647 521.84765625 387.273271647 482.973632812 c 0
 387.273271647 446.625976562 401.982543218 424.001953125 433.880177074 424.001953125 c 0
 439.003631217 424.001953125 446.187277308 425.493164062 452.564309396 427.426757812 c 2
 477.927954058 435.116210938 l 1
 465.185323842 413.134765625 l 2
 389.108942172 281.899414062 257.971799821 127.287109375 221.881835938 88.5556640625 c 2
 193.995117188 56.7822265625 l 1
 203.173828125 91.8876953125 208.217773438 111.368164062 219.3515625 149.989257812 c 0
 250.449292693 252.1875 311.849665225 453.328125 313.658310023 591.19140625 c 1
 313.658310023 592.360351562 l 2
 314.131260243 594.250976562 314.562632422 596.5859375 314.562632422 598.600585938 c 0
 314.562632422 602.825195312 313.045033914 605.7890625 311.397504026 608.927734375 c 0
 308.20223155 615.01171875 302.384424117 618.372070312 290.803900156 618.372070312 c 0
 285.428898863 618.372070312 280.007122274 616.724609375 274.004292557 614.09375 c 0
 264.967305274 610.131835938 257.879288679 603.830078125 253.094695573 595.8203125 c 1
 236.79402447 580.701171875 212.145507812 563.463867188 179.700195312 563.463867188 c 0
 162.426757812 563.463867188 142.322265625 568.518554688 122.6328125 581.353515625 c 0
 121.15234375 582.318359375 119.879882812 582.625976562 118.501953125 582.625976562 c 0
 116.099609375 582.625976562 112.575195312 581.317382812 109.450195312 578.638671875 c 0
 105.47265625 575.229492188 103.331054688 570.5078125 103.331054688 568.0078125 c 0
 103.331054688 566.451171875 103.49609375 565.69140625 105.49609375 564.376953125 c 0
 139.908203125 542.9296875 192.802734375 537.1875 201.174804688 534.580078125 c 1xde
 217.33984375 534.580078125 232.782782933 537.952148438 247.37771489 540.875976562 c 1
 245.824775046 527.514648438 l 2
 227.642697573 371.075195312 150.053710938 165.216796875 109.904296875 9.3095703125 c 0
 109.32421875 7.06640625 109.0625 4.9638671875 109.0625 3.2109375 c 0
 109.0625 -7.2919921875 118.232421875 -15.4248046875 132.689453125 -15.4248046875 c 0
 141.962890625 -15.4248046875 152.1015625 -11.62890625 159.875 -2.7568359375 c 0
 275.448090042 122.215820312 467.63842828 345.525390625 542.632741425 493.340820312 c 1
 563.2109375 510.913085938 585.268554688 531.161132812 604.36328125 544.395507812 c 0
 617.40234375 553.431640625 630.080078125 560.321289062 643.163085938 561.606445312 c 0
 663.284179688 563.623046875 673.900390625 579.8671875 673.900390625 592.944335938 c 0
 673.900390625 602.365234375 669.892578125 608.255859375 658.122070312 608.255859375 c 0
 657.049804688 608.255859375 655.87890625 608.1953125 654.61328125 608.061523438 c 0
 637.23828125 606.262695312 612.037109375 588.67578125 587.28515625 565.615234375 c 2
 568.046875 547.692382812 l 1
 570.516601562 573.880859375 l 2
 570.8984375 577.936523438 571.234375 582.479492188 571.234375 586.029296875 c 0
 571.234375 593.990234375 570.120117188 600.680664062 568.106445312 606.036132812 c 0
 564.759765625 614.404296875 555.408203125 614.6171875 551.720661808 617.020507812 c 0
 551.170792212 617.020507812 550.60533085 617.004882812 550.024277722 616.971679688 c 0
 549.258202311 616.9296875 548.491087448 616.88671875 547.725012037 616.844726562 c 0xa6
466.59170109 449.971679688 m 0
 459.476658767 445.512695312 452.164120749 442.002929688 443.769514204 442.002929688 c 2
 442.69887964 442.002929688 l 2
 436.9236897 442.002929688 432.027875333 445.275390625 429.5300745 448.8359375 c 0
 425.091618588 455.161132812 425.04276439 462.0546875 425.04276439 468.686523438 c 0
 425.04276439 468.834960938 425.04276439 468.983398438 425.04276439 469.131835938 c 0
 425.04276439 500.07421875 439.40901712 559.490234375 455.9882611 584.506835938 c 0
 459.663759953 590.051757812 465.000301558 597.587890625 474.995662693 597.986328125 c 0
 482.713586615 598.911132812 496.527890846 599.005859375 499.322974675 599.005859375 c 0
 499.648322848 599.005859375 499.818792818 599.002929688 499.818792818 599.002929688 c 1
 512.007395633 599.002929688 l 1
 511.20909724 593.483398438 509.832864072 587.466796875 509.832864072 581.62109375 c 0
 509.832864072 578.43359375 510.770448904 575.21875 512.111340736 571.805664062 c 0
 514.949042057 564.581054688 516.129858431 556.696289062 516.129858431 548.33203125 c 0
 516.129858431 527.072265625 508.075152374 501.1953125 496.619362537 474.459960938 c 1
 486.337112917 464.895507812 476.003930196 455.870117188 466.59170109 449.971679688 c 0
EndSplineSet
Validated: 524297
EndChar

StartChar: ltr122
Encoding: 122 122 29
Width: 494
GlyphClass: 2
Flags: W
HStem: -18.001 20<102.363 267.285> 182.722 43.3213<463.871 533.103> 198.371 16.3877<185.596 307> 451.413 37.7734<317.401 460.422>
VStem: 38.3975 46.749<8.949 95.6505>
LayerCount: 2
Fore
SplineSet
191.76488466 192.6328125 m 0xb8
 206.530563082 196.529296875 222.003052722 198.37109375 237.421498326 198.37109375 c 0xb8
 285.978475264 198.37109375 338.608888965 182.760742188 383.058519157 173.981445312 c 2
 393.723208955 171.875 l 1
 389.127346509 154.614257812 384.532543751 137.354492188 379.936681305 120.09375 c 0
 366.905710474 71.1484375 344.805938442 38.419921875 297.779149508 20.6875 c 0
 260.818327225 6.7490234375 210.300929368 1.9990234375 139.461914062 1.9990234375 c 2
 138.461914062 1.9990234375 l 2
 122.958984375 1.9990234375 111.015625 4.45703125 101.935546875 9.8388671875 c 0
 90.1484375 16.826171875 85.146484375 28.439453125 85.146484375 39.9033203125 c 0
 85.146484375 63.3212890625 101.395507812 87.6015625 110.080078125 100.202148438 c 0
 115.53125 108.112304688 117.349609375 114.811523438 117.349609375 119.836914062 c 0
 117.349609375 130.90234375 108.428710938 139.1875 95.2412109375 139.1875 c 0
 85.4423828125 139.1875 73.4521484375 134.239257812 63.580078125 119.719726562 c 0
 48.0634765625 97.509765625 38.3974609375 71.0810546875 38.3974609375 48.21484375 c 0
 38.3974609375 27.82421875 45.5126953125 10.43359375 62.625 -1.5673828125 c 0
 76.51171875 -11.3076171875 98.07421875 -18.0009765625 129.764648438 -18.0009765625 c 0
 217.981540622 -18.0009765625 284.015934972 -15.3828125 332.113007759 2.0927734375 c 0
 391.27321265 22.6689453125 426.091796875 64.84765625 449.819335938 159.821289062 c 2
 451.541015625 166.711914062 l 1
 476.383789062 168.166015625 495.3359375 171.291992188 516.833984375 182.721679688 c 0
 529.34765625 190.56640625 533.361328125 199.987304688 533.361328125 207.678710938 c 0
 533.361328125 218.299804688 526.014648438 226.04296875 515.5078125 226.04296875 c 0xd8
 510.477539062 226.04296875 504.787109375 223.814453125 497.3046875 219.602539062 c 0
 485.532226562 212.975585938 473.446289062 208.568359375 460.724609375 203.357421875 c 1
 530.295898438 499.977539062 l 2
 531.134765625 503.329101562 531.48046875 506.271484375 531.48046875 508.73828125 c 0
 531.48046875 519.567382812 525.8359375 524.516601562 516.34765625 526.596679688 c 0
 514.0546875 527.3203125 511.381835938 527.833007812 508.668945312 527.833007812 c 0
 502.525390625 527.833007812 495.509765625 525.532226562 487.368164062 519.8984375 c 0
 485.547851562 518.639648438 483.905273438 517.124023438 482.194335938 515.6796875 c 0
 459.419921875 496.455078125 429.890625 489.186523438 397.210638816 489.186523438 c 0
 294.3362265 489.186523438 166.126817792 553.341796875 121.631835938 591.614257812 c 0
 120.051757812 592.899414062 117.595703125 593.072265625 117.057617188 593.266601562 c 0
 110.434570312 593.266601562 102.111328125 584.462890625 102.111328125 579.37109375 c 0
 102.111328125 577.85546875 102.571289062 576.983398438 104.379882812 575.387695312 c 0
 154.203125 531.440429688 312.248115574 451.413085938 428.374023438 451.413085938 c 0
 439.747070312 451.413085938 450.5390625 452.56640625 461.12109375 453.501953125 c 1
 401.048825069 199.409179688 l 1
 376.055047886 200.9453125 352.817172034 203.702148438 328.606503532 206.973632812 c 0
 299.58379644 210.89453125 270.716863334 214.758789062 242.257909717 214.758789062 c 0
 222.581641815 214.758789062 203.115191936 212.920898438 183.789680426 208.04296875 c 0
 176.875222861 204.250976562 175.088590608 199.595703125 175.088590608 196.237304688 c 0
 175.088590608 191.763671875 177.549183783 189.475585938 181.703156756 189.475585938 c 0
 183.710203902 189.475585938 188.043263976 190.741210938 191.76488466 192.6328125 c 0xb8
EndSplineSet
Validated: 524297
EndChar

StartChar: ltr48
Encoding: 48 48 30
Width: 462
GlyphClass: 2
Flags: W
HStem: 542 198<239.341 273.843 284.131 311.647>
VStem: 207.315 143.342
LayerCount: 2
Fore
SplineSet
208.083984375 590.51953125 m 2
 207.551757812 588.216796875 207.315429688 586.047851562 207.315429688 584.048828125 c 0
 207.315429688 558.27734375 215.479492188 542 228.130859375 542 c 2
 284.130859375 542 l 2
 300.211914062 542 318.40625 566.145507812 322.646484375 595.48046875 c 2
 349.888671875 713.48046875 l 2
 350.420898438 715.783203125 350.657226562 717.952148438 350.657226562 719.952148438 c 0
 350.657226562 731.783203125 343.03125 740 329.842773438 740 c 2
 273.842773438 740 l 2
 257.416015625 740 239.236328125 725.458007812 235.326171875 708.51953125 c 2
 208.083984375 590.51953125 l 2
EndSplineSet
Validated: 524297
EndChar

StartChar: ltr49
Encoding: 49 49 31
Width: 464
GlyphClass: 2
Flags: W
HStem: 542 198<239.341 273.843 284.131 311.832 410.052 444.843 456.131 483.647>
LayerCount: 2
Fore
SplineSet
378.145507812 590.473632812 m 2
 377.604492188 588.18359375 377.365234375 586.030273438 377.365234375 584.048828125 c 0
 377.365234375 558.615234375 385.618164062 542 398.840820312 542 c 2
 456.130859375 542 l 2
 472.211914062 542 490.40625 566.145507812 494.646484375 595.48046875 c 2
 521.888671875 713.48046875 l 2
 522.420898438 715.783203125 522.657226562 717.952148438 522.657226562 719.952148438 c 0
 522.657226562 731.783203125 515.03125 740 501.842773438 740 c 2
 444.842773438 740 l 2
 428.3828125 740 409.9609375 725.396484375 405.971679688 708.473632812 c 2
 378.145507812 590.473632812 l 2
208.083984375 590.51953125 m 2
 207.551757812 588.216796875 207.315429688 586.047851562 207.315429688 584.048828125 c 0
 207.315429688 558.27734375 215.479492188 542 228.130859375 542 c 2
 284.130859375 542 l 2
 300.243164062 542 318.65234375 566.227539062 322.98046875 595.526367188 c 2
 350.805664062 713.526367188 l 2
 351.346679688 715.81640625 351.5859375 717.969726562 351.5859375 719.952148438 c 0
 351.5859375 731.606445312 343.87109375 740 330.111328125 740 c 2
 273.842773438 740 l 2
 257.416015625 740 239.236328125 725.458007812 235.326171875 708.51953125 c 2
 208.083984375 590.51953125 l 2
EndSplineSet
Validated: 524297
EndChar

StartChar: ltr50
Encoding: 50 50 32
Width: 464
GlyphClass: 2
Flags: W
HStem: 542 198<239.341 273.843 284.131 311.832 410.052 444.843 456.131 483.647>
LayerCount: 2
Fore
SplineSet
323.283203125 357.48046875 m 2
 322.750976562 355.177734375 322.5234375 353.047851562 322.5234375 351.047851562 c 0
 322.5234375 339.348632812 330.166992188 331 343.895507812 331 c 2
 402.1171875 331 l 2
 418.799804688 331 436.948242188 345.559570312 440.854492188 362.48046875 c 2
 467.866210938 479.48046875 l 2
 468.3984375 481.783203125 468.634765625 483.952148438 468.634765625 485.951171875 c 0
 468.634765625 497.783203125 461.0078125 506 447.819335938 506 c 2
 390.3515625 506 l 2
 373.319335938 506 354.758789062 491.301757812 350.791015625 474.473632812 c 2
 323.283203125 357.48046875 l 2
378.145507812 590.473632812 m 2
 377.604492188 588.18359375 377.365234375 586.030273438 377.365234375 584.048828125 c 0
 377.365234375 558.615234375 385.618164062 542 398.840820312 542 c 2
 456.130859375 542 l 2
 472.211914062 542 490.40625 566.145507812 494.646484375 595.48046875 c 2
 521.888671875 713.48046875 l 2
 522.420898438 715.783203125 522.657226562 717.952148438 522.657226562 719.952148438 c 0
 522.657226562 731.783203125 515.03125 740 501.842773438 740 c 2
 444.842773438 740 l 2
 428.3828125 740 409.9609375 725.396484375 405.971679688 708.473632812 c 2
 378.145507812 590.473632812 l 2
208.083984375 590.51953125 m 2
 207.551757812 588.216796875 207.315429688 586.047851562 207.315429688 584.048828125 c 0
 207.315429688 558.27734375 215.479492188 542 228.130859375 542 c 2
 284.130859375 542 l 2
 300.243164062 542 318.65234375 566.227539062 322.98046875 595.526367188 c 2
 350.805664062 713.526367188 l 2
 351.346679688 715.81640625 351.5859375 717.969726562 351.5859375 719.952148438 c 0
 351.5859375 731.606445312 343.87109375 740 330.111328125 740 c 2
 273.842773438 740 l 2
 257.416015625 740 239.236328125 725.458007812 235.326171875 708.51953125 c 2
 208.083984375 590.51953125 l 2
EndSplineSet
Validated: 524297
EndChar

StartChar: ltr51
Encoding: 51 51 33
Width: 464
GlyphClass: 2
Flags: W
HStem: 542 176<239.341 273.843 284.131 318.901 410.052 444.843 456.131 490.632>
LayerCount: 2
Fore
SplineSet
269.499023438 113.51953125 m 2
 268.966796875 111.216796875 268.73046875 109.047851562 268.73046875 107.048828125 c 0
 268.73046875 95.216796875 276.357421875 87 289.545898438 87 c 2
 347.171875 87 l 2
 364.204101562 87 382.764648438 101.698242188 386.732421875 118.526367188 c 2
 414.079101562 235.5078125 l 2
 414.611328125 237.809570312 414.841796875 239.952148438 414.841796875 241.952148438 c 0
 414.841796875 253.721679688 407.307617188 262 393.627929688 262 c 2
 335.407226562 262 l 2
 318.540039062 262 300.4140625 247.427734375 296.510742188 230.51953125 c 2
 269.499023438 113.51953125 l 2
323.283203125 346.48046875 m 2
 322.750976562 344.177734375 322.5234375 342.047851562 322.5234375 340.047851562 c 0
 322.5234375 328.348632812 330.166992188 320 343.895507812 320 c 2
 402.1171875 320 l 2
 418.799804688 320 436.948242188 334.559570312 440.854492188 351.48046875 c 2
 467.866210938 468.48046875 l 2
 468.3984375 470.783203125 468.634765625 472.952148438 468.634765625 474.951171875 c 0
 468.634765625 486.783203125 461.0078125 495 447.819335938 495 c 2
 390.3515625 495 l 2
 373.319335938 495 354.758789062 480.301757812 350.791015625 463.473632812 c 2
 323.283203125 346.48046875 l 2
378.145507812 568.473632812 m 2
 377.604492188 566.18359375 377.365234375 564.030273438 377.365234375 562.048828125 c 0
 377.365234375 550.393554688 385.081054688 542 398.840820312 542 c 2
 456.130859375 542 l 2
 472.557617188 542 490.736328125 556.541992188 494.646484375 573.48046875 c 2
 521.888671875 691.48046875 l 2
 522.420898438 693.783203125 522.657226562 695.952148438 522.657226562 697.952148438 c 0
 522.657226562 709.783203125 515.03125 718 501.842773438 718 c 2
 444.842773438 718 l 2
 428.3828125 718 409.9609375 703.396484375 405.971679688 686.473632812 c 2
 378.145507812 568.473632812 l 2
208.083984375 568.51953125 m 2
 207.551757812 566.216796875 207.315429688 564.047851562 207.315429688 562.048828125 c 0
 207.315429688 550.216796875 214.942382812 542 228.130859375 542 c 2
 284.130859375 542 l 2
 300.586914062 542 318.98828125 556.59765625 322.979492188 573.526367188 c 2
 350.805664062 691.526367188 l 2
 351.346679688 693.81640625 351.5859375 695.969726562 351.5859375 697.952148438 c 0
 351.5859375 709.606445312 343.87109375 718 330.111328125 718 c 2
 273.842773438 718 l 2
 257.416015625 718 239.236328125 703.458007812 235.326171875 686.51953125 c 2
 208.083984375 568.51953125 l 2
EndSplineSet
Validated: 524297
EndChar

StartChar: ltr52
Encoding: 52 52 34
Width: 484
GlyphClass: 2
Flags: W
HStem: 564 154<426.281 464.843 476.131 514.253>
LayerCount: 2
Fore
SplineSet
393.849558476 573.048828125 m 0
 393.849558476 567.887695312 402.396107776 564 418.372673806 564 c 2
 476.130859375 564 l 2
 492.693359375 564 510.791992188 574.745117188 514.65625 587.040039062 c 2
 541.889648438 702.485351562 l 2
 542.421875 704.787109375 542.657226562 706.952148438 542.657226562 708.952148438 c 0
 542.657226562 714.166015625 535.313476562 718 521.842773438 718 c 2
 464.842773438 718 l 2
 448.219726562 718 429.98828125 708.364257812 426.087890625 697.434570312 c 2
 394.743912342 581.993164062 l 2
 394.114593985 578.7890625 393.849558476 575.841796875 393.849558476 573.048828125 c 0
153.5234375 340.047851562 m 0
 153.5234375 334.833984375 160.8671875 331 174.337890625 331 c 2
 230.337890625 331 l 2
 246.918945312 331 265.161132812 341.7890625 269.076171875 354.099609375 c 2
 363.232882067 702.510742188 l 2
 363.853177938 704.805664062 364.128363743 706.962890625 364.128363743 708.952148438 c 0
 364.128363743 714.112304688 355.582942254 718 339.606376224 718 c 2
 274.054636328 718 l 2
 257.217773438 718 239.161132812 708.387695312 235.313476562 697.463867188 c 2
 154.291992188 348.993164062 l 2
 153.751953125 345.793945312 153.5234375 342.84375 153.5234375 340.047851562 c 0
EndSplineSet
Validated: 524297
EndChar

StartChar: ltr53
Encoding: 53 53 35
Width: 484
GlyphClass: 2
Flags: W
HStem: 564 154<426.281 464.843 476.131 514.253>
LayerCount: 2
Fore
SplineSet
330.881632838 340.047851562 m 0
 330.881632838 334.887695312 339.427054327 331 355.403620357 331 c 2
 422.126027734 331 l 2
 438.922851562 331 457.002929688 341.75390625 460.864257812 354.040039062 c 2
 487.866210938 471.012695312 l 2
 488.390625 472.40625 488.634765625 473.75 488.634765625 474.951171875 c 0
 488.634765625 493.651367188 480.735351562 506 467.819335938 506 c 2
 408.643051108 506 l 2
 389.383428201 506 368.018182763 487.59765625 363.407692721 466.03515625 c 2
 331.778242325 348.993164062 l 2
 331.147796158 345.791015625 330.881632838 342.840820312 330.881632838 340.047851562 c 0
393.849558476 573.048828125 m 0
 393.849558476 567.887695312 402.396107776 564 418.372673806 564 c 2
 476.130859375 564 l 2
 492.693359375 564 510.791992188 574.745117188 514.65625 587.040039062 c 2
 541.889648438 702.485351562 l 2
 542.421875 704.787109375 542.657226562 706.952148438 542.657226562 708.952148438 c 0
 542.657226562 714.166015625 535.313476562 718 521.842773438 718 c 2
 464.842773438 718 l 2
 448.219726562 718 429.98828125 708.364257812 426.087890625 697.434570312 c 2
 394.743912342 581.993164062 l 2
 394.114593985 578.7890625 393.849558476 575.841796875 393.849558476 573.048828125 c 0
153.5234375 340.047851562 m 0
 153.5234375 334.833984375 160.8671875 331 174.337890625 331 c 2
 230.337890625 331 l 2
 246.918945312 331 265.161132812 341.7890625 269.076171875 354.099609375 c 2
 363.232882067 702.510742188 l 2
 363.853177938 704.805664062 364.128363743 706.962890625 364.128363743 708.952148438 c 0
 364.128363743 714.112304688 355.582942254 718 339.606376224 718 c 2
 274.054636328 718 l 2
 257.217773438 718 239.161132812 708.387695312 235.313476562 697.463867188 c 2
 154.291992188 348.993164062 l 2
 153.751953125 345.793945312 153.5234375 342.84375 153.5234375 340.047851562 c 0
EndSplineSet
Validated: 524297
EndChar

StartChar: ltr54
Encoding: 54 54 36
Width: 484
GlyphClass: 2
Flags: W
HStem: 98 164<305.119 345.675 359.159 403.947>
LayerCount: 2
Fore
SplineSet
268.73046875 107.048828125 m 0
 268.73046875 101.874023438 276.482812713 98 292.435694719 98 c 2
 359.159229907 98 l 2
 378.73012856 98 399.912668668 108.8359375 404.417144507 121.098632812 c 2
 434.078125 235.501953125 l 2
 434.610351562 237.8046875 434.841796875 239.952148438 434.841796875 241.952148438 c 0
 434.841796875 253.744140625 427.274414062 262 412.398660658 262 c 2
 345.67512547 262 l 2
 326.2609925 262 304.985971916 247.358398438 300.428488976 230.490234375 c 2
 269.4921875 115.993164062 l 2
 268.953125 112.780273438 268.73046875 109.854492188 268.73046875 107.048828125 c 0
330.881632838 340.047851562 m 0
 330.881632838 328.329101562 339.754119423 320 355.403620357 320 c 2
 422.126027734 320 l 2
 438.787109375 320 456.947265625 334.553710938 460.854492188 351.48046875 c 2
 487.866210938 468.48046875 l 2
 488.3984375 470.783203125 488.634765625 472.952148438 488.634765625 474.951171875 c 0
 488.634765625 486.783203125 481.0078125 495 467.819335938 495 c 2
 408.643051108 495 l 2
 389.228918139 495 367.955025365 480.358398438 363.397542425 463.490234375 c 2
 331.778242325 346.490234375 l 2
 331.156818643 344.196289062 330.881632838 342.037109375 330.881632838 340.047851562 c 0
393.849558476 573.048828125 m 0
 393.849558476 554.514648438 403.03783205 542 418.372673806 542 c 2
 476.130859375 542 l 2
 492.421875 542 510.682617188 560.293945312 514.63671875 581.965820312 c 2
 541.888671875 700.006835938 l 2
 542.427734375 703.205078125 542.657226562 706.157226562 542.657226562 708.952148438 c 0
 542.657226562 714.166015625 535.313476562 718 521.842773438 718 c 2
 464.842773438 718 l 2
 448.259765625 718 430.004882812 707.208007812 426.090820312 694.900390625 c 2
 394.745040153 576.928710938 l 2
 394.133766767 575.5546875 393.849558476 574.23046875 393.849558476 573.048828125 c 0
153.5234375 340.047851562 m 0
 153.5234375 328.216796875 161.149414062 320 174.337890625 320 c 2
 230.337890625 320 l 2
 246.783203125 320 265.104492188 334.578125 269.06640625 351.509765625 c 2
 363.232882067 700.006835938 l 2
 363.862200424 703.208984375 364.128363743 706.158203125 364.128363743 708.952148438 c 0
 364.128363743 714.112304688 355.582942254 718 339.606376224 718 c 2
 274.054636328 718 l 2
 257.2578125 718 239.177734375 707.24609375 235.31640625 694.959960938 c 2
 154.291992188 346.517578125 l 2
 153.759765625 344.215820312 153.5234375 342.047851562 153.5234375 340.047851562 c 0
EndSplineSet
Validated: 524297
EndChar

StartChar: ltr55
Encoding: 55 55 37
Width: 484
GlyphClass: 2
Flags: W
VStem: 395.164 119.472<547.879 603.595>
LayerCount: 2
Fore
SplineSet
395.164392171 573.048828125 m 0
 395.164392171 554.470703125 403.972975843 542 418.595809739 542 c 2
 476.130859375 542 l 2
 492.421875 542 510.682617188 560.293945312 514.63671875 581.965820312 c 2
 541.888671875 700.006835938 l 2
 542.427734375 703.205078125 542.657226562 706.157226562 542.657226562 708.952148438 c 0
 542.657226562 714.166015625 535.313476562 718 521.842773438 718 c 2
 464.842773438 718 l 2
 448.264648438 718 430.051757812 707.220703125 426.151367188 694.916992188 c 2
 396.023475537 576.944335938 l 2
 395.437392181 575.564453125 395.164392171 574.236328125 395.164392171 573.048828125 c 0
99.73046875 107.048828125 m 0
 99.73046875 101.833984375 107.075195312 98 120.545898438 98 c 2
 176.545898438 98 l 2
 193.122070312 98 211.325195312 108.77734375 215.2265625 121.083007812 c 2
 365.780057706 700.006835938 l 2
 366.383474396 703.208984375 366.638057739 706.158203125 366.638057739 708.952148438 c 0
 366.638057739 714.126953125 358.44697409 718 343.207723504 718 c 2
 280.466471088 718 l 2
 261.782220369 718 241.505469588 707.1875 237.189469422 694.916992188 c 2
 100.498046875 115.993164062 l 2
 99.958984375 112.791992188 99.73046875 109.84375 99.73046875 107.048828125 c 0
EndSplineSet
Validated: 524297
EndChar

StartChar: ltr56
Encoding: 56 56 38
Width: 484
GlyphClass: 2
Flags: W
LayerCount: 2
Fore
SplineSet
334.897473184 340.047851562 m 0
 334.897473184 328.299804688 343.402723511 320 358.327807419 320 c 2
 422.189226544 320 l 2
 438.78125 320 456.946289062 334.55078125 460.854492188 351.48046875 c 2
 487.866210938 468.48046875 l 2
 488.3984375 470.783203125 488.634765625 472.952148438 488.634765625 474.951171875 c 0
 488.634765625 486.783203125 481.0078125 495 467.819335938 495 c 2
 409.283476048 495 l 2
 390.748725334 495 370.386391217 480.384765625 366.019474382 463.498046875 c 2
 335.755473217 346.498046875 l 2
 335.160723194 344.201171875 334.897473184 342.040039062 334.897473184 340.047851562 c 0
395.164392171 573.048828125 m 0
 395.164392171 554.470703125 403.972975843 542 418.595809739 542 c 2
 476.130859375 542 l 2
 492.421875 542 510.682617188 560.293945312 514.63671875 581.965820312 c 2
 541.888671875 700.006835938 l 2
 542.427734375 703.205078125 542.657226562 706.157226562 542.657226562 708.952148438 c 0
 542.657226562 714.166015625 535.313476562 718 521.842773438 718 c 2
 464.842773438 718 l 2
 448.264648438 718 430.051757812 707.220703125 426.151367188 694.916992188 c 2
 396.023475537 576.944335938 l 2
 395.437392181 575.564453125 395.164392171 574.236328125 395.164392171 573.048828125 c 0
99.73046875 107.048828125 m 0
 99.73046875 101.833984375 107.075195312 98 120.545898438 98 c 2
 176.545898438 98 l 2
 193.122070312 98 211.325195312 108.77734375 215.2265625 121.083007812 c 2
 365.780057706 700.006835938 l 2
 366.383474396 703.208984375 366.638057739 706.158203125 366.638057739 708.952148438 c 0
 366.638057739 714.126953125 358.44697409 718 343.207723504 718 c 2
 280.466471088 718 l 2
 261.782220369 718 241.505469588 707.1875 237.189469422 694.916992188 c 2
 100.498046875 115.993164062 l 2
 99.958984375 112.791992188 99.73046875 109.84375 99.73046875 107.048828125 c 0
EndSplineSet
Validated: 524297
EndChar

StartChar: ltr57
Encoding: 57 57 39
Width: 484
GlyphClass: 2
Flags: W
HStem: 98 164<310.243 349.017 361.922 404.747>
LayerCount: 2
Fore
SplineSet
274.62838753 107.048828125 m 0
 274.62838753 101.873046875 282.821637846 98 298.060888432 98 c 2
 361.922307558 98 l 2
 380.60764161 98 400.882225724 108.8125 405.19822589 121.083007812 c 2
 434.077148438 235.497070312 l 2
 434.609375 237.799804688 434.841796875 239.952148438 434.841796875 241.952148438 c 0
 434.841796875 253.754882812 427.258789062 262 412.877976186 262 c 2
 349.016557061 262 l 2
 330.481806347 262 310.118388897 247.384765625 305.750388728 230.498046875 c 2
 275.486387563 115.993164062 l 2
 274.882970873 112.790039062 274.62838753 109.842773438 274.62838753 107.048828125 c 0
334.897473184 340.047851562 m 0
 334.897473184 328.299804688 343.402723511 320 358.327807419 320 c 2
 422.189226544 320 l 2
 438.78125 320 456.946289062 334.55078125 460.854492188 351.48046875 c 2
 487.866210938 468.48046875 l 2
 488.3984375 470.783203125 488.634765625 472.952148438 488.634765625 474.951171875 c 0
 488.634765625 486.783203125 481.0078125 495 467.819335938 495 c 2
 409.283476048 495 l 2
 390.748725334 495 370.386391217 480.384765625 366.019474382 463.498046875 c 2
 335.755473217 346.498046875 l 2
 335.160723194 344.201171875 334.897473184 342.040039062 334.897473184 340.047851562 c 0
395.164392171 573.048828125 m 0
 395.164392171 554.470703125 403.972975843 542 418.595809739 542 c 2
 476.130859375 542 l 2
 492.421875 542 510.682617188 560.293945312 514.63671875 581.965820312 c 2
 541.888671875 700.006835938 l 2
 542.427734375 703.205078125 542.657226562 706.157226562 542.657226562 708.952148438 c 0
 542.657226562 714.166015625 535.313476562 718 521.842773438 718 c 2
 464.842773438 718 l 2
 448.264648438 718 430.051757812 707.220703125 426.151367188 694.916992188 c 2
 396.023475537 576.944335938 l 2
 395.437392181 575.564453125 395.164392171 574.236328125 395.164392171 573.048828125 c 0
99.73046875 107.048828125 m 0
 99.73046875 101.833984375 107.075195312 98 120.545898438 98 c 2
 176.545898438 98 l 2
 193.122070312 98 211.325195312 108.77734375 215.2265625 121.083007812 c 2
 365.780057706 700.006835938 l 2
 366.383474396 703.208984375 366.638057739 706.158203125 366.638057739 708.952148438 c 0
 366.638057739 714.126953125 358.44697409 718 343.207723504 718 c 2
 280.466471088 718 l 2
 261.782220369 718 241.505469588 707.1875 237.189469422 694.916992188 c 2
 100.498046875 115.993164062 l 2
 99.958984375 112.791992188 99.73046875 109.84375 99.73046875 107.048828125 c 0
EndSplineSet
Validated: 524297
EndChar

StartChar: ltr33
Encoding: 33 33 41
Width: 340
GlyphClass: 2
Flags: W
LayerCount: 2
Fore
SplineSet
124.758964068 227.393896637 m 0
 124.758964068 220.721867163 128.04686024 217.349316135 133.3764759 217.349316135 c 0
 135.518873139 217.349316135 138.624235737 217.93593841 142.597061232 219.85727487 c 2
 349.781231882 325.710591735 l 2
 365.662905019 334.681800364 371.007393816 346.797544443 371.007393816 356.741293892 c 0
 371.007393816 369.340642682 362.940185311 378.561988363 350.798434967 378.561988363 c 0
 345.85292258 378.561988363 339.491298181 377.028847879 331.962745755 372.632508193 c 0
 267.515923925 330.449235141 203.27832 288.056744184 138.699728112 246.005241191 c 1
 128.154428164 241.142061233 124.758964068 233.365512862 124.758964068 227.393896637 c 0
178.550956255 460.393896637 m 0
 178.550956255 453.721867163 181.838852428 450.349316135 187.168468088 450.349316135 c 0
 189.31086677 450.349316135 192.416232108 450.935939201 196.389061449 452.857278754 c 2
 403.574172947 558.710578021 l 2
 419.455318269 567.681675323 424.799681093 579.797261555 424.799681093 589.741041445 c 0
 424.799681093 602.340632638 416.7323789 611.561988363 404.590978353 611.561988363 c 0
 399.645603974 611.561988363 393.284136577 610.028866496 385.755748248 605.63253054 c 0
 321.308590455 563.449249234 257.070644074 521.056756516 192.4917203 479.005241191 c 1
 181.946420352 474.142061233 178.550956255 466.365512862 178.550956255 460.393896637 c 0
EndSplineSet
Validated: 524329
EndChar

StartChar: ltr34
Encoding: 34 34 42
Width: 340
GlyphClass: 2
Flags: W
LayerCount: 2
Fore
SplineSet
298.072753906 552.75 m 0
 310.986881976 552.75 325.516716841 559.803248877 332.353144464 573.037426581 c 0
 352.740408043 612.797877496 372.905243237 652.780756795 393.432041271 692.401673255 c 1
 397.762677742 698.438656021 399.039371928 703.340974577 399.039371928 706.815438684 c 0
 399.039371928 714.077537273 393.177979335 719.963167114 383.605784612 719.963167114 c 0
 377.064371409 719.963167114 368.943678032 716.911187973 361.774444352 707.578130789 c 0
 349.378386441 689.131397839 336.982328531 670.684664888 324.586270621 652.237931938 c 1
 320.445829589 671.925666841 316.305388558 691.613401744 312.164947526 711.301136648 c 0
 310.060088811 718.031390585 306.307080003 719.963167114 299.906822995 719.963167114 c 0
 286.417132918 719.963167114 270.387083623 706.977160906 270.387083623 693.737236857 c 0
 270.387083623 691.871250448 270.806369197 689.620351755 271.283339304 687.754430904 c 2
 277.119491213 568.545572764 l 2
 277.673806853 558.440449406 285.066751912 552.75 298.072753906 552.75 c 0
EndSplineSet
Validated: 524329
EndChar

StartChar: ltr35
Encoding: 35 35 43
Width: 340
GlyphClass: 2
Flags: HMW
LayerCount: 2
Fore
SplineSet
175.19140625 393 m 2
 348.19140625 393 l 2
 357.017318176 393 362.640314861 401.009382071 362.640314861 406.942876485 c 0
 362.640314861 408.611662135 362.192535449 409.477019087 361.953458367 409.781900774 c 0
 361.784894408 409.996861003 361.154408479 411 357.426757812 411 c 0
 337.176767644 411.117063225 316.92670318 411.234052155 296.676780784 411.351183153 c 1
 336.646616994 584.480770562 l 2
 337.345523031 587.507987515 337.633975746 590.165576321 337.633975746 592.441369245 c 0
 337.633975746 604.726266895 329.688366451 610.75 316.542480469 610.75 c 0
 301.008256835 610.75 282.917203689 600.454239501 278.08383419 579.519153352 c 2
 239.346428011 411.729763707 l 1
 231.390255746 411.729763707 l 1
 230.589810834 411.729763707 l 1
 184.591385365 412.00019333 l 2
 175.944041454 412.00019333 170.064274725 403.772213415 170.064274725 397.316461414 c 0
 170.064274725 395.525036745 170.541274392 394.556819106 170.804903722 394.213033422 c 0
 170.993996937 393.966446518 171.562562263 393 175.19140625 393 c 2
169.511724449 105.559338081 m 0
 169.511724449 93.2739293462 177.457726267 87.25 190.603759766 87.25 c 0
 206.137970945 87.25 224.228672811 97.545686624 229.061630657 118.480660538 c 2
 267.211009925 283.723936984 l 1
 275.167191926 283.723936984 l 1
 275.957988866 283.723936984 l 1
 322.961695155 283.9998078 l 2
 331.613368721 283.9998078 337.619683847 292.2342796 337.619683847 298.683043766 c 0
 337.619683847 300.474554555 337.142656446 301.442909049 336.878946082 301.786803534 c 0
 336.689751831 302.033524439 336.121083724 303 332.4921875 303 c 2
 159.4921875 303 l 2
 150.171015205 303 144.026507253 294.369808312 144.026507253 287.750234978 c 0
 144.026507253 285.887694 144.523893191 284.843908462 144.853115925 284.41937982 c 0
 145.12954969 284.0629219 145.889896475 283 149.795898438 283 c 0
 169.766212787 283.115225666 189.736452822 283.230525647 209.706836501 283.345681983 c 1
 170.498881304 113.519188225 l 2
 169.800084368 110.492202251 169.511724449 107.835025373 169.511724449 105.559338081 c 0
EndSplineSet
Validated: 524329
EndChar

StartChar: ltr36
Encoding: 36 36 44
Width: 362
GlyphClass: 2
Flags: W
HStem: 553.998 100.002<213.86 238.396 281.831 306.184> 580.61 19.9473<161.419 199.058 243.193 270.288> 592.988 9.76465<311.981 376.228>
VStem: 115.688 296.994
LayerCount: 2
Fore
SplineSet
179.115234375 599.4453125 m 0x90
 177.711914062 600.013671875 175.932617188 600.557617188 174.51171875 600.557617188 c 0
 167.728515625 600.557617188 159.495117188 591.204101562 159.495117188 584.619140625 c 0
 159.495117188 582.48828125 159.556640625 581.668945312 162.178710938 580.610351562 c 0x50
 174.221679688 578.25390625 186.162109375 577.534179688 199.370117188 576.80078125 c 1
 199.196289062 572.919921875 198.864257812 568.981445312 198.864257812 565.076171875 c 0
 198.864257812 557.55078125 203.107421875 553.998046875 211.901367188 553.998046875 c 0x90
 221.930664062 553.998046875 233.229492188 560.32421875 237.52734375 573.293945312 c 2
 239.512695312 579.282226562 l 1
 249.889648438 580.590820312 260.075195312 582.013671875 270.288085938 583.44921875 c 1
 267.279296875 569.4453125 l 2
 266.796875 567.200195312 266.40234375 564.305664062 266.40234375 563.076171875 c 0
 266.40234375 555.551757812 270.645507812 551.999023438 279.438476562 551.999023438 c 0
 289.9296875 551.999023438 302.3046875 559.001953125 305.646484375 573.479492188 c 0
 306.921875 579.002929688 308.196289062 584.526367188 309.471679688 590.049804688 c 1
 319.776367188 591.397460938 332.130859375 592.98828125 342.153320312 592.98828125 c 0
 355.359375 592.98828125 365.375 590.231445312 376.700195312 588.165039062 c 1
 372.01171875 583.248046875 367.323242188 578.330078125 362.634765625 573.413085938 c 0
 279.693359375 486.388671875 166.797851562 230.37890625 118.63671875 107.978515625 c 0
 116.50390625 102.655273438 115.6875 98.134765625 115.6875 94.6044921875 c 0
 115.6875 82.9765625 124.236328125 75.98046875 137.685546875 75.98046875 c 0
 150.740234375 75.98046875 165.834960938 83.5947265625 172.950195312 102.086914062 c 0
 176.993164062 112.129882812 181.037109375 122.172851562 185.078125 132.216796875 c 0
 234.483398438 255.24609375 318.845703125 467.077148438 402.149414062 555.64453125 c 0
 409.53515625 563.258789062 412.681640625 572.076171875 412.681640625 579.497070312 c 0
 412.681640625 589.920898438 407.352539062 597.322265625 397.345703125 599.185546875 c 0
 383.634765625 601.768554688 369.225585938 602.752929688 354.366210938 602.752929688 c 0x30
 340.454101562 602.752929688 325.608398438 601.750976562 311.981445312 600.916992188 c 1
 314.872070312 613.438476562 317.762695312 625.959960938 320.653320312 638.48046875 c 0
 321.143554688 640.604492188 321.334960938 642.422851562 321.334960938 643.921875 c 0
 321.334960938 651.447265625 317.091796875 655 308.297851562 655 c 0
 297.807617188 655 285.432617188 647.997070312 282.090820312 633.51953125 c 0
 279.319335938 621.513671875 276.546875 609.5078125 273.774414062 597.502929688 c 1
 263.493164062 596.739257812 253.109375 596.053710938 242.705078125 595.38671875 c 1
 245.943359375 609.41796875 249.182617188 623.44921875 252.421875 637.48046875 c 0
 252.912109375 639.603515625 253.103515625 641.423828125 253.103515625 642.922851562 c 0
 253.103515625 650.447265625 248.860351562 654 240.067382812 654 c 0
 229.577148438 654 217.202148438 646.997070312 213.859375 632.518554688 c 0
 211.03125 620.268554688 208.203125 608.017578125 205.375 595.767578125 c 1
 196.15234375 596.8203125 188.114257812 597.65625 179.115234375 599.4453125 c 0x90
EndSplineSet
Validated: 524297
EndChar

StartChar: ltr38
Encoding: 38 38 45
Width: 540
GlyphClass: 2
Flags: HMW
LayerCount: 2
Fore
SplineSet
441.218691036 573 m 1
 496.598525649 573 l 1
 360.405947 -12.4993386957 l 2
 359.915253372 -14.6246227162 359.728372301 -16.4245351187 359.728372301 -17.9235616919 c 0
 359.728372301 -25.4477320055 363.971178741 -29.0009765625 372.764892578 -29.0009765625 c 0
 383.255411314 -29.0009765625 395.630077505 -21.9981014659 398.972828994 -7.52003220786 c 0
 405.094431707 18.8050297482 418.842498972 45.1904254401 435.034261878 64.2998331487 c 0
 447.749583299 79.3063684204 462.731716564 91.3079804104 479.239463898 91.989529588 c 0
 499.690011058 92.8512962303 511.73744794 110.712216144 511.73744794 124.909408239 c 0
 511.73744794 129.269811414 510.585872337 132.706760308 508.865243206 134.980164156 c 0
 506.850859833 137.641694655 503.375038673 140.041072999 495.788674756 140.041072999 c 0
 481.660694791 140.041072999 464.604464223 132.782384357 446.578619208 119.957473758 c 2
 425.0649603 104.651076089 l 1
 534.006163152 573 l 1
 552.586791059 573 571.167418967 573 589.748046875 573 c 0
 598.573726718 573 604.196346535 581.008893966 604.196346535 586.942391144 c 0
 604.196346535 588.6112599 603.748539115 589.476751881 603.509380365 589.781740443 c 0
 603.340715379 589.996831431 602.710127047 591 598.982421875 591 c 2
 445.982421875 591 l 2
 445.108549823 591 444.413231426 591.007714423 443.832698337 591.007714423 c 0
 441.246578835 591.007714423 439.935251486 590.047848385 437.322191763 589.360607302 c 0
 436.658807743 589.186135687 432.040933668 586.031506382 426.550481804 576.83061982 c 0
 419.97287711 565.807885056 412.613032527 548.380088357 405.09198137 526.794326463 c 1
 409.008990628 536.890230424 413.454882004 545.597051293 417.84813319 552.757071916 c 0
 423.957688248 562.714284481 430.582680206 569.998356706 441.218691036 573 c 1
244.950539352 127.604053821 m 0
 244.950539352 243.022466838 259.406886606 419.416417231 296.63446907 584.427545043 c 0
 297.12503269 586.552490673 297.32807491 588.42674875 297.32807491 589.921874816 c 0
 297.32807491 597.446571128 293.084856479 601 284.291015625 601 c 0
 273.800514373 601 261.42623263 593.997224425 258.083868563 579.519302239 c 0
 219.611056456 409.108654261 198.084722342 226.457046878 198.084722342 60.4655042895 c 0
 198.084722342 36.4717122469 198.534167651 12.8270915869 199.44617129 -10.3799445178 c 0
 200.263968318 -20.7131868214 208.342182879 -26.9915381955 221.645453369 -26.9915381955 c 0
 233.055806935 -26.9915381955 246.055845343 -21.4218813336 254.241541765 -9.77003674016 c 0
 296.020409461 52.1729254732 328.545550643 202.626933754 356.240135587 332.077541046 c 0
 370.141454989 397.064420921 383.064969279 457.642292237 396.753837565 501.522054273 c 1
 382.172673352 455.152807543 366.831870243 395.758033489 351.516377958 336.020386417 c 0
 323.458720338 226.581886931 295.790622576 115.857957227 266.135642345 71.8627386134 c 0
 259.948814392 62.6841505248 253.761986439 53.5055624362 247.575158486 44.3269743476 c 1
 246.248594987 72.6051760606 244.950539352 96.3425901859 244.950539352 127.604053821 c 0
EndSplineSet
Validated: 524329
EndChar

StartChar: ltr39
Encoding: 39 39 46
Width: 201
GlyphClass: 2
Flags: HMW
LayerCount: 2
Fore
SplineSet
154.086618931 573.94812031 m 0
 154.086618931 567.493849487 158.839175419 562.827011007 168.048033091 562.827011007 c 0
 176.269185118 562.827011007 185.780636899 567.502260439 191.753016907 579.602516513 c 2
 249.98721577 697.587091774 l 2
 252.182423314 702.852088544 252.967651879 707.1862573 252.967651879 710.69916762 c 0
 252.967651879 721.965186011 244.454028062 729.115987879 230.941986347 729.115987879 c 0
 218.106275224 729.115987879 202.189486063 722.055272228 195.559533909 703.213386928 c 0
 181.726052097 663.899547019 169.924632824 623.71170352 156.8761809 584.191863199 c 0
 154.758212588 579.845348167 154.086618931 576.404828568 154.086618931 573.94812031 c 0
EndSplineSet
Validated: 524329
EndChar

StartChar: ltr40
Encoding: 40 40 47
Width: 340
GlyphClass: 2
Flags: HMW
LayerCount: 2
Fore
SplineSet
307.477363068 330 m 1
 230.718617056 -2.48077197111 l 2
 230.019711019 -5.50798892543 229.731258629 -8.16557626354 229.731258629 -10.4413692447 c 0
 229.731258629 -22.7262668954 237.676867924 -28.75 250.822753906 -28.75 c 0
 266.35697754 -28.75 284.448030686 -18.4542395012 289.281400185 2.48084664804 c 2
 450.888807206 702.480782308 l 2
 451.587713245 705.507999272 451.876163246 708.16557584 451.876163246 710.441369245 c 0
 451.876163246 722.726266895 443.930553951 728.75 430.784667969 728.75 c 0
 415.250444335 728.75 397.159391189 718.454239501 392.32602169 697.519153352 c 2
 316.250829449 368 l 1
 174.499023438 368 l 2
 158.166860987 368 147.690472835 353.230652467 147.690472835 341.499985611 c 0
 147.690472835 338.043798068 148.609563415 335.482571291 149.867552891 333.862310211 c 0
 151.308178823 332.006817638 153.994342966 330 160.646484375 330 c 2
 307.477363068 330 l 1
EndSplineSet
Validated: 524329
EndChar

StartChar: ltr41
Encoding: 41 41 48
Width: 340
GlyphClass: 2
Flags: HMW
LayerCount: 2
Fore
SplineSet
56.7312586288 -10.4413692447 m 0
 56.7312586288 -22.7262668954 64.6768679242 -28.75 77.8227539062 -28.75 c 0
 93.3569775401 -28.75 111.448030686 -18.4542395012 116.281400185 2.48084664804 c 2
 191.89467357 330 l 1
 333.646484375 330 l 2
 349.978646825 330 360.455034978 344.769347533 360.455034978 356.500014389 c 0
 360.455034978 359.956201932 359.535944397 362.517428709 358.277954921 364.137689789 c 0
 356.837328989 365.993182362 354.151164846 368 347.499023438 368 c 2
 200.668137159 368 l 1
 277.888806132 702.480777654 l 2
 278.58771217 705.507994614 278.876163246 708.16557603 278.876163246 710.441369245 c 0
 278.876163246 722.726266895 270.930553951 728.75 257.784667969 728.75 c 0
 242.250444335 728.75 224.159391189 718.454239501 219.32602169 697.519153352 c 2
 57.7186146692 -2.48078230756 l 2
 57.0197086299 -5.50799927195 56.7312586288 -8.16557583952 56.7312586288 -10.4413692447 c 0
EndSplineSet
Validated: 524329
EndChar

StartChar: ltr44
Encoding: 44 44 49
Width: 340
GlyphClass: 2
Flags: HMW
LayerCount: 2
Fore
SplineSet
99.7312586288 -10.4413692447 m 0
 99.7312586288 -22.7262668954 107.676867924 -28.75 120.822753906 -28.75 c 0
 136.35697754 -28.75 154.448030686 -18.4542395012 159.281400185 2.48084664804 c 2
 186.061651028 118.48074878 l 2
 186.76055706 121.507965712 187.049014809 124.165577215 187.049014809 126.441369245 c 0
 187.049014809 138.726266895 179.103405513 144.75 165.957519531 144.75 c 0
 150.423295897 144.75 132.332242751 134.454239501 127.498873252 113.519153352 c 2
 100.718622409 -2.48074878035 l 2
 100.019716378 -5.50796571205 99.7312586288 -8.16557721486 99.7312586288 -10.4413692447 c 0
EndSplineSet
Validated: 524329
EndChar

StartChar: ltr45
Encoding: 45 45 50
Width: 340
GlyphClass: 2
Flags: HMW
LayerCount: 2
Fore
SplineSet
414.24739338 589.499524288 m 0
 414.24739338 592.955800663 413.32827406 595.517153842 412.070213691 597.137516232 c 0
 410.642619839 598.976235139 407.992057549 600.963460653 401.471770417 600.999502329 c 2
 270.369217945 596.000736313 l 1
 270.175410739 596.000736313 l 2
 257.987805249 596.000736313 249.872957906 584.662713247 249.872957906 575.691945195 c 0
 249.872957906 573.111393022 250.556170373 571.387697625 251.282058919 570.443684119 c 0
 252.051972101 569.442416849 253.589108298 568 258.59375 568 c 2
 258.790958968 568 l 1
 387.660348526 562.999846137 l 2
 403.877683252 563.108728551 414.24739338 577.796610227 414.24739338 589.499524288 c 0
EndSplineSet
Validated: 524329
EndChar

StartChar: ltr46
Encoding: 46 46 51
Width: 340
GlyphClass: 2
Flags: HMW
LayerCount: 2
Fore
SplineSet
229.731258629 -10.4413692447 m 0
 229.731258629 -22.7262668954 237.676867924 -28.75 250.822753906 -28.75 c 0
 266.35697754 -28.75 284.448030686 -18.4542395012 289.281400185 2.48084664804 c 2
 316.061651028 118.48074878 l 2
 316.76055706 121.507965712 317.049014809 124.165577215 317.049014809 126.441369245 c 0
 317.049014809 138.726266895 309.103405513 144.75 295.957519531 144.75 c 0
 280.423295897 144.75 262.332242751 134.454239501 257.498873252 113.519153352 c 2
 230.718622409 -2.48074878035 l 2
 230.019716378 -5.50796571205 229.731258629 -8.16557721486 229.731258629 -10.4413692447 c 0
99.7312586288 -10.4413692447 m 0
 99.7312586288 -22.7262668954 107.676867924 -28.75 120.822753906 -28.75 c 0
 136.35697754 -28.75 154.448030686 -18.4542395012 159.281400185 2.48084664804 c 2
 186.061651028 118.48074878 l 2
 186.76055706 121.507965712 187.049014809 124.165577215 187.049014809 126.441369245 c 0
 187.049014809 138.726266895 179.103405513 144.75 165.957519531 144.75 c 0
 150.423295897 144.75 132.332242751 134.454239501 127.498873252 113.519153352 c 2
 100.718622409 -2.48074878035 l 2
 100.019716378 -5.50796571205 99.7312586288 -8.16557721486 99.7312586288 -10.4413692447 c 0
EndSplineSet
Validated: 524329
EndChar

StartChar: ltr58
Encoding: 58 58 52
Width: 340
GlyphClass: 2
Flags: HMW
LayerCount: 2
Fore
SplineSet
226.991706611 19 m 1
 93.92578125 19 l 2
 77.5938488083 19 67.1178409953 4.23111251806 67.1178409953 -7.499524288 c 0
 67.1178409953 -10.9558006629 68.0369603149 -13.5171538423 69.2950206839 -15.1375162324 c 0
 70.7357346974 -16.9931337051 73.4219995896 -19 80.07421875 -19 c 2
 253.07421875 -19 l 2
 271.692140482 -19 292.392760486 1.49852160223 292.392760486 18.3669903821 c 0
 292.392760486 134.480788121 238.798163965 259.596840985 182.303310793 358.861978766 c 0
 180.299318862 363.007311474 178.192315355 364.196434607 174.280129553 364.196434607 c 0
 164.332154513 364.196434607 151.766580112 352.904124094 151.766580112 344.025438108 c 0
 151.766580112 342.436468493 152.074985622 340.817031592 152.907537529 339.015289798 c 0
 208.090521619 240.41048737 226.463083664 107.471859123 226.925581206 30.0669752441 c 0
 226.947623008 26.3779834961 226.969664809 22.688991748 226.991706611 19 c 1
EndSplineSet
Validated: 524329
EndChar

StartChar: ltr59
Encoding: 59 59 53
Width: 340
GlyphClass: 2
Flags: HMW
LayerCount: 2
Fore
SplineSet
99.7312586288 -10.4413692447 m 0
 99.7312586288 -22.7262668954 107.676867924 -28.75 120.822753906 -28.75 c 0
 136.35697754 -28.75 154.448030686 -18.4542395012 159.281400185 2.48084664804 c 2
 320.888807206 702.480782308 l 2
 321.587713245 705.507999272 321.876163246 708.16557584 321.876163246 710.441369245 c 0
 321.876163246 722.726266895 313.930553951 728.75 300.784667969 728.75 c 0
 285.250444335 728.75 267.159391189 718.454239501 262.32602169 697.519153352 c 2
 100.718614669 -2.48078230756 l 2
 100.01970863 -5.50799927195 99.7312586288 -8.16557583952 99.7312586288 -10.4413692447 c 0
EndSplineSet
Validated: 524329
EndChar

StartChar: ltr63
Encoding: 63 63 54
Width: 340
GlyphClass: 2
Flags: HMW
LayerCount: 2
Fore
SplineSet
257.785060753 728.749945084 m 0
 242.250857632 728.749945084 224.159578647 718.454143983 219.325998352 697.51905227 c 2
 192.083654748 579.51933244 l 2
 191.649605175 577.639333345 191.477131612 576.002399855 191.477131612 574.605755453 c 0
 191.477131612 565.955927531 199.191648022 559.210787593 214.491048741 559.210787593 c 0
 230.179688674 559.210787593 245.739038119 567.54069188 250.136606291 582.167804869 c 0
 257.733377487 608.232389322 266.019546101 641.077654586 282.523684781 670.073618521 c 0
 294.011774898 690.256934549 310.383382058 709 334.146484375 709 c 0
 351.123623909 709 364.782507555 700.013560781 372.071382972 684.014484018 c 0
 377.725577651 671.603530404 380.033769309 655.621426215 380.033769309 635.526822916 c 0
 380.033769309 596.516643553 371.116729259 540.67626362 353.303573177 463.519207167 c 0
 351.011335713 453.590506726 348.594581566 442.603521358 346.018104794 430.89259532 c 0
 319.773416402 311.601842194 275.699194375 107.338505729 131.669899668 1.02746548016 c 0
 123.903682146 -4.47001600776 121.785812133 -10.3781873147 121.785812133 -14.7367343624 c 0
 121.785812133 -21.0956781191 125.878593745 -25.4026153084 131.845528204 -25.4026153084 c 0
 134.660430539 -25.4026153084 138.696323506 -24.429648087 143.71177297 -21.0256326587 c 0
 305.892354298 99.7976942349 367.778287335 342.488515492 396.866355666 468.480823015 c 0
 413.122421505 537.782286041 419.554114387 589.141164678 419.554114387 626.665447941 c 0
 419.554114387 686.595797085 403.663044349 710.037734721 387.619369829 720.06879141 c 0
 374.325962793 728.380286348 358.156906701 729 343.842773438 729 c 2
 342.842773438 729 l 2
 328.194615716 729 310.038496778 723.135084029 292.008570884 712.704944077 c 2
 282.287004211 707.081110594 l 1
 277.826560544 717.410187953 l 2
 274.724602352 724.593411982 268.398721001 728.749945084 257.785060753 728.749945084 c 0
EndSplineSet
Validated: 524329
EndChar

StartChar: ltr715
Encoding: 715 715 56
Width: 650
GlyphClass: 2
Flags: MW
HStem: 680 40
LayerCount: 2
Fore
SplineSet
166 680 m 0
 200 679 239 661 240 637 c 0
 243 584 323 588 320 641 c 0
 317 691 230 719 168 720 c 0
 141 721 140 681 166 680 c 0
EndSplineSet
Validated: 41
EndChar

StartChar: ltr168
Encoding: 168 168 57
Width: 650
GlyphClass: 2
Flags: MW
VStem: 210 80<699 701> 219 60<751 753> 293 80<699 701> 302 60<755 757>
LayerCount: 2
Fore
SplineSet
373 701 m 1x20
 362 757 l 1
 361 797 301 795 302 755 c 1x10
 293 699 l 1
 294 646 374 647 373 701 c 1x20
290 701 m 1x80
 279 753 l 1
 278 793 218 791 219 751 c 1x40
 210 699 l 1
 211 646 291 647 290 701 c 1x80
EndSplineSet
Validated: 41
EndChar

StartChar: ltr714
Encoding: 714 714 58
Width: 650
GlyphClass: 2
Flags: W
LayerCount: 2
Fore
SplineSet
315 736 m 1
 232 684 l 2
 198 660 234 608 268 632 c 1
 351 664 l 1
 399 688 363 760 315 736 c 1
EndSplineSet
Validated: 41
EndChar

StartChar: ltr710
Encoding: 710 710 59
Width: 650
GlyphClass: 2
Flags: MW
HStem: 679 20G<250 250> 681 54<153 181>
LayerCount: 2
Fore
SplineSet
181 681 m 1x40
 250 699 l 1x80
 319 681 l 1
 355 661 384 716 347 735 c 2
 264 777 l 2
 253 783 247 783 236 777 c 2
 153 735 l 2
 116 716 145 661 181 681 c 1x40
EndSplineSet
Validated: 41
EndChar

StartChar: ltr730
Encoding: 730 730 60
Width: 650
GlyphClass: 2
Flags: MW
HStem: 680.409 20G
LayerCount: 2
Fore
SplineSet
210 701 m 0
 210 663 242 631 281 631 c 0
 321 631 357 666 357 701 c 0
 357 738 321 772 281 772 c 2
 279 772 l 2
 242 772 210 740 210 701 c 0
282.196289062 710.279296875 m 1
 282.62109375 709.80078125 282.728515625 709.118164062 282.682617188 708.330078125 c 1
 282.54296875 708.935546875 282.381835938 709.583984375 282.196289062 710.279296875 c 1
280.229492188 700.41015625 m 1
 280.322265625 700.387695312 280.4140625 700.3671875 280.506835938 700.348632812 c 1
 279.688476562 697.467773438 283.749023438 692.000976562 280 692.000976562 c 0
 276.624023438 692.000976562 280.086914062 697.471679688 280.229492188 700.41015625 c 1
EndSplineSet
Validated: 524297
EndChar

StartChar: D
Encoding: 68 68 61
Width: 544
Flags: W
HStem: -118.006 19<162.583 214.485> 258.285 26.4355<158.136 217.459> 581.614 18.2549<373.193 511.102> 588.155 11.7139<388.443 441.003>
VStem: 92.8164 49.0957<-90.8123 15.526> 224.798 65.3078<475.052 532.969> 391.397 31.7823<105.894 249.372>
LayerCount: 2
Fore
SplineSet
346.433620138 275.698242188 m 2xce
 379.159215882 258.181640625 391.397418162 226.799804688 391.397418162 190.491210938 c 0
 391.397418162 171.134765625 388.104651786 150.263671875 382.690694733 128.5078125 c 0
 368.488349458 71.4345703125 329.687102432 8.79296875 288.523858285 -36.33203125 c 0
 270.201628848 -56.4169921875 251.379987785 -73.080078125 233.433625798 -84.26171875 c 0
 219.165320496 -93.15234375 205.643554688 -99.005859375 192.735351562 -99.005859375 c 0
 192.502929688 -99.005859375 192.275390625 -99 192.052734375 -99 c 2
 190.3125 -99 l 2
 189.892578125 -99.0107421875 189.48046875 -99.015625 189.075195312 -99.015625 c 0
 158.442382812 -99.015625 141.912109375 -70.6875 141.912109375 -41.8046875 c 0
 141.912109375 -27.3837890625 145.671875 -11.9404296875 153.745117188 2.791015625 c 0
 153.908203125 3.37890625 154.212890625 4.189453125 154.802734375 5.265625 c 0
 209.79296875 105.841796875 272.19718138 195.606445312 338.09857622 280.16015625 c 1
 346.433620138 275.698242188 l 2xce
243.772598123 567.676757812 m 1
 235.87205279 568.190429688 228.037467482 568.7265625 219.52129524 568.7265625 c 0
 209.7578125 568.7265625 200.178710938 568.31640625 190.7421875 568.31640625 c 0
 166.766601562 568.31640625 139.625976562 570.705078125 120.424804688 592.923828125 c 0
 119.150390625 594.3671875 118.270507812 594.634765625 116.5 594.634765625 c 0
 113.533203125 594.634765625 108.434570312 592.368164062 104.81640625 588.428710938 c 0
 101.951171875 585.309570312 100.66796875 581.89453125 100.66796875 579.881835938 c 0
 100.66796875 578.640625 100.9140625 577.64453125 101.99609375 576.294921875 c 0
 114.91796875 561.72265625 131.26171875 560.0703125 151.37109375 558.415039062 c 0
 164.282226562 557.352539062 178.526367188 556.412109375 191.637695312 549.317382812 c 0
 208.828125 540.015625 220.682401094 521.266601562 224.798097318 488.485351562 c 1
 224.798097318 487.909179688 l 2
 224.835788761 475.9453125 233.379182601 469.315429688 246.052930449 469.315429688 c 0
 249.8011351 469.315429688 253.88123385 470.037109375 258.011587857 471.052734375 c 0
 274.270210768 475.048828125 288.621227848 488.435546875 290.105851924 504.918945312 c 1
 313.750950759 599.668945312 l 1
 334.316868065 594.62109375 344.07685794 593.599609375 372.22084934 588.155273438 c 0xde
 372.269010629 588.155273438 372.318218902 588.153320312 372.366380191 588.153320312 c 0
 373.047967126 588.173828125 373.627996561 588.099609375 374.164052645 587.984375 c 0
 400.843312675 583.344726562 422.797531479 581.614257812 441.900811383 581.614257812 c 0
 479.041540929 581.614257812 506.039084259 588.09375 534.849609375 593.6484375 c 2
 565.2421875 599.56640625 l 1
 544.061523438 576.993164062 l 2
 461.524442603 492.517578125 381.88975156 403.275390625 306.30793767 305.979492188 c 1
 304.302962277 305.979492188 302.2969399 305.979492188 300.291964507 305.979492188 c 0
 265.010679502 305.702148438 220.573514702 299.00390625 169.223632812 284.720703125 c 0
 160.383789062 279.830078125 157.677734375 273.1328125 157.677734375 268.044921875 c 0
 157.677734375 261.797851562 160.94140625 258.28515625 166.477539062 258.28515625 c 0
 168.797851562 258.28515625 172.961914062 259.411132812 177.067382812 261.448242188 c 0
 208.637695312 270.349609375 236.979762432 275.60546875 263.241275631 277.462890625 c 2
 285.631040003 279.046875 l 1
 272.893426099 261.82421875 l 2
 214.798347983 185.727539062 163.165039062 104.634765625 113.620117188 16.396484375 c 0
 98.5625 -9.1015625 92.81640625 -30.0625 92.81640625 -46.5830078125 c 0
 92.81640625 -95.6826171875 141.403320312 -118.06640625 178.149414062 -118.06640625 c 0
 179.19921875 -118.06640625 180.237304688 -118.046875 181.2578125 -118.0078125 c 2
 181.537109375 -117.998046875 l 1
 181.817382812 -117.998046875 l 2
 181.92578125 -118 182.173828125 -118.005859375 182.365234375 -118.005859375 c 0
 190.975585938 -118.005859375 204.37890625 -113.90625 220.411232098 -105.623046875 c 0
 241.153042806 -95.298828125 265.236828163 -78.9208984375 289.058867385 -58.615234375 c 0
 342.796395848 -14.212890625 394.68390263 49.3037109375 409.695566955 107.63671875 c 0
 418.344706234 141.245117188 423.179680836 171.592773438 423.179680836 197.538085938 c 0
 423.179680836 245.619140625 407.822511614 276.380859375 372.925469935 293.061523438 c 2
 361.627459772 298.5703125 l 1
 369.361534563 307.999023438 l 2
 451.018999736 407.533203125 535.176757812 497.502929688 618.088867188 582.821289062 c 0
 627.236328125 592.178710938 630.162109375 600.809570312 630.162109375 607.46484375 c 0
 630.162109375 619.411132812 620.67578125 628.82421875 607.705078125 628.82421875 c 0
 605.15625 628.82421875 602.188476562 627.90234375 599.248046875 627.749023438 c 0
 543.647460938 624.848632812 510.272460938 599.869140625 445.166356161 599.869140625 c 0xee
 430.096060703 599.869140625 413.539047198 601.180664062 395.292200648 604.208007812 c 0
 357.266769166 612.236328125 344.352214874 615.403320312 300.004043759 627.37890625 c 0
 297.855631484 627.87109375 295.637071245 628.110351562 293.267745233 628.110351562 c 0
 275.740177061 628.110351562 255.31141473 613.9140625 250.99365049 596.612304688 c 0
 248.586633035 586.967773438 246.179615579 577.322265625 243.772598123 567.676757812 c 1
EndSplineSet
Validated: 524297
EndChar

StartChar: E
Encoding: 69 69 62
Width: 614
Flags: W
HStem: 552.959 29.6104<140.051 228.396> 580.249 57.751<640.966 704.911> 583.409 18.8789<105.231 122.539>
LayerCount: 2
Fore
SplineSet
407.730301641 8.4541015625 m 2xa0
 407.08158321 5.8134765625 406.832632347 3.5732421875 406.832632347 1.6357421875 c 0
 406.832632347 -8.439453125 413.351839381 -13.25 424.972989614 -13.25 c 0
 438.818169755 -13.25 454.696276443 -4.42578125 459.5120811 13.396484375 c 2
 614.73828125 593.268554688 l 1
 633.647460938 588.928710938 652.556640625 584.588867188 671.465820312 580.249023438 c 1
 694.703125 580.940429688 709.454101562 602.05078125 709.454101562 619.14453125 c 0
 709.454101562 624.360351562 708.0703125 628.578125 705.811523438 631.4921875 c 0
 703.12109375 634.965820312 698.373046875 638 688.755859375 638 c 2
 507.723843208 638 l 1x40
 505.828304481 639.0546875 503.953425576 640.443359375 501.106502017 640.443359375 c 0
 498.913461844 640.443359375 494.682330167 639.076171875 490.947034235 636.9375 c 0
 484.608600649 634.965820312 476.001718538 628.399414062 464.616090283 613.956054688 c 0
 451.327692362 597.098632812 436.123095892 572.076171875 420.173712816 542.201171875 c 0
 383.516989509 473.537109375 342.673553146 379.182617188 306.324661197 295.169921875 c 0
 283.038975102 241.349609375 261.635398849 191.857421875 243.954722636 155.759765625 c 0
 229.80377712 126.868164062 219.271484375 106.545898438 208.4140625 97.533203125 c 0
 200.041015625 90.572265625 191.666992188 83.6103515625 183.29296875 76.6494140625 c 1
 224.477674844 253.466796875 267.642242281 430.598632812 311.349130062 607.216796875 c 0
 313.075258244 611.094726562 313.749801453 614.578125 313.749801453 617.616210938 c 0
 313.749801453 630.137695312 307.624164041 634.157226562 298.003917629 637.047851562 c 0
 295.399746986 637.830078125 292.456755251 638.279296875 289.50756557 638.279296875 c 0
 283.532744863 638.279296875 277.561023129 636.299804688 270.816624029 632.848632812 c 0
 264.563928708 629.649414062 259.255387281 624.978515625 255.008760738 618.829101562 c 1
 238.639983262 602.31640625 213.1484375 582.569335938 179.329101562 582.569335938 c 0
 162.173828125 582.569335938 142.248046875 587.803710938 122.64453125 600.974609375 c 0
 121.165039062 601.96875 119.887695312 602.288085938 118.501953125 602.288085938 c 0
 116.100585938 602.288085938 112.576171875 600.935546875 109.451171875 598.165039062 c 0
 105.473632812 594.638671875 103.331054688 589.754882812 103.331054688 587.168945312 c 0
 103.331054688 585.55859375 103.497070312 584.770507812 105.500976562 583.409179688 c 0
 139.390625 561.5078125 192.319335938 555.634765625 200.684570312 552.958984375 c 1
 213.350585938 552.958984375 225.444554543 555.020507812 237.491297123 556.640625 c 1
 109.716796875 8.51171875 l 2
 109.258789062 6.529296875 109.065429688 4.7158203125 109.065429688 3.060546875 c 0
 109.065429688 -8.142578125 118.52734375 -16.787109375 132.139648438 -16.787109375 c 0
 138.958007812 -16.787109375 146.514648438 -14.421875 153.596679688 -8.4677734375 c 0
 177.333984375 10.8076171875 204.036132812 52.2275390625 231.135302689 105.064453125 c 0
 266.888158755 172.022460938 303.123421679 257.153320312 337.68523897 338.291015625 c 0
 368.788601951 411.309570312 398.561472354 481.268554688 426.585488771 533.545898438 c 0
 448.8888003 575.15234375 469.674647856 606.504882812 492.910750376 619.068359375 c 2
 496.486965675 621.002929688 l 1
 564.001200073 606.390625 l 1
 559.603756824 599.000976562 554.110309985 591.594726562 551.880082131 582.5078125 c 2
 407.730301641 8.4541015625 l 2xa0
EndSplineSet
Validated: 524297
EndChar

StartChar: F
Encoding: 70 70 63
Width: 514
Flags: W
HStem: -17.999 19<156.564 266.2> 320.123 17.7666<162.494 164.312 408.485 426.856> 556.74 24.4609<137.581 289.162>
VStem: 65.7236 46.0332<25.4201 202.458>
LayerCount: 2
Fore
SplineSet
401.797091934 608.708007812 m 0
 403.495436462 612.470703125 404.152756717 615.81640625 404.152756717 618.698242188 c 0
 404.152756717 627.625976562 399.085512281 632.38671875 392.948385609 635.409179688 c 0
 389.215020324 637.248046875 384.579576511 638.37109375 379.628832738 638.37109375 c 0
 374.271939864 638.37109375 368.904358856 636.780273438 362.963893854 634.442382812 c 0
 354.36849631 631.05859375 347.407314489 625.331054688 342.115619234 617.57421875 c 1
 316.452340146 597.614257812 259.798815873 581.201171875 202.83319808 581.201171875 c 0
 172.997070312 581.201171875 144.783203125 586.310546875 122.689453125 600.938476562 c 0
 121.2109375 601.931640625 119.900390625 602.282226562 118.501953125 602.282226562 c 0
 116.1015625 602.282226562 112.577148438 600.9296875 109.451171875 598.158203125 c 0
 105.474609375 594.630859375 103.331054688 589.74609375 103.331054688 587.158203125 c 0
 103.331054688 585.549804688 103.497070312 584.760742188 105.487304688 583.40625 c 0
 134.188476562 565.030273438 178.129882812 556.740234375 226.741485528 556.740234375 c 0
 255.771526897 556.740234375 284.919137742 559.634765625 310.843207305 564.334960938 c 2
 327.502802122 567.35546875 l 1
 269.436306504 340.20703125 l 1
 142.284179688 337.889648438 l 2
 125.833984375 337.889648438 107.650390625 323.372070312 103.748046875 306.517578125 c 0
 79.775390625 202.987304688 65.7236328125 130.537109375 65.7236328125 81.8544921875 c 0
 65.7236328125 33.4501953125 78.287109375 10.3564453125 106.73828125 -2.8642578125 c 0
 130.45703125 -13.8857421875 167.5703125 -17.9990234375 223.401443583 -17.9990234375 c 0
 264.142473622 -17.9990234375 352.606022976 18.025390625 425.936523438 70.6640625 c 0
 480.172851562 112.813476562 525.198242188 164.724609375 536.455078125 213.481445312 c 0
 537.154296875 216.508789062 537.442382812 219.166015625 537.442382812 221.442382812 c 0
 537.442382812 233.727539062 529.497070312 239.750976562 516.3515625 239.750976562 c 0
 500.81640625 239.750976562 482.725585938 229.455078125 477.892578125 208.520507812 c 0
 466.260742188 158.13671875 417.193349285 100.752929688 358.011012454 58.904296875 c 0
 310.674334784 25.4326171875 258.876429889 1.0009765625 217.291037246 1.0009765625 c 0
 182.359375 1.0009765625 158.392578125 6.654296875 141.29296875 18.7646484375 c 0
 119.51171875 34.19140625 111.756835938 58.583984375 111.756835938 86.4599609375 c 0
 111.756835938 124.30859375 124.946289062 171.134765625 139.564453125 224.125 c 0
 147.872070312 254.240234375 156.63671875 286.986328125 164.3125 320.123046875 c 1
 263.973601101 318.833007812 l 1
 202.19618528 77.2626953125 l 2
 201.427708429 74.255859375 201.110270843 71.6171875 201.110270843 69.36328125 c 0
 201.110270843 57.23828125 209.836063624 51.1494140625 224.49056446 51.1494140625 c 0
 241.765795808 51.1494140625 261.731230541 61.4853515625 267.047508504 82.2744140625 c 2
 327.339273668 318.029296875 l 1
 408.484657518 317.000976562 l 2
 421.07421875 317.0390625 428.583984375 327.711914062 428.583984375 336.000976562 c 0
 428.583984375 338.393554688 427.948242188 339.9375 427.309570312 340.7578125 c 0
 426.6484375 341.607421875 425.243164062 342.983398438 420.448242188 343.000976562 c 2
 333.292564432 341.455078125 l 1
 356.166240487 430.50390625 378.728891836 519.836914062 401.797091934 608.708007812 c 0
EndSplineSet
Validated: 524297
EndChar

StartChar: G
Encoding: 71 71 64
Width: 644
Flags: W
HStem: -17.998 18.999<165.389 237.341> 552.961 29.6084<140.051 228.346> 583.409 18.8789<105.231 122.538> 610.002 27.998<562.405 576.727>
VStem: 300.011 0.76081<514.757 553.438> 300.772 63.1863<424.513 531.312> 696.508 45.6338<551.618 627.681>
LayerCount: 2
Fore
SplineSet
506.373017747 368.7578125 m 2xf6
 420.598862665 111.145507812 323.328248335 1.0009765625 179.229492188 1.0009765625 c 2
 177.971679688 1.0009765625 l 1
 165.388671875 1.0009765625 l 1
 299.985768388 565.431640625 l 1
 300.011471436 563.4375 l 1xfa
 303.607841893 578.057617188 307.22580291 592.65625 310.884888804 607.215820312 c 0
 312.601852401 611.09375 313.273216011 614.578125 313.273216011 617.616210938 c 0
 313.273216011 630.140625 307.178509302 634.158203125 297.610806766 637.047851562 c 0
 295.020967663 637.830078125 292.093904573 638.279296875 289.16067275 638.279296875 c 0
 283.219156207 638.279296875 277.279695907 636.30078125 270.571200415 632.849609375 c 0
 264.351062832 629.650390625 259.070628679 624.98046875 254.84504761 618.831054688 c 0
 238.560624607 602.317382812 213.1484375 582.569335938 179.329101562 582.569335938 c 0
 162.173828125 582.569335938 142.248046875 587.803710938 122.64453125 600.974609375 c 0
 121.165039062 601.96875 119.887695312 602.288085938 118.501953125 602.288085938 c 0
 116.100585938 602.288085938 112.576171875 600.935546875 109.451171875 598.165039062 c 0
 105.473632812 594.638671875 103.331054688 589.754882812 103.331054688 587.168945312 c 0
 103.331054688 585.55859375 103.497070312 584.770507812 105.500976562 583.409179688 c 0
 139.389648438 561.508789062 192.317382812 555.63671875 200.681640625 552.9609375 c 0
 213.3515625 552.9609375 225.428423393 555.0234375 237.41838116 556.643554688 c 1
 109.715820312 8.513671875 l 2
 109.18359375 6.2109375 108.94921875 4.0498046875 108.94921875 2.05078125 c 0
 108.94921875 -9.78125 116.576171875 -17.998046875 129.764648438 -17.998046875 c 0
 232.257209149 -17.998046875 319.763749657 -2.1826171875 397.615197266 70.9931640625 c 0
 460.144543984 129.767578125 517.173438459 226.802734375 570.90308971 384.807617188 c 0
 571.555947126 386.048828125 571.459303666 388.001953125 572.730062352 388.655273438 c 0
 595.11741704 459.013671875 614.851189067 526.106445312 634.798828125 611.465820312 c 0
 635.330078125 613.770507812 635.5703125 615.955078125 635.5703125 617.952148438 c 0
 635.5703125 629.76953125 627.965820312 638 614.273384551 638 c 0
 462.337528027 638 357.67368901 619.668945312 317.731152632 539.650390625 c 2
 300.772281653 505.676757812 l 1
 301.186614784 474.233398438 l 2
 302.050237192 408.44921875 371.659231413 386.114257812 496.724093579 381.765625 c 2
 510.544108354 381.28515625 l 1
 506.373017747 368.7578125 l 2xf6
508.4960895 379.879882812 m 2
 424.248695461 385.102539062 363.958598274 403.263671875 363.958598274 463.55078125 c 0xf6
 363.958598274 471.9921875 365.167669645 480.934570312 367.502534513 490.493164062 c 0
 389.765486449 581.627929688 482.23579956 600.001953125 562.177419022 600.001953125 c 0
 567.027070092 610.001953125 571.877749285 610.001953125 576.727400356 610.001953125 c 1
 557.255799417 525.845703125 537.23209701 447.951171875 516.915379858 379.358398438 c 1
 508.4960895 379.879882812 l 2
724.397460938 629.145507812 m 0
 710.889648438 627.521484375 696.5078125 616.010742188 696.5078125 600.010742188 c 0
 696.5078125 599.765625 696.510742188 599.528320312 696.516601562 599.296875 c 0
 696.516601562 598.821289062 696.516601562 598.345703125 696.516601562 597.869140625 c 0
 696.42578125 597.419921875 696.341796875 596.962890625 696.239257812 596.520507812 c 0
 676.600585938 511.456054688 647.270507812 433.185546875 600.652825428 397.168945312 c 0
 597.682581217 394.939453125 594.712337006 392.708984375 591.742092795 390.479492188 c 1
 656.157226562 433.963867188 715.091796875 500.858398438 742.141601562 616.036132812 c 0
 741.671875 620.52734375 739.0625 621.858398438 731.752929688 625.307617188 c 0
 729.5625 626.341796875 727.01171875 627.3984375 724.397460938 629.145507812 c 0
271.613716036 437.26171875 m 1
 281.143378061 475.926757812 290.498259361 514.756835938 300.011471436 553.4375 c 1xfa
 300.772281653 495.676757812 l 1
 271.613716036 437.26171875 l 1
EndSplineSet
Validated: 524293
EndChar

StartChar: H
Encoding: 72 72 65
Width: 544
Flags: W
HStem: -0.745117 46.7461<77.0451 271.47> 290.001 18<281.176 349.627> 588.171 11.7041<389.826 396.624 442.882 499.395>
VStem: 227.153 64.8304<474.116 532.213> 444.595 61.4492<8.28845 226.25>
LayerCount: 2
Fore
SplineSet
482.423398849 372.094726562 m 0
 437.138999379 318.973632812 378.083498448 308.000976562 295.620967361 308.000976562 c 0
 287.043235813 308.000976562 280.100050204 301.538085938 280.100050204 294.057617188 c 0
 280.100050204 292.399414062 280.573590832 291.546875 280.829053539 291.241210938 c 0
 281.013900538 291.022460938 281.720057615 290.000976562 285.740999086 290.000976562 c 0
 347.410319666 290.000976562 390.696709996 271.295898438 416.146403344 236.973632812 c 0
 436.292649353 209.8046875 444.595187335 174.280273438 444.595187335 133.091796875 c 0
 444.595187335 96.4248046875 437.902272101 54.6904296875 426.572604887 9.939453125 c 2
 424.522672432 1.845703125 l 1
 415.393515284 2.498046875 l 2
 359.17406579 6.5107421875 306.225785106 17.2529296875 257.986949043 27.0810546875 c 0
 208.708608225 37.119140625 165.004882812 46.0009765625 130.661132812 46.0009765625 c 0
 111.33984375 46.0009765625 94.3740234375 43.236328125 79.7451171875 36.78125 c 0
 61.228515625 28.8203125 54.279296875 14.6806640625 54.279296875 3.015625 c 0
 54.279296875 -9.7763671875 61.5205078125 -18.4755859375 73.47265625 -18.4755859375 c 0
 77.4033203125 -18.4755859375 82.365234375 -17.521484375 88.26953125 -14.9248046875 c 0
 113.217773438 -4.1923828125 142.071289062 -0.7451171875 173.833007812 -0.7451171875 c 0
 208.680569635 -0.7451171875 247.091360737 -4.3974609375 288.58328132 -8.31640625 c 0
 337.826314284 -12.9658203125 391.289674247 -18 447.653470556 -18 c 0
 449.225708518 -18 450.48432966 -17.6845703125 451.872759089 -17.5400390625 c 0
 467.660562083 -15.94921875 484.206445467 -6.0087890625 488.923159352 12.466796875 c 0
 500.59344351 58.173828125 506.044353061 97.6279296875 506.044353061 131.255859375 c 0
 506.044353061 204.946289062 480.448235967 250.2421875 437.120306985 276.765625 c 0
 429.68073449 281.322265625 422.241161995 285.877929688 414.801589499 290.434570312 c 1
 438.584544453 295.512695312 l 2
 518.111328125 313.109375 575.455078125 371.495117188 628.802734375 601.602539062 c 0
 629.500976562 604.6171875 629.7890625 607.262695312 629.7890625 609.526367188 c 0
 629.7890625 620.776367188 623.572265625 625.862304688 613.04296875 627.466796875 c 0
 611.879882812 627.755859375 610.515625 628.002929688 608.755859375 628.002929688 c 0
 580.6953125 628.002929688 558.69140625 621.619140625 534.9375 614.672851562 c 0
 510.51171875 607.551757812 482.590591921 599.875 446.12173278 599.875 c 0
 431.165741284 599.875 414.733050724 601.186523438 396.624275575 604.213867188 c 0
 358.883295229 612.2421875 346.066544288 615.409179688 302.051150623 627.383789062 c 0
 299.916063933 627.876953125 297.7145154 628.116210938 295.361350789 628.116210938 c 0
 277.955617317 628.116210938 257.681639954 613.91796875 253.396928045 596.625 c 0
 250.966916928 586.815429688 248.536905812 577.006835938 246.105856229 567.198242188 c 1
 238.26439728 567.711914062 230.491477106 568.248046875 222.033169181 568.248046875 c 0
 212.273662995 568.248046875 202.245194041 567.854492188 192.345494907 567.854492188 c 0
 167.002929688 567.854492188 139.569335938 570.270507812 120.344726562 593.034179688 c 0
 119 594.665039062 117.999023438 595.056640625 116.318359375 595.056640625 c 0
 113.498046875 595.056640625 108.477539062 592.817382812 104.891601562 588.895507812 c 0
 102.051757812 585.790039062 100.815429688 582.416015625 100.815429688 580.61328125 c 0
 100.815429688 579.34375 101.213867188 578.525390625 102.258789062 577.272460938 c 0
 115.224609375 561.73046875 131.649414062 559.938476562 151.920898438 558.10546875 c 0
 164.7578125 556.948242188 179.239011872 555.901367188 193.099421433 548.6953125 c 0
 211.257004498 539.254882812 223.1723667 520.428710938 227.152807986 487.578125 c 1
 227.152807986 487.0078125 l 2
 227.164231115 475.010742188 235.651616096 468.364257812 248.255481448 468.364257812 c 0
 251.974229229 468.364257812 256.025286223 469.0859375 260.128266531 470.102539062 c 0
 276.269148063 474.098632812 290.510674752 487.485351562 291.98321995 503.958984375 c 1
 315.698674595 599.682617188 l 1
 336.083767851 594.640625 345.802773851 593.61328125 373.721940034 588.172851562 c 0
 373.77074795 588.172851562 373.818517399 588.170898438 373.867325315 588.170898438 c 0
 374.542328402 588.19140625 375.117638727 588.1171875 375.649333467 588.002929688 c 0
 402.129185373 583.36328125 423.919323518 581.633789062 442.881717958 581.633789062 c 0
 488.680158241 581.633789062 518.986328125 591.80859375 556.3359375 597.228515625 c 2
 570.9375 599.34765625 l 1
 567.508789062 585.002929688 l 2
 542.452148438 480.161132812 517.673828125 414.033203125 482.423398849 372.094726562 c 0
EndSplineSet
Validated: 524297
EndChar

StartChar: I
Encoding: 73 73 66
Width: 222
Flags: W
HStem: 551.594 30.6211<129.875 223.956>
VStem: 92.7529 215.41
LayerCount: 2
Fore
SplineSet
92.7529296875 -3.9990234375 m 0
 92.7529296875 -12.6806640625 98.4541015625 -17.4990234375 109.880859375 -17.4990234375 c 0
 123.448242188 -17.4990234375 138.23046875 -8.734375 142.294921875 8.4990234375 c 1
 212.963867188 207.534179688 258.918945312 404.9453125 305.387695312 605.888671875 c 0
 307.135742188 610.094726562 308.163085938 614.524414062 308.163085938 618.10546875 c 0
 308.163085938 629.971679688 303.0390625 634.74609375 293.708984375 636.994140625 c 0
 291.107421875 637.83984375 288.107421875 638.408203125 285.086914062 638.408203125 c 0
 278.057617188 638.408203125 270.590820312 635.697265625 262.4375 629.420898438 c 0
 259.66796875 627.2890625 257.473632812 624.708007812 255.098632812 622.060546875 c 0
 238.026367188 603.025390625 206.14453125 582.21484375 171.877929688 582.21484375 c 0
 154.51953125 582.21484375 136.654296875 587.965820312 121.381835938 602.09765625 c 0
 119.951171875 603.340820312 118.689453125 603.73046875 116.994140625 603.73046875 c 0
 113.96484375 603.73046875 109.1328125 601.536132812 105.711914062 597.793945312 c 0
 102.998046875 594.823242188 101.845703125 591.6015625 101.845703125 589.930664062 c 0
 101.845703125 588.051757812 102.264648438 586.728515625 103.801757812 585.155273438 c 0
 128.379882812 562.024414062 160.870117188 551.59375 193.54296875 551.59375 c 0
 208.537109375 551.59375 223.594726562 554.484375 236.9609375 556.8359375 c 1
 194.193359375 364.318359375 161.520507812 193.001953125 93.44921875 2.3134765625 c 0
 92.9560546875 -0.076171875 92.7529296875 -2.18359375 92.7529296875 -3.9990234375 c 0
EndSplineSet
Validated: 524297
EndChar

StartChar: J
Encoding: 74 74 67
Width: 544
Flags: W
HStem: -17.999 18<241.654 295.516> 481.216 47.2607<233.023 439.096>
LayerCount: 2
Fore
SplineSet
64.271484375 -16.4013671875 m 2
 92.5830078125 -8.5498046875 117.870117188 -5.8271484375 141.274414062 -5.8271484375 c 0
 197.508053046 -5.8271484375 246.367591457 -17.9990234375 302.441333351 -17.9990234375 c 0
 312.940905834 -17.9990234375 323.729819799 -13.6015625 333.367773918 -5.1572265625 c 0
 440.313083793 93.7431640625 577.385742188 398.229492188 627.209960938 604.782226562 c 0
 628.90234375 608.725585938 629.938476562 613.005859375 629.938476562 616.71484375 c 0
 629.938476562 628.453125 626.451171875 632.478515625 620.000976562 635.540039062 c 0
 616.815429688 637.411132812 612.95703125 638.702148438 608.466796875 638.702148438 c 0
 601.295898438 638.702148438 588.321289062 632.733398438 582.359375 627.510742188 c 0
 479.788658324 553.638671875 391.912476472 528.4765625 321.051763954 528.4765625 c 0
 231.765300272 528.4765625 171.109730597 568.0859375 135.252929688 592.3359375 c 0
 130.65625 595.532226562 126.458007812 598.451171875 122.689453125 600.946289062 c 0
 121.211914062 601.939453125 119.90234375 602.2890625 118.501953125 602.2890625 c 0
 116.100585938 602.2890625 112.576171875 600.936523438 109.451171875 598.166015625 c 0
 105.473632812 594.639648438 103.331054688 589.755859375 103.331054688 587.169921875 c 0
 103.331054688 585.5625 103.49609375 584.774414062 105.489257812 583.41796875 c 0
 114.411132812 577.6875 123.94921875 570.149414062 134.565429688 561.802734375 c 0
 178.498448536 528.466796875 242.804402876 481.215820312 339.780679152 481.215820312 c 0
 393.534869656 481.215820312 459.48701504 496.682617188 534.34765625 536.708007812 c 2
 555.666992188 548.555664062 l 1
 548.791015625 525.141601562 l 2
 492.463605077 336.68359375 402.631427129 98.87890625 298.798406636 2.966796875 c 2
 295.587890625 0.0009765625 l 1
 294.05859375 -9.9990234375 292.529296875 -9.9990234375 291 0.0009765625 c 0
 263.10803192 0.0009765625 237.255879822 9.9697265625 210.665094806 19.8134765625 c 0
 177.438047483 32.1142578125 144.044921875 44.921875 108.330078125 44.921875 c 0
 94.6376953125 44.921875 79.9169921875 43.0537109375 63.8125 38.4267578125 c 0
 42.9716796875 32.37109375 33.9287109375 16.6689453125 33.9287109375 2.732421875 c 0
 33.9287109375 -9.78515625 40.2763671875 -18.1748046875 53.1982421875 -18.1748046875 c 0
 56.2431640625 -18.1748046875 59.8994140625 -17.6796875 64.2041015625 -16.419921875 c 2
 64.271484375 -16.4013671875 l 2
EndSplineSet
Validated: 524297
EndChar

StartChar: K
Encoding: 75 75 68
Width: 546
Flags: W
HStem: -18.001 20<242.02 338.211> 534.33 29.1514<140.724 229.537> 564.27 18.4043<105.239 122.632> 597.999 20.3721<398.909 480.922>
VStem: 128.307 54.2998<34.6313 117.248> 524.579 55.6572<298.894 553.509>
LayerCount: 2
Fore
SplineSet
306.081669601 615.401367188 m 0
 302.357075975 617.24609375 297.734398778 618.37109375 292.797072347 618.37109375 c 0
 287.453368434 618.37109375 282.100065052 616.776367188 276.170793584 614.431640625 c 0
 267.351015608 610.951171875 260.11088344 605.002929688 254.899438864 596.758789062 c 0
 238.231562406 581.391601562 212.752929688 563.481445312 179.700195312 563.481445312 c 0
 162.426757812 563.481445312 142.322265625 568.543945312 122.6328125 581.399414062 c 0
 121.15234375 582.365234375 119.879882812 582.673828125 118.501953125 582.673828125 c 0
 116.111328125 582.673828125 112.58984375 581.36328125 109.462890625 578.669921875 c 0
 105.485351562 575.243164062 103.331054688 570.489257812 103.331054688 567.952148438 c 0
 103.331054688 566.368164062 103.508789062 565.58984375 105.508789062 564.26953125 c 0
 139.919921875 542.717773438 192.78125 536.95703125 201.174804688 534.330078125 c 0
 213.629882812 534.330078125 225.641326679 536.298828125 237.89664763 537.833007812 c 1
 233.624884322 521.567382812 229.352054406 505.301757812 225.080291098 489.037109375 c 0
 224.582185364 487.141601562 224.372063673 485.416015625 224.372063673 483.862304688 c 0
 224.372063673 473.348632812 234.759754774 464.948242188 250.631941987 464.948242188 c 0
 259.17226878 464.948242188 268.617078791 467.655273438 276.93128478 474.17578125 c 0
 294.840692447 488.891601562 309.588675283 506.373046875 324.188399668 523.749023438 c 0
 354.461922258 559.779296875 386.024973397 597.999023438 447.940476086 597.999023438 c 0
 461.342773438 597.999023438 472.498046875 594.805664062 481.939453125 588.807617188 c 0
 514.703125 567.991210938 524.579101562 518.431640625 524.579101562 461.549804688 c 0
 524.579101562 411.913085938 516.454101562 353.888671875 502.744140625 296.627929688 c 0
 483.611328125 217.157226562 452.201573319 136.509765625 411.288640242 79.6171875 c 0
 378.960831477 34.6640625 340.637621575 1.9990234375 296.985640265 1.9990234375 c 2
 295.87423518 1.9990234375 l 2
 230.411195721 1.9990234375 182.606445312 37.2978515625 182.606445312 79.896484375 c 0
 182.606445312 88.388671875 184.607421875 96.890625 188.696289062 104.90234375 c 0
 191.610351562 110.930664062 192.388671875 118.920898438 192.645507812 119.89453125 c 0
 192.645507812 131.340820312 183.6640625 139.114257812 169.87890625 139.114257812 c 0
 157.897460938 139.114257812 143.734375 132.540039062 135.005859375 115.088867188 c 0
 130.424804688 105.78515625 128.306640625 96.2158203125 128.306640625 86.513671875 c 0
 128.306640625 38.0458984375 184.83203125 -18.0009765625 286.211837225 -18.0009765625 c 0
 371.265257877 -18.0009765625 503.427734375 59.009765625 561.309570312 301.126953125 c 0
 574.551757812 356.516601562 580.236328125 403.38671875 580.236328125 442.53515625 c 0
 580.236328125 574.509765625 518.102539062 617.999023438 458.617217837 617.999023438 c 2
 457.525011688 617.999023438 l 2
 391.274815845 617.999023438 352.529229346 598.825195312 340.153381739 591.483398438 c 1
 338.716661346 586.010742188 l 1
 332.906849925 586.712890625 l 1
 318.393520754 576.487304688 l 1
 318.393520754 577.377929688 l 1
 316.129112888 575.895507812 l 1
 316.768010821 588.309570312 l 1
 316.752011707 588.309570312 316.736012594 588.309570312 316.721080088 588.309570312 c 1
 316.826674237 590.361328125 316.949334107 592.411132812 317.058128079 594.462890625 c 2
 312.608241307 599.235351562 l 1
 316.899203551 602.586914062 l 1
 315.57554356 609.232421875 311.242983621 612.845703125 306.081669601 615.401367188 c 0
317.263983339 598.879882812 m 0
 317.263983339 598.947265625 317.26824977 599.008789062 317.26824977 599.064453125 c 0
 317.26824977 600.630859375 317.26824977 602.198242188 317.26824977 603.764648438 c 0
 330.13367025 614.190429688 342.768703495 624.875976562 355.48693213 635.447265625 c 1
 341.851420987 599.012695312 l 2
 341.097329437 595.108398438 339.937927011 592.283203125 335.803756079 589.4765625 c 2
 325.573922898 582.53515625 l 1
 322.426363966 588.014648438 l 1
 316.768010821 587.995117188 l 1
 317.083726661 594.3203125 l 1
 317.058128079 594.34765625 l 2
 317.137057039 595.857421875 317.208519746 597.368164062 317.263983339 598.879882812 c 0
EndSplineSet
Validated: 524297
EndChar

StartChar: L
Encoding: 76 76 69
Width: 424
Flags: W
HStem: 171 58<9.93851 105.049>
LayerCount: 2
Fore
SplineSet
151.397415506 184.502929688 m 0
 108.489257812 211.609375 68.9365234375 229 44.408203125 229 c 0
 20.513671875 229 5.240234375 207.415039062 5.240234375 189.94140625 c 0
 5.240234375 184.69921875 6.62890625 180.456054688 8.8916015625 177.526367188 c 0
 11.5869140625 174.037109375 16.330078125 171 25.9384765625 171 c 0
 57.9599609375 171 103.229492188 152.977539062 150.623053076 126.259765625 c 0
 212.659731086 92.56640625 274.521041888 44.716796875 304.017594972 -4.53515625 c 1
 306.581548066 -12.626953125 313.574051374 -17.75 326.522701176 -17.75 c 0
 343.561843925 -17.75 363.276921238 -7.8212890625 368.528429614 12.1748046875 c 2
 508.803710938 601.602539062 l 2
 509.501953125 604.6171875 509.7890625 607.259765625 509.7890625 609.525390625 c 0
 509.7890625 621.73046875 501.868164062 627.75 488.698242188 627.75 c 0
 473.147460938 627.75 455.065429688 617.46875 450.23828125 596.611328125 c 2
 314.193118746 43.4287109375 l 1
 309.076833277 49.470703125 303.960547808 55.513671875 298.844262339 61.556640625 c 0
 263.719055739 103.040039062 206.530330241 150.751953125 151.397415506 184.502929688 c 0
EndSplineSet
Validated: 524297
EndChar

StartChar: M
Encoding: 77 77 70
Width: 514
Flags: W
HStem: -18 19<90.6059 235.302> 554.547 15.0977<131.042 201.059> 600 18<378.069 437.472>
VStem: 476.131 59.2217<470.901 494.062 528.201 580.714>
LayerCount: 2
Fore
SplineSet
34.7177734375 8.5126953125 m 0
 34.185546875 6.2099609375 33.9501953125 4.0478515625 33.9501953125 2.048828125 c 0
 33.9501953125 -9.783203125 41.5771484375 -18 54.765625 -18 c 0
 198.491943707 -18 290.212947707 -15.7861328125 365.284687432 21.849609375 c 0
 424.748046875 51.951171875 472.384765625 105.556640625 531.538085938 202.708007812 c 0
 536.127929688 210.220703125 537.69140625 216.485351562 537.69140625 221.216796875 c 0
 537.69140625 232.376953125 528.883789062 240.301757812 515.604492188 240.301757812 c 0
 505.048828125 240.301757812 492.268554688 234.776367188 482.80078125 219.27734375 c 0
 420.959960938 119.037109375 372.495564521 62.1220703125 305.815028629 31.748046875 c 0
 252.579862033 7.4990234375 189.736180583 1 104.23046875 1 c 0
 99.6171875 -9 95.0029296875 -9 90.3896484375 1 c 1
 93.23046875 12.8662109375 l 2
 102.731445312 52.55859375 108.138671875 99.5771484375 113.801757812 150.057617188 c 0
 132.328125 315.1796875 154.646556391 519.413085938 376.095719597 599.301757812 c 2
 378.032638956 600 l 2
 378.805081973 610 379.578581685 610 380.351024702 600 c 0
 407.221686116 600 428.803710938 596.59765625 444.923828125 587.549804688 c 0
 465.629882812 575.928710938 476.130859375 555.4609375 476.130859375 528.201171875 c 0
 476.130859375 516.553710938 474.360351562 503.668945312 470.921875 489.263671875 c 0
 470.22265625 486.334960938 469.934570312 483.765625 469.934570312 481.563476562 c 0
 469.934570312 469.6796875 477.879882812 463.853515625 491.025390625 463.853515625 c 0
 506.560546875 463.853515625 524.651367188 473.8125 529.484375 494.0625 c 0
 533.521484375 510.977539062 535.352539062 525.50390625 535.352539062 537.817382812 c 0
 535.352539062 578.463867188 516.999023438 596.927734375 485.086914062 607.255859375 c 0
 459.0078125 615.951171875 423.412109375 618 380.607801246 618 c 0
 355.338030627 618 320.164927642 606.868164062 283.734359279 594.920898438 c 0
 245.613081165 582.737304688 205.673233375 569.64453125 169.422302923 569.64453125 c 0
 152.013671875 569.64453125 136.2890625 572.859375 122.690429688 581.567382812 c 0
 121.212890625 582.52734375 119.90234375 582.866210938 118.501953125 582.866210938 c 0
 116.100585938 582.866210938 112.576171875 581.55859375 109.451171875 578.877929688 c 0
 105.473632812 575.466796875 103.331054688 570.743164062 103.331054688 568.2421875 c 0
 103.331054688 566.686523438 103.49609375 565.924804688 105.489257812 564.61328125 c 0
 116.860351562 557.56640625 130.528320312 554.546875 146.50390625 554.546875 c 0
 175.283782291 554.546875 212.746740296 564.124023438 247.908219652 573.926757812 c 2
 298.697140577 588.087890625 l 1
 283.824178234 576.806640625 268.951215892 565.525390625 254.07825355 554.244140625 c 0
 121.586914062 451.528320312 88.2705078125 280.548828125 58.3798828125 123.479492188 c 0
 50.80859375 83.6953125 43.43359375 44.91796875 34.7177734375 8.5126953125 c 0
EndSplineSet
Validated: 524297
EndChar

StartChar: N
Encoding: 78 78 71
Width: 544
Flags: W
HStem: 583.231 18.9443<104.873 120.226>
VStem: 94.2744 52.6162<39.9824 284.018> 474.555 50.5605<315.531 526.202>
LayerCount: 2
Fore
SplineSet
560.926757812 23.94921875 m 2
 530.8359375 168.1796875 525.115234375 307.956054688 525.115234375 451.681640625 c 0
 525.115234375 506.66015625 525.96875 563.651367188 526.598632812 619.037109375 c 0
 526.537109375 629.609375 517.990234375 637.078125 504.318359375 637.078125 c 0
 496.38671875 637.078125 487.4921875 634.091796875 479.9765625 627.174804688 c 0
 408.713943316 565.314453125 343.64637651 425.94921875 280.052704086 287.653320312 c 0
 242.30837758 205.572265625 205.858398438 124.680664062 169.463867188 59.193359375 c 2
 158.650390625 39.734375 l 1
 151.278320312 60.73046875 l 2
 147.998046875 70.0732421875 146.890625 81.1884765625 146.890625 98.1015625 c 0
 146.890625 149.215820312 157.739257812 239.700195312 174.310546875 311.48046875 c 0
 192.193359375 388.659179688 220.699822905 497.12890625 260.481056462 561.8515625 c 2
 262.13798348 564.545898438 l 1
 280.643546278 572.971679688 296.209883242 583.646484375 307.411266474 596.271484375 c 0
 315.770827203 605.474609375 318.552709193 613.578125 318.552709193 619.599609375 c 0
 318.552709193 629.764648438 308.956875397 638.372070312 293.988873189 638.372070312 c 0
 285.097340413 638.372070312 274.712646662 634.658203125 264.984087446 626.111328125 c 0
 263.535881855 625.224609375 262.197923992 624.377929688 260.782899756 623.33984375 c 0
 257.65100799 620.022460938 254.435627653 616.399414062 251.226669513 612.631835938 c 0
 234.493633292 597.926757812 209.75 582.360351562 179.69921875 582.360351562 c 0
 162.134765625 582.360351562 142.9140625 587.833007812 122.771484375 600.926757812 c 0
 121.279296875 601.880859375 119.986328125 602.17578125 118.501953125 602.17578125 c 0
 115.302734375 602.17578125 110.57421875 599.927734375 107.185546875 596.081054688 c 0
 104.5 593.033203125 103.331054688 589.668945312 103.331054688 587.9765625 c 0
 103.331054688 585.819335938 103.747070312 584.662109375 105.666992188 583.231445312 c 0
 137.135742188 562.8125 165.901367188 554.212890625 193.655273438 552.455078125 c 2
 208.950195312 551.487304688 l 1
 201.8984375 537.883789062 l 2
 165.225585938 467.135742188 132.237304688 377.63671875 115.74609375 306.509765625 c 0
 102.33984375 248.44140625 94.2744140625 178.953125 94.2744140625 116.900390625 c 0
 94.2744140625 67.5595703125 99.5419921875 22.9091796875 110.48046875 -6.8681640625 c 0
 112.658203125 -12.6533203125 118.72265625 -16.5654296875 129.020507812 -16.5654296875 c 0
 141.948242188 -16.5654296875 157.28515625 -9.150390625 164.639648438 3.8740234375 c 0
 222.023866007 105.469726562 273.926997805 221.34375 319.645553175 322.99609375 c 0
 348.396662108 386.923828125 374.471855313 444.947265625 399.171627835 490.015625 c 0
 419.66057937 527.399414062 438.220730849 554.357421875 457.967773438 571.936523438 c 2
 474.885742188 587.286132812 l 1
 474.705078125 566.959960938 474.5546875 546.826171875 474.5546875 526.202148438 c 0
 474.5546875 367.212890625 481.591796875 190.120117188 520.833984375 -2.208984375 c 0
 521.998046875 -4.1748046875 525.103515625 -5.9091796875 530.689453125 -7.896484375 c 0
 532.025390625 -8.3720703125 533.397460938 -8.7783203125 534.9296875 -9.4609375 c 0
 548.0234375 -8.05859375 562.48828125 4.9296875 562.48828125 16.1083984375 c 0
 562.48828125 16.232421875 562.484375 16.3564453125 562.484375 16.4814453125 c 2
 560.926757812 23.94921875 l 2
EndSplineSet
Validated: 524297
EndChar

StartChar: O
Encoding: 79 79 72
Width: 516
Flags: W
HStem: -22.3418 11.6377<360.172 428.561> -0.952148 47.0986<123.657 278.557> 176.866 51.127<17.8861 131.771> 598 30<402.808 488.95>
VStem: 525.021 55.541<299.039 561.778>
LayerCount: 2
Fore
SplineSet
338.245935658 518.912109375 m 0
 369.296377309 564.620117188 406.159773376 598 448.300324707 598 c 0
 507.622070312 598 525.020507812 533.967773438 525.020507812 462.854492188 c 0
 525.020507812 413.198242188 516.754882812 354.999023438 502.978515625 297.42578125 c 2
 428.664374038 -7.345703125 l 1
 420.072933122 -9.0166015625 410.351857634 -10.7041015625 400.585182219 -10.7041015625 c 0
 366.558308926 -10.7041015625 332.416399451 3.1318359375 298.180181036 16.5810546875 c 0
 260.318768371 31.453125 222.070792683 46.146484375 184.784560924 46.146484375 c 0
 168.614204758 46.146484375 152.534012085 43.478515625 136.246547014 36.888671875 c 0
 116.14941526 28.8125 108.974609375 14.4404296875 108.974609375 2.6923828125 c 0
 108.974609375 -9.8369140625 116.126615296 -18.4755859375 129.342303422 -18.4755859375 c 0
 133.699169237 -18.4755859375 139.192924158 -17.5 145.717859262 -14.8779296875 c 0
 171.154328001 -4.603515625 196.187651925 -0.9521484375 220.83648555 -0.9521484375 c 0
 250.402856828 -0.9521484375 279.31010188 -6.083984375 308.583182714 -11.2119140625 c 0
 340.254405199 -16.759765625 372.413754182 -22.341796875 406.481045593 -22.341796875 c 0
 423.925090648 -22.341796875 441.89871668 -20.8935546875 460.665039062 -17.2294921875 c 0
 475.458984375 -14.248046875 488.922851562 -1.771484375 492.283203125 12.1748046875 c 2
 561.543945312 302.48828125 l 2
 574.845703125 359.927734375 580.561523438 408.4453125 580.561523438 448.889648438 c 0
 580.561523438 509.028320312 567.953125 551.188476562 549.254882812 579.151367188 c 0
 526.021484375 613.896484375 492.939453125 628 458.646326476 628 c 2
 457.585091796 628 l 2
 376.090766531 628 245.213792333 547.373046875 183.772035257 296.51953125 c 2
 156.79138715 186.9453125 l 1
 143.357026644 197.987304688 l 2
 119.149683227 217.884765625 87.43359375 227.993164062 58.40625 227.993164062 c 0
 44.8994140625 227.993164062 32.166015625 225.754882812 21.7470703125 221.733398438 c 0
 1.6435546875 214.037109375 -6.05078125 198.880859375 -6.05078125 186.586914062 c 0
 -6.05078125 174.1171875 0.7978515625 165.56640625 13.36328125 165.56640625 c 0
 17.0146484375 165.56640625 21.51953125 166.3203125 26.8173828125 168.291015625 c 0
 39.9736328125 173.365234375 57.7900390625 176.866210938 76.1728515625 176.866210938 c 0
 100.779296875 176.866210938 129.760993667 170.512695312 144.531224781 147.047851562 c 2
 146.687894087 143.62109375 l 1
 142.806718426 127.618164062 138.926579126 111.616210938 135.045403465 95.61328125 c 0
 134.414259012 92.8232421875 134.15309579 90.3701171875 134.15309579 88.224609375 c 0
 134.15309579 75.7177734375 142.631573249 69.74609375 156.518823946 69.74609375 c 0
 173.148288474 69.74609375 192.069149368 80.328125 197.314177411 101.48828125 c 2
 246.892698761 298.614257812 l 2
 266.723485483 379.114257812 298.92117986 461.024414062 338.245935658 518.912109375 c 0
EndSplineSet
Validated: 524297
EndChar

StartChar: P
Encoding: 80 80 73
Width: 493
Flags: W
HStem: -17.999 18<207.93 257> 370.99 19.0195<208.121 286.331>
VStem: 81.8262 20.0547<583.115 605.215> 86.5527 49.6533<85.4489 321.329> 346.139 53.4322<465.171 579.181>
LayerCount: 2
Fore
SplineSet
183.173828125 386.965820312 m 2xd8
 200.088867188 377.256835938 222.584403758 370.990234375 253.288626552 370.990234375 c 0
 253.432648567 370.990234375 253.621147969 370.9921875 253.852006787 370.994140625 c 0
 254.057449955 370.994140625 254.295721671 371 254.566821934 371 c 0
 275.046540656 371.396484375 303.874241315 387.243164062 330.201677436 410.56640625 c 0
 362.907382643 439.541015625 390.316042861 478.338867188 396.160583304 501.5 c 0
 398.767805368 511.837890625 399.571575289 525.174804688 399.571575289 534.768554688 c 0
 399.571575289 564.568359375 390.473831686 580.6171875 377.006714307 590.583984375 c 0
 365.113249239 599.387695312 348.191721473 603.889648438 327.888853314 606.8046875 c 1
 325.312341827 609.40234375 l 2
 324.551990307 610.168945312 323.795874729 611.001953125 319.696542231 611.001953125 c 0
 312.474261778 611.001953125 305.339877114 610.276367188 298.538013866 609.14453125 c 1
 297.255582542 609.14453125 l 1
 296.986600249 609.15234375 l 2
 296.725030855 609.161132812 296.586303767 609.163085938 296.574654927 609.163085938 c 0
 293.387108862 609.163085938 291.092287493 607.604492188 288.296566027 606.8515625 c 0
 234.938527477 592.483398438 190.731445312 541.3046875 158.09375 476.572265625 c 2
 147.490234375 455.54296875 l 1
 139.715820312 477.765625 l 2
 132.760742188 497.647460938 127.838867188 518.74609375 123.422851562 538.432617188 c 0
 117.203125 566.165039062 111.229492188 590.818359375 101.880859375 604.940429688 c 0
 100.685546875 606.7265625 99.9052734375 607.017578125 97.8818359375 607.017578125 c 0
 94.849609375 607.017578125 89.640625 604.774414062 86.00390625 600.93359375 c 0
 83.119140625 597.88671875 81.826171875 594.5703125 81.826171875 592.435546875 c 0xe8
 81.826171875 591.307617188 82.0556640625 590.254882812 82.8564453125 588.938476562 c 0
 96.306640625 568.850585938 103.5859375 541.985351562 111.477539062 514.115234375 c 0
 118.65234375 488.778320312 126.2421875 462.434570312 137.517578125 439.606445312 c 2
 139.500976562 435.58984375 l 1
 120.994140625 390.55078125 105.841796875 341.62109375 95.748046875 298.536132812 c 0
 89.794921875 274.325195312 86.552734375 245.458984375 86.552734375 215.361328125 c 0
 86.552734375 141.259765625 106.357421875 60.6513671875 148.189453125 16.7578125 c 0
 168.967773438 -5.04296875 194.780273438 -17.9990234375 241.843970918 -17.9990234375 c 2
 408.103221459 -18.9990234375 l 2
 429.353329284 -18.9990234375 452.440393587 -4.3095703125 457.395904085 12.5244140625 c 2
 577.794921875 611.567382812 l 2
 578.493164062 614.580078125 578.790039062 617.267578125 578.790039062 619.530273438 c 0
 578.790039062 631.731445312 570.869140625 637.750976562 557.698242188 637.750976562 c 0
 542.143554688 637.750976562 524.064453125 627.473632812 519.23828125 606.635742188 c 2
 378.74609375 0.0009765625 l 1
 257 0.0009765625 l 2
 154.876953125 0.0009765625 136.206054688 83.9150390625 136.206054688 158.510742188 c 0
 136.206054688 214.487304688 146.236328125 271.299804688 154.329101562 303.545898438 c 0
 160.11328125 328.083984375 165.879882812 366.991210938 170.907226562 394.0078125 c 1
 183.173828125 386.965820312 l 2xd8
295.378001421 590.07421875 m 1
 329.244354631 584.422851562 346.139407761 564.360351562 346.139407761 529.873046875 c 0
 346.139407761 518.233398438 344.415379524 506.259765625 342.498615943 494.868164062 c 0
 340.145550376 485.544921875 332.81101747 456.588867188 318.085825432 430.994140625 c 0
 306.791746102 411.364257812 289.571584453 390.696289062 263.243089347 390.009765625 c 0
 263.12024704 390.009765625 262.996345748 390.009765625 262.873503441 390.009765625 c 0
 226.920948986 390.184570312 199.94921875 399.467773438 180.956054688 414.625976562 c 2
 176.025390625 418.560546875 l 1
 185.952148438 461.565429688 198.46875 505.356445312 221.343272865 539.15625 c 0
 239.414858778 565.534179688 262.697711864 584.680664062 295.378001421 590.07421875 c 1
EndSplineSet
Validated: 524297
EndChar

StartChar: Q
Encoding: 81 81 74
Width: 544
Flags: W
HStem: -20.3799 53.2266<272.884 345.998 374.152 388.081> 24.5518 29.3848<142.765 253.221> 599 19<385.276 496.152>
VStem: 542.953 87.8447<485.09 605.657>
LayerCount: 2
Fore
SplineSet
253.183446127 44.7744140625 m 0xb0
 235.750028943 49.7431640625 220.731281258 53.9365234375 203.058880075 53.9365234375 c 0
 181.272022769 53.9365234375 153.938476562 47.626953125 114.973632812 25.435546875 c 0
 107.69140625 21.279296875 100.409179688 17.1240234375 93.126953125 12.96875 c 1
 98.310546875 35.2685546875 l 2
 148.009765625 241.813476562 196.80494815 391.276367188 259.124940097 484.7109375 c 0
 308.999141959 559.375976562 368.767902122 599 445.208641273 599 c 0
 486.446313158 599 513.685546875 585.895507812 528.051757812 564.139648438 c 0
 539.321289062 547.07421875 542.953125 526.192382812 542.953125 504.696289062 c 0
 542.953125 465.483398438 531.940429688 426.471679688 523.793945312 392.502929688 c 0
 523.35546875 390.677734375 523.182617188 389.099609375 523.182617188 387.770507812 c 0
 523.182617188 379.784179688 530.360351562 373.6328125 545.497070312 373.6328125 c 0
 562.3125 373.6328125 578.892578125 382.6328125 582.396484375 397.311523438 c 2
 582.396484375 397.311523438 629.58203125 590.80859375 629.612304688 590.928710938 c 0
 630.452148438 594.190429688 630.797851562 597.052734375 630.797851562 599.456054688 c 0
 630.797851562 611.858398438 622.73828125 618.00390625 609.443359375 618.00390625 c 0
 595.262695312 618.00390625 578.708007812 609.4140625 571.920898438 592.036132812 c 0
 569.994140625 587.217773438 568.067382812 582.399414062 566.140625 577.58203125 c 1
 555.352539062 587.041015625 l 2
 534.087890625 606.0703125 503.539359191 618 455.294593686 618 c 0
 403.528176524 618 357.647386942 613.220703125 314.318863705 590.709960938 c 0
 279.6392852 573.103515625 245.951852387 544.109375 212.223037064 495.846679688 c 0
 151.642578125 408.95703125 94.984375 260.04296875 34.716796875 8.5107421875 c 0
 34.2529296875 6.501953125 34.0537109375 4.6435546875 34.0537109375 2.9296875 c 0
 34.0537109375 -8.5107421875 43.2529296875 -17.2353515625 56.4482421875 -17.2353515625 c 0
 61.4794921875 -17.2353515625 67.1123046875 -15.8642578125 72.9296875 -12.4462890625 c 0
 120.275390625 14.5751953125 156.390788228 24.5517578125 188.314291523 24.5517578125 c 0x70
 224.099817627 24.5517578125 250.32805289 11.8974609375 273.995745307 0.5830078125 c 0
 297.374794711 -10.59375 318.174679137 -20.3798828125 345.998210188 -20.3798828125 c 0
 354.514730884 -20.3798828125 363.798897153 -19.4599609375 374.151766761 -17.2666015625 c 0
 397.942572146 -11.98828125 408.515803623 5.6728515625 408.515803623 20.0498046875 c 0
 408.515803623 32.2060546875 402.2701482 40.2646484375 388.201129134 40.2646484375 c 0
 385.634378909 40.2646484375 382.665183769 39.9716796875 379.30802759 39.2724609375 c 0
 359.476493914 34.9111328125 326.054943732 32.845703125 324.471028136 32.8466796875 c 0
 294.863910876 32.86328125 272.628053329 39.21875 253.183446127 44.7744140625 c 0xb0
EndSplineSet
Validated: 524329
EndChar

